<?xml version="1.0" encoding="UTF-8" standalone="no"?>
<!-- Created with Inkscape (http://www.inkscape.org/) -->

<svg
   width="210mm"
   height="297mm"
   viewBox="0 0 210 297"
   version="1.1"
   id="svg1"
   xml:space="preserve"
   inkscape:version="1.3.2 (091e20e, 2023-11-25, custom)"
   sodipodi:docname="ma.svg"
   xmlns:inkscape="http://www.inkscape.org/namespaces/inkscape"
   xmlns:sodipodi="http://sodipodi.sourceforge.net/DTD/sodipodi-0.dtd"
   xmlns="http://www.w3.org/2000/svg"
   xmlns:svg="http://www.w3.org/2000/svg"><sodipodi:namedview
     id="namedview1"
     pagecolor="#ffffff"
     bordercolor="#000000"
     borderopacity="0.25"
     inkscape:showpageshadow="2"
     inkscape:pageopacity="0.0"
     inkscape:pagecheckerboard="0"
     inkscape:deskcolor="#d1d1d1"
     inkscape:document-units="mm"
     inkscape:zoom="0.72426347"
     inkscape:cx="396.26464"
     inkscape:cy="561.25984"
     inkscape:window-width="1920"
     inkscape:window-height="1009"
     inkscape:window-x="-8"
     inkscape:window-y="-8"
     inkscape:window-maximized="1"
     inkscape:current-layer="layer1" /><defs
     id="defs1" /><g
     inkscape:label="Layer 1"
     inkscape:groupmode="layer"
     id="layer1"><path
       style="fill:#6f9c76;fill-opacity:1;stroke-width:1.19226"
       d="m 11.885535,239.82076 c 0.805184,-5.93137 2.474843,-9.82948 4.726324,-11.03443 1.069241,-0.57224 1.944074,-1.52042 1.944074,-2.10705 0,-0.58664 2.071378,-5.38373 4.603063,-10.66021 3.051406,-6.35967 6.217518,-11.16195 9.392425,-14.2462 3.561533,-3.45983 4.803362,-5.46641 4.843968,-7.82702 0.03003,-1.74593 1.343738,-6.35541 2.919344,-10.24328 2.41271,-5.95346 3.660027,-7.60017 7.904899,-10.43602 4.09657,-2.73679 5.504002,-4.52428 7.517752,-9.5478 3.246505,-8.09876 4.794757,-9.64823 10.96234,-10.97093 5.89783,-1.26486 13.428773,-4.83365 13.428773,-6.36368 0,-0.56945 2.465511,-2.61363 5.478914,-4.54263 5.639456,-3.61005 12.270857,-11.97097 14.447889,-18.21601 0.98962,-2.83881 0.89381,-3.71156 -0.587079,-5.34792 -2.628593,-2.90456 -1.238451,-12.68065 2.689359,-18.912762 1.65956,-2.633159 3.01738,-5.774545 3.01738,-6.98084 0,-4.325994 8.04458,-11.955843 17.60899,-16.701203 4.95159,-2.456705 9.8765,-5.50782 10.94427,-6.780244 2.78577,-3.31973 7.42029,-12.846208 9.54595,-19.622136 1.50053,-4.783185 2.39583,-6.037526 5.01505,-7.02617 1.75363,-0.661924 3.2194,-1.094259 3.25724,-0.960746 1.49285,5.265915 7.38709,10.481126 11.7318,10.380246 12.48152,-0.289811 15.00261,-0.509483 15.52371,-1.352638 1.00493,-1.626014 2.28485,-1.063813 2.89565,1.271906 0.48724,1.863199 1.10941,2.12448 3.78474,1.589414 2.55779,-0.511562 3.83161,-0.06803 6.33435,2.20557 2.61496,2.37556 3.23152,3.880751 3.73067,9.107515 0.54285,5.684471 2.04556,15.77164 2.83648,19.040252 0.17287,0.714463 1.61712,2.658829 3.20942,4.320843 1.82624,1.906178 2.4782,3.279473 1.76591,3.719692 -0.62104,0.383826 -1.12917,1.628977 -1.12917,2.767004 0,1.940085 -0.48252,2.025403 -7.73683,1.368037 -9.76985,-0.885314 -13.49791,-0.08548 -12.61201,2.705709 0.53961,1.700191 -0.10528,2.210251 -4.05055,3.203681 -3.81514,0.96067 -4.89901,1.77435 -5.79778,4.35258 -0.88067,2.5263 -0.79102,3.4062 0.44095,4.32768 2.60912,1.95155 0.78175,5.68672 -3.33876,6.82445 -4.61521,1.27431 -14.49817,8.04102 -17.11827,11.72061 -1.50597,2.11494 -2.83723,2.78635 -5.37597,2.71134 -4.8837,-0.14428 -16.5916,1.02953 -19.02838,1.90777 -1.14797,0.41374 -5.02233,2.81675 -8.60972,5.34003 l -6.52252,4.58778 v 11.79563 c 0,6.48758 -0.30065,14.6721 -0.66812,18.18782 l -0.66812,6.39222 -19.421229,0.28339 -19.421234,0.28339 -0.521802,16.69764 -0.521801,16.69765 -4.644568,0.5218 c -3.861128,0.43379 -4.971725,1.08395 -6.5841,3.85447 -1.707152,2.93337 -1.833696,4.45744 -1.056172,12.72043 0.841419,8.94203 0.782404,9.41488 -1.242921,9.95902 -1.169455,0.31418 -11.831786,0.57766 -23.694072,0.5855 -16.24075,0.0107 -21.709734,0.33645 -22.142486,1.31875 -0.316084,0.71748 -0.319693,-0.57398 -0.008,-2.8699 z"
       id="path1" /></g></svg>
