<?xml version="1.0"?>
    
<!--********* Copyright (c) 2024 Pareto Softare, LLC DBA Simplemaps.com ***************************************
************* Free for Commercial Use, full terms at  https://simplemaps.com/resources/svg-license ************
************* Attribution is appreciated! https://simplemaps.com *******************************************-->

<svg baseprofile="tiny" fill="#6f9c76" height="1000" stroke="#ffffff" stroke-linecap="round" stroke-linejoin="round" stroke-width=".5" version="1.2" viewbox="0 0 1000 1000" width="1000" xmlns="http://www.w3.org/2000/svg">
 <g id="features">
  <path d="M653 45.5l13.4 8.8 13.3 8.8 13.4 8.8 13.3 8.8 13.4 8.8 13.3 8.8 13.4 8.8 13.3 8.7 13.3 8.8 13.4 8.7 13.3 8.8 13.4 8.7 11.3 7.4 11.3 7.4 11.3 7.3 9.7 6.3 1.6 1.1 8.2 5.3 11.7 8 11.7 8 11.7 8 11.7 7.9-14.9 0-15 0.1-14.9 0-14.9 0-15 0-14.9 0-14.9 0-15 0 0.7 5.9 0.6 5.9 0.7 6 0.6 5.9 0.7 5.9 0.6 5.9 0.7 5.9 0.6 5.9 0.7 6 0 0.4 0.5 4.6 1.1 10 1.1 10.1 0.4 4.5 1 8.9 0.9 8.9 1 8.9 1 8.9 0.9 8.9 1 8.8 0.2 1.9 0.7 7 1 8.8 0.9 8.8 1 8.8 0.9 8.9 1 8.8 0.9 8.8 1 8.8 0.9 8.7 1 8.8 0.9 8.8 1 8.8 0.9 8.7 1 8.8 0.9 8.7 1 8.7 0.9 8.8 1 8.7 0.5 4.2 1 9.3 1 9.3 0.4 4.2 0.9 7.8 1 9 0.9 9 1 9 1 8.9 1 9 0.9 9 1 8.9 1 9 1 9.8 0.4 4.2 0.4 4.1 0.5 4.2 0.4 4.2 0.7 6.6 0.7 6.6 0.7 6.6 0.7 6.6 0.6 6.6 0.7 6.6 0.7 6.6 0.7 6.6 0.7 6.6 0.7 6.6 0.7 6.6 0.6 6.5 0.7 6.4 0.7 6.4 0.7 6.4 0.6 6.4 0.7 6.4 0.7 6.4 0.6 6.3 0.7 6.4 0.7 6.4 0.6 6.4 0.7 6.3 0.7 6.4 0.6 6.3 0.7 6.4 0.7 6.4 0.6 6.3 0.3 2.8 0.6 1.2 0.6 1.1 2.7 1.8 2.4 1.8 3 2 2.7 1.9 2.8 1.9 2.7 1.9 0.3 0.4 0.3 0.3 0.1 0.5 0 0.4-0.3 2.1-1.3 6.6-1.2 6.7-1.2 6.6-1.3 6.7-1.2 6.8-1.3 6.8-1.3 6.8-1.2 6.8-0.1 0.3 0 0.3-0.1 0.1 0 0.3-0.1 0.3 0 0.1 0 0.1-0.1 0-0.1 0-0.1 0-10.6 0-9.1 0-4.2 0-4.6 0-4.9 0-5.2-0.1-9 0-6.7 0-3 0-10.2 0-10.6 0-11 0-11.3 0-11.5 0-11.5 0-11.6 0-11.5 0-11.2 0-11.1 0-10.6 0-10.2 0-9.7 0-9 0-5.7 0-5.4 0-5 0-4.6 0-6.2 0-1.1 0-8.2 0-2.4 0-11.6 0 0.4-6.4 0.9-4.8-0.2-2.3-1.6-0.7-1.3 0.8-4.2 5-1 1.9 0 2 1.1 4.4 0.8 3.9-16.7 0.7-3.3 0.7-1.4 0.6-3.8 2.2-2.5 0.7-7.9-0.7-7.8 1.1-2.7-0.1-1.6-0.4-2.5-1.6-1.3-0.7-0.6 0-1.2 0.2-0.6 0-5.8-2.3-0.9-0.1-3.2 0.2-1.9-0.3-6.9-0.2-1 0.2-1.3-0.3-1.1 0.2-2.3 0.8-0.2 0.1-1.3 0.1-2.8 0-4.1-0.6-1.1 0-0.7 0.8-0.3 1.3 0.1 2.9-0.5 1.5-0.5 0.5-1.1 0.6-0.8 1.2-0.5 0.1-0.7 0-0.7 0.2-1.1 1.1-0.5 1.2-0.7 2.5-0.7 1.2-1.8 1.7-0.6 1.2-1.1 3.9-0.6 1.2-2.2-3.4-2.5-2.5-1.8-3.6-2.2-2.2-17.1-12.6-1.3-1.5-6.2-9.1-1.7-1.5-1.6-0.6-3.8-0.8-0.6 0-0.2 0.1 0.1 0.3 0.2 0.2 0.2 0.2 0.3 0.1 0.1 0.4 0.1 0.3-0.1 0.4-0.1 0.4-0.6 0.6-0.8 0.4-1.8 0.6-1.1 0.6-2.4 2.6-2 1-1.8-0.1-1.8-0.6-0.3-0.1-1.7-0.2 0 2.4-0.2 0.7-1.7 1.9-0.9 2.3-1 4.9-2.3 4.9-0.3 1.1-0.3 3.4-1.3 3.7-0.2 1.5 0.1 0.6 0.2 1-0.1 0.7-0.8 2.8-0.1 2.1-0.1 0.4 0.6 0.5 0.5-0.2 0.3-0.3 0.5 0 0.7 0.6 0.5 0.8 0.2 1-0.1 1.3-0.5 1.1-0.4 1.2-0.3 2.5 0 0.5 0.2 0.3 0.5 0.6 0 0.5-0.4 0.2-0.5 0.2-0.2 0.1-0.3 0.3-0.3 0.4-0.4 0.4-0.2 0.7-0.6 0.9-1 0.9-1.2 0.6-2.7 0.6-1 0.9-1.6 2.2-1.1 0.8-1.4 0.4-1.3 0-1.3-0.3-0.5 0.3-0.3 1.1-0.6 0.8-0.7-0.3-2.9-2.6-1-0.6-1.4 0.3-2.9 1-1.5 0.2-1.5-0.2-1.1-0.6-3.8-2.9-4.2-2-1.2-1-2.3-2.8-0.9-0.5 0-0.8-1.6-5.5-0.3-0.7-0.6-0.7-0.7-0.4-1.6-0.4-0.7-0.4-1.2-0.9-3.7-2.2-0.9-1.1-0.5-0.5-0.7-0.3-1 0.2-2.1 0.7-0.7 0.1-0.1 0-1.8-0.8-2-1.9-0.5-0.6-1.7-0.5-0.1-0.2-0.2-0.6 0-0.6 0.3-1.8 0-0.5-0.2-0.6-0.3-0.4-0.6-0.5-0.7-0.2-0.7 0-1.5 0.3-0.6 0-0.6-0.2-0.6-0.5-1.5-1.5-0.4-0.9 0.7-0.5 2.3 0.2 1.1-0.2 0.3-0.9-0.4-1.2-0.9-0.9-4-2.7-0.8-0.9-0.6-1.1-0.2-1.1 0-2.4-0.1-0.5-0.3-0.5-0.7-0.9-0.2-0.5-0.3-2-0.2-0.6-0.5-0.5-1-0.5-1.1 0.2-1 0.5-0.9 0.7-1 0.7-0.9 0.1-2.1-0.5-0.4-0.3-0.2-0.7-0.2-0.6 0-0.6 0.4-2.6-0.2-1-0.4-0.8-0.8-0.7-0.8-0.5-1.6-0.4-0.4-0.2-1.3-0.9-0.5-0.2-1-0.1-2 0.4-1 0-0.6-1.7-0.1-0.6 0-0.6 0.3-0.6 1-1.6 0.1-0.5-0.1-0.5-0.2-0.6-0.8-1.1-0.5-0.5-0.5-0.5-1-0.6-0.5-0.3-0.4-0.5 0-0.6 0.1-0.6 0.2-0.6 0.2-0.6 0-1.4-0.4-1.1-0.6-1.1-1.2-1.5-0.3-0.4-0.1-0.5 0-0.5 0.2-1.2 0.1-0.6-0.2-0.6-0.4-0.5-1.7-1.3-0.6-0.7-0.5-0.6-0.4-0.8-0.9-2.3-0.1-0.6-0.1-1.2-0.2-0.5-0.4-0.5-1.8-1.3-0.4-0.4-0.5-0.9-0.3-0.4-1.1 0-2.4 0.9-0.7-0.5 0.1-1 1.2-2.2-0.2-1-0.4 0-0.4 0-0.4 0.1-0.9 0.4-3.5 0.7-2.1 0.9-0.5 0.2-0.2 0-1.3 0-0.4 0.1-1.8 1-0.5 0.1-0.4-0.1-0.2-0.1-0.4-0.4-0.2-0.1-0.4-0.1-0.2-0.1-0.1-0.1-0.1-0.3-0.1-0.1-0.3-0.2-0.7-0.3-0.3-0.2-0.2-0.7 0.3-1 0.4-1.1 0.1-0.9-0.6-0.1-0.7 0-0.5 0.2-0.6 0.3-0.5 0.5-1.2 1.8-0.5 0.5-1.1 0.8-1.1 0.7-0.5 0.2-0.6 0-0.5-0.1-0.6-0.4-0.6-0.5-0.4-0.7-0.3-0.6-0.6-1.9-0.3-0.6-0.5-0.5-1-0.8-0.6-0.3-2.6-0.8-1.2-0.6-0.2-1.1 0.3-1.3 0-0.6-0.3-0.6-0.7-0.9-0.1-0.5 0.1-0.6 0.4-1 0-0.5-0.4-0.5-0.6-0.4-1.4-0.5-0.6-0.4-1.1-1.4-0.5-0.4-2.2-1.3-4-3.7-2.3-2.7-1.6-1.1-0.5-0.4-1.1-1.6-0.6-0.3-0.8-0.1-1.6-0.1-0.7-0.4-0.3-0.5-0.1-1.3-0.2-0.5-0.7-0.3-2.6 0.2-0.6-0.3-0.1-0.5 0.3-1.4 0.1-0.7-0.3-0.6-0.6-0.3-4.2-1.7-1.3 0.1-0.7 0.2-1.8 1.1-0.6 0.3-0.7 0.2-0.8 0.1-0.7 0-2.7-0.6-0.7 0-2.9 0.8-0.7 0-0.8-0.1-1.8-0.9-0.6-0.2-0.7 0.1-2.3 0.6-0.8 0-11.5-0.8-2 0.5-1.3-0.2-0.7-0.9-0.5-1-0.1-0.1-0.8-1-0.8-0.4-1.5 0.7-0.7 0.4-0.4 0.7-0.3 1-0.1 0.4-0.3 0.5-0.5 0.3-0.4 0.2-0.5 0-0.5-0.1-0.7-0.7-0.6-0.8-0.6-0.7-0.9-0.3-1 0.3-0.6 0.7-0.1 0.9 0.4 0.9 1.1 1.1 0.2 0.4 0 0.6-0.3 0.4-0.5 0.2-1.4 0.6-7.2 1.1-1.1 0.1-3.2-0.5-2.2 0-1 0.3-2.9 1.2-0.9 0.2-1 0-0.8-0.3-0.5-0.7-0.4-0.7-0.6-0.5-1-0.1-1 0.4-0.8 0.8-1.7 2.3-0.6 0.6-0.8 0.4-1 0.1-2.9-0.6-1.1 0.2-0.8 0.5-1.4 1.4-1 0.6-1 0.3-1 0.1-1.1-0.3-1.6-0.8-0.5-0.1-2.2-0.2-3.1-1-1 0-1.7 0.3-0.6 0-2.3-0.6-1 0.1-2.7 1.2-0.5 0.1-0.4 0-0.9-0.4-0.5-0.1-0.5 0.1-0.5 0.2-0.5 0.4-1.6 0.2-1.5-0.2-1.4-0.6-1.1-1.3-0.8-1.2-0.5-0.5-0.7-0.4-0.8-0.2-0.8 0.2-0.8 0.4-2 1.4-0.7 0.3-0.7 0.1-0.8 0-2.2-0.4-1.5 0.3-1.5 0.9-1.2 1.2-1 1.3-0.5 1.3-0.3 2.8-2.8 11.9-0.3 0.8-0.4 0.7-1.1 0.7-2.4 0.6-1 0.9-0.5 1.4-0.3 4.8-1.2 2.8-0.9 3.1-0.4 0.8-0.2 7.6-0.6 3.9-1.6 2.6 1.1-11.8-0.2-6.2-0.6-14.1 0.6-4.6 0.5-1.3 1.9-3.6 0.5-3.5 0.6-1 0.7-1.9 0-7.6 0.5-3 5.4-13.9 1.5-2.4 1-4.7 1.1-2.4 3.3-4.6 5.7-12.6 0.4-1.7 1-1.3 6.3-20 2-8.6 0.5-9.5 1.2-11.3-0.8-12.9-2.3-24.3-0.7-2.5-3.5-7.8-1.6-8.8-1.1-2.9 0.6-1.7-0.2-1.9-2.6-9.9-0.4-1-1.9-4.6-3-5-3.9-4.6-1.3-1.2-0.3-0.2-0.2-0.5-0.6-0.1-0.6-0.1-0.6-0.3-1.2-0.7-2.6-0.8-1.1-0.7-0.5-0.8-1.1-3-0.2-1.3-0.7-1.3-1.3-1.2-0.8-1 0.9-1.2 3.9 1.1 3.8-0.5 3.3-1.9 2.4-3.1 1.6-2.7 0.4-1.4 0.6-1 0.1-0.4-0.2-0.5-0.4-0.3-0.5 0-0.2 0.2-0.3 0-3.8 4.2-1.9 1.5 2.8-5.9-1 0.5-2.7 2.3-1 1.1-0.4 0.7-0.4 0.8-0.2 0.8 0.4 0.9 0 0.4-0.6 1.4-0.2 0.6-0.1 0.3-0.4 0.1-0.5 0-0.3-0.1-0.3-0.2-0.1-0.1 0-0.2-0.1-0.5-0.1-0.5 0-1.8 0.1-0.6 0.6-1.1 1.8-1.9 0.4-1.2 0.2-1.5 0.7-0.7 0.9-0.6 1-0.9 6.4-9.8 0.4-0.4 0.5-0.2 0.4-0.4 0.1-0.7 0.1-1.4 0.2-0.6 0.4-0.2 0.2-0.3 1.1-1.3 0.4-0.4 0-0.8-0.2-0.6-0.3-0.6-0.5-0.4 0.5-0.5 0.4-0.6 0.1-0.6 0-0.8-1.1 0.6-0.4 0.4-0.2-1.1 1-1.8-0.3-1-1.3-0.8-0.8 0.6-0.5 1.1-0.2 0.5-1.1 0.7-0.5-0.3 0-0.9 0.2-0.9 0.4-0.8 0.4-0.6 4-4.1 1.1-1.7 0.6-2.2-0.3-1.7-2-3.7-0.9-1.9 0.5 0 0.5 0 0.5-0.2 0.4-0.4 1.4-2.3 0.6-1.4 0.2-1.4-0.1-1.3-0.5-1.1-1.9-3-0.4-0.2-1-0.1-0.6-0.3-0.3-0.7-0.2-0.7-0.3-0.3-1.1-0.6-1.9-4.8-0.6-0.6-0.6-0.4-0.4-0.5-0.2-0.7 0.2-0.3 0.4-0.1 0.2-0.2-0.1-0.4-0.2-0.3-0.4-0.9-0.3-1.3-2.6-6.7-0.6-1-1-0.4-0.6-0.9-0.1-1.8-0.3-1.3-1.1 0.5-1.4-0.9 0-0.5 3.1-0.9 0.9-0.4-1.4-0.2-2.4 0.4-1.1-0.2-0.9-1.2 0.5-0.5-1-2-0.4-0.3-1.5-0.7-0.4 3.2 0.5 7-1 2.7-0.6-1.1-0.9-0.8-1.7-1.1-0.6-0.6-0.8-1.7-0.7-0.9-0.8-0.6-2.1-1.1-0.5-0.5-0.1-0.8 0.3-0.4 0.4-0.1 0.3-0.2 0-0.6-0.4-0.6-0.1-0.5-0.3-1.1-0.8-0.9-1.9-1.5-0.2-0.5 0-1.4-0.3-0.6-1.1-1.2-0.8-3.4-0.4-0.8-0.7-0.9-0.4-1.1-0.3-1.1-0.2-1.1-0.2 0.4-0.5 0.3-0.2 0.3-1-1-0.3-1.1-0.2-1.1-0.4-1.3-0.4-0.5-0.6-0.5-0.6-0.7-0.2-1-0.4-0.7-1.6-2.3-0.3-1-0.2-1-0.3-1.1-0.9-2.1-1.3-1.6-0.9 0.6-1.7 3.3-2.9 3.9-0.7 0.6-0.4 0.9 0.5 1.2 0.8-0.3 0 1.2-0.4 2.6-0.1 2.4-0.3 0.6-0.6 0.4-1.6 0.5-0.6 0.6 0 0.6 0.3 0.6 0.7 0.7 0.5 1.2 0 0.4-0.1 0.9-0.6 3.1-0.6 1.5-0.7 0.8-1.6-7.7 0.3-2.2 1.5-6.6 0.5-2.3 2.8-8.2 1.3-7 1.2-6.3 0.7-0.6 7.8 0 2.8 0 7.8 0 12.3 0 15.9 0 18.8 0 20.9 0 22.5 0 23.1 0 23.2 0 22.4 0 2.1 0 18.9 0 18.7 0 15.9 0 12.3 0 7.8 0 2.8 0 9.9 0-0.7-11.7-0.4-6.3-1.9-30-1.1-18.2-1.2-18.3-0.8-4.7-3.3-9.4-0.7-4.7 0.9-4.9 2.2-4.6 5.7-8.2 1.3-1.7 6.8-4.7 8.4-5.8 7.3-5.1 4.2-2.9 4.1-1.5 11.4-1.6 2.4-0.7 14.8-7.1 6.9-1.9 0.9-1.2 0.2-2.5 0-6 0-5.5 0-5.6 0-5.6 0-5.5 0-5.6 0-5.6 0-5.6 0-5.6 0-5.6 0-5.6 0-5.5 0-5.6 0-5.6 0-5.7 0-5.6 0-5.6 0-5.6 0-5.6 0-5.6 0-5.7 0-5.6 0-5.6 0-5.7 0-5.6 0-5.7 0-5.6 0-5.7 0-5.6 0-5.7 0-5.6 0-5.7 0-5.7 6.8 0 6.8 0 6.8 0 6.8 0 6.8 0 6.8 0 6.8 0 6.8 0 6.8 0 6.8 0 6.8 0 6.8 0 6.8 0 6.8 0 6.7 0 6.8 0 6.8 0 6.8 0 6.8 0 6.8 0 6.8 0 6.8 0 6.8 0 6.8 0 6.8 0 6.8 0 6.8 0 6.8 0 6.7 0 6.8 0 6.8 0 6.8 0 5.7 0 1.4-0.4 0.4-0.9 0-3.4 0-1.1 0-2.9 0-4.5 0-5.9 0-7 0-7.8 0-8.4 0-8.6 0-8.7 0-8.3 0-7.9-0.1-7 0-6 0-4.5 0-3 0-1z m-519 550.2l1.3-2.9 0.9-1 0.6 0.9-2 9.6-1.7 4.5-2.7 4.1-1.2-1.6-0.2-0.4 0-0.6 0.1-0.6 0.1-0.8-0.5-0.7-0.5-1.3 0.5-1.3 1.9-3 0.2-0.3-0.1-2.1 0.1-0.6 0.5-1.3 0.9-1.2 1-0.3 0.8 0.9z m3.9 6.1l0.7-0.2 0.6 0.6-0.8 1.3-1.1 1-0.9 1-1.1 2.1-2.4 3.4-0.2 0 0.3-1.2 2.3-4.4 2.6-3.6z m-10.6-0.2l0.5 0.1 0.1 0.7-0.2 1.4-0.4 1.1-0.4 0.5-0.6-0.4-0.3-1.6 0.4-1.4 0.9-0.4z m1.2-63.5l0.6 0.2 0.3 0.3-0.1 2.4-0.4 0.2-0.9-0.3-0.5-1.3 0.4-1.1 0.6-0.4z" id="MR" name="Mauritania">
  </path>
 </g>
 <g id="points">
  <circle class="15.361949813305698|-16.468196797001465" cx="127.9" cy="910.7" id="0">
  </circle>
  <circle class="20.382356544663647|-10.338415913039423" cx="541.3" cy="554.8" id="1">
  </circle>
  <circle class="26.657864958861087|-5.43459120586979" cx="872.1" cy="92.9" id="2">
  </circle>
 </g>
 <g id="label_points">
  <circle class="Mauritania" cx="581.7" cy="611.9" id="MR">
  </circle>
 </g>
</svg>