<?xml version="1.0" encoding="UTF-8" standalone="no"?>
<!-- Created with Inkscape (http://www.inkscape.org/) -->

<svg
   width="84.12178mm"
   height="259.53015mm"
   viewBox="0 0 84.12178 259.53015"
   version="1.1"
   id="svg1"
   xml:space="preserve"
   xmlns:inkscape="http://www.inkscape.org/namespaces/inkscape"
   xmlns:sodipodi="http://sodipodi.sourceforge.net/DTD/sodipodi-0.dtd"
   xmlns="http://www.w3.org/2000/svg"
   xmlns:svg="http://www.w3.org/2000/svg"><sodipodi:namedview
     id="namedview1"
     pagecolor="#ffffff"
     bordercolor="#000000"
     borderopacity="0.25"
     inkscape:showpageshadow="2"
     inkscape:pageopacity="0.0"
     inkscape:pagecheckerboard="0"
     inkscape:deskcolor="#d1d1d1"
     inkscape:document-units="mm" /><defs
     id="defs1" /><g
     inkscape:label="Layer 1"
     inkscape:groupmode="layer"
     id="layer1"
     transform="translate(-47.013471,-12.950923)"><g
       id="features"
       style="fill:#6f9c76;stroke:none;stroke-width:0.5;stroke-linecap:round;stroke-linejoin:round"
       transform="matrix(0.09082212,0,0,0.09082212,87.41286,115.3136)"><path
         style="fill:#6f9c76;fill-opacity:1;stroke:none;stroke-width:214.994;stroke-miterlimit:1.5;stroke-opacity:1"
         d="m -14.599435,1714.6643 c -5.4963,-11.5826 -9.2786,-34.0101 -9.2786,-55.0187 0,-30.2615 -12.6409,-74.3732 -86.148395,-300.6249 -81.9479,-252.231 -87.3181,-266.4979 -110.142,-292.6103 -23.3243,-26.685 -23.8449,-28.1488 -18.6585,-52.4665 4.2469,-19.91208 3.5072,-27.62558 -3.6257,-37.80918 -4.9285,-7.0365 -8.961,-24.2149 -8.961,-38.1741 0,-18.3162 -26.9157,-101.5858 -96.7026,-299.1705 -53.1864,-150.5845 -96.7026,-276.0026 -96.7026,-278.7069 0,-2.7043 35.3828,-40.9327 78.6285,-84.9522 43.2457,-44.0194 89.6319,-96.35032 103.0805,-116.29097 46.6425,-69.157935 125.9269,-238.909235 184.985695,-396.06178 42.35,-112.69131 44.9167,-123.0638 85.3523005,-344.9177 19.9897995,-109.67556 37.4761995,-200.54135 38.8587995,-201.92396 1.3826,-1.3826 9.1392,0.50489 17.2369,4.19446 12.1198,5.52213 17.3236,5.0043 29.4309,-2.92873 18.291205,-11.98486 25.576905,-30.48315 25.576905,-64.93982 0,-14.69342 6.1411,-51.00359 13.647,-80.68925 l 13.647,-53.97395 33.2822,1.65639 c 18.3052,0.91099 41.3071,-0.74572 51.1153,-3.68162 14.764,-4.41927 21.8716,-2.92963 41.2994,8.65568 41.8817,24.97525 83.6776,16.86323 118.7137,-23.04076 13.3484,-15.20301 20.3417,-32.49671 29.9429,-74.04621 l 12.5269,-54.2105 16.1262,8.3391 c 8.8693,4.5866 19.9966,8.3392 24.7271,8.3392 9.7003,0 9.2896,11.2974 -5.9587,163.94674 -6.9759,69.83536 -7.3597,92.7648 -1.9314,115.3923 3.7259,15.53131 5.5703,36.44284 4.0985,46.47002 -1.7923,12.21154 0.1763,20.31663 5.9614,24.54695 7.3291,5.35913 7.6176,10.36515 1.9046,33.05359 -3.7031,14.70588 -5.2798,29.08894 -3.5039,31.96241 1.7759,2.87344 -5.521,8.88038 -16.2153,13.34877 -10.6944,4.46839 -21.6766,11.58523 -24.405,15.81523 -8.3842,12.99848 -18.2541,224.85446 -13.0788,280.73355 4.4273,47.80288 -0.916,120.68258 -9.9158,135.24443 -6.5926,10.66717 -12.8957,163.465495 -7.8558,190.442395 3.3382,17.86843 2.4631,38.29421 -2.7258,63.6292998 -4.2032,20.5221502 -16.8385,139.7040152 -28.0785,264.8485352 -17.9528,199.8851 -22.7317,236.2913 -39.3258,299.5858 -15.8005,60.2678 -22.2844,76.0164 -39.6502,96.3044 -11.4184,13.3398 -20.7607,30.3709 -20.7607,37.8467 0,7.4759 -7.5469,31.973 -16.7707,54.4379 -23.1057,56.2742 -73.0047,192.4315 -86.7047,236.5874 -9.1614,29.52728 -10.5805,44.75938 -7.4574,80.04098 2.9852,33.7231 1.8147,48.4622 -5.1773,65.1965 -10.1134,24.205 -11.5734,73.4443 -3.2472,109.5189 5.119,22.179 3.7161,27.4244 -19.8128,74.0781 -25.4583,50.4793 -42.618105,107.7456 -42.774305,142.7478 -0.091,20.4976 -53.0905,210.2871 -65.3356,233.9665 -4.143,8.0116 -12.5786,19.133 -18.7457995,24.7144 -10.8943,9.8592 -11.4768,9.5917 -20.4918005,-9.4059 z"
         id="path3" /></g></g></svg>
