<?xml version="1.0"?>
    
<!--********* Copyright (c) 2024 Pareto Softare, LLC DBA Simplemaps.com ***************************************
************* Free for Commercial Use, full terms at  https://simplemaps.com/resources/svg-license ************
************* Attribution is appreciated! https://simplemaps.com *******************************************-->

<svg baseprofile="tiny" fill="#6f9c76" height="1000" stroke="#ffffff" stroke-linecap="round" stroke-linejoin="round" stroke-width=".5" version="1.2" viewbox="0 0 1000 1000" width="1000" xmlns="http://www.w3.org/2000/svg">
 <g id="features">
  <path d="M307 849.1l9.7-1.2 13.4-12.1 3.5-14.4-4.4-53.9-4.2-14.3-22-41.1-1.7-8.4 5.5-15.9 1.2-11.1-0.6-10.2-3.2-4.4-13.7-8.5-3.7-19.2-0.8-20.8-4.7-13.5 3.7-10.2-0.8-11.9-2.2-12.6-0.7-12.4 4.1-30.8-0.3-11.9-7.3-42.7 5.9-24.5 0.7-11.2-6.6-7 13.9-18.4 9.8-1.6 5.9 7.2 1.6 10.5 4.5 4.3 0 11 13.7 2.6-8.1-23-1.8-9.8-0.6-10.3 1-6.4 1.8-6.7 0.4-7.1-3.2-7-4.2-2.8-11.3-2.1-5.9-2.9 5.9-7.2 6.7-1.9 7.2-0.9 6.9-3.8 1.6-3.2 3.3-8.8 2.1-1.7 3.4 1.2 3.2 5.3 3.8 1.2 2.7 4.3-1 9.6-3.4 15.4 0 11.9 0.5 4.2 4.2 10.8 2.4 3.1 3.7 3.2 5.2-1.5 1-1.5-0.3-2.8 2.1-13.3 0.3-13.6 2.3-6.1 5.8-6 3.6 1.8 4.2 3.9 7.1 0.3 3.2-3.9 7.2-16.7 3.9-6.9-14.2 5.5-13.1 2.3-10.8-4.4-7.5-15.1-0.6-8.1 3.8-26.9 1.3-2.6 4.9-4.2 1.2-2.9-0.7-2.4-2.6-3.4-0.6-2.4 0-17.1 7.1 1.7 2.4-4.5 1.7-6.2 4.8-3.1 3.5 2 3 4.9 1.9 6.6 0.2 6.7 7.2-4.9 4.8-7.8 1.5-9.3-2.7-9.5-3.5 3.9-7.4-8.2 0.9-12.1 13.4-32.6 2.1-11.1 1.5-26 4.2 3.2 1.6 1.7 1.5 3.3 3.2 0 11.6-34.2 10.3-14.9 14.6-6.3 7.8-1.7 21.6-8.6 4.5-3.3 2.7-8.8 12-12.2 2.9-8.6 9.3 3.4 10.6-3.3 18.6-11.8 40.8 22.2 8.3 9.3 0.9 11-1.1 14.3 0.4 12.4 5.4 5.3 9.7 3.9 3 9.5 0.5 11.8 2.6 10.6 7.9 7.4 6.5 1.1 4 0.7 22.2-1.8 12.5 1.2 10.3 3.3 9 5 8.5 6.5 6.8 7 5.6 8.8 3.7 10 8.9 62.1-0.2 7.8-1.5 6.6-4.1 2.8-3-1.9-2.9-8.2-4.5-2-4 2.4-3.6 5.6-2 6.6 0.8 5.3 4.6 4.2 4.4-0.5 3.4-3.4 1.9-4.2 8.3 13.1-6.8 13.2-10.3 4-2-14.7-7 2-17.5 9.6 7.4 3.1 7.9 4.8 6.2 5.8 3 5.8-1.8 12.4-6.9 5-8.8 2.1-7 3.8-3.5-2.2-3.6-1.4 1.2 29.9-1.1 8.6-0.1 0.8-2.8 5-4.3 5.3-2.9 5.6 1.2 5.2 18.9 32.9 3 8 1 8-1.6 24.6-1.9 29.9 0.6 12.5 2.9 6.3 6.4 2.8 30.1 4.8 4.7 5 4.4 11.3 1.8 9.9 1.8 10.1 1 46.9-5.6 58.3 2.7 6.7-4.5 4.9-7.8 34.2-6.6 10.7-17.8 20.2-5.5 13.8-4.1 2.2-4.6 1.5-3.4 2.1-2.5 5-13.4 51.4-0.7 2.8-2.7 6.1-6 4.5-2.8 10.8-3.5 23.7-6.8 8.6-20.7 12.4-4.4 4.2-2.7 13.1-6.5 8.8-7.1 7-4.7 7.9-6-8.4 1.9-8 4.6-8.9 2.7-11.5-4-6.3-9.2-1.1-18 1.8-0.8-9.9-3.3-0.3-5.2 3.9-6.9 2.4-9 1-8.2 3.3-4.3 6 1.2 3.6 0.2 0.8-34.8 28-26.7 9.1-29.1 0.1-30.8-4.4-25.8-11-24.4-27.8-37.6-62.2z" id="QA" name="Qatar">
  </path>
 </g>
 <g id="points">
  <circle class="24.639882922715405|50.79426516862938" cx="300.1" cy="909.4" id="0">
  </circle>
  <circle class="25.27997502070865|51.22704511740917" cx="522.2" cy="546.9" id="1">
  </circle>
  <circle class="26.08009014320021|51.573269076433" cx="699.9" cy="91.2" id="2">
  </circle>
 </g>
 <g id="label_points">
  <circle class="Qatar" cx="479.3" cy="571.1" id="QA">
  </circle>
 </g>
</svg>