<?xml version="1.0"?>
    
<!--********* Copyright (c) 2024 Pareto Softare, LLC DBA Simplemaps.com ***************************************
************* Free for Commercial Use, full terms at  https://simplemaps.com/resources/svg-license ************
************* Attribution is appreciated! https://simplemaps.com *******************************************-->

<svg baseprofile="tiny" fill="#6f9c76" height="1000" stroke="#ffffff" stroke-linecap="round" stroke-linejoin="round" stroke-width=".5" version="1.2" viewbox="0 0 1000 1000" width="1000" xmlns="http://www.w3.org/2000/svg">
 <g id="features">
  <path d="M710.3 586.5l0.1 5.7-3 12-0.3 2-0.1 7-1.9 8.6 0.8 13.1-1.5 13.3 0 6.9 2.2 4.9 7.1 7 2.5 4.5 0.4 5.3-1.9 3.9-2.2 2.1-1.3 1.2-7.4 5-27.7 13.3-32.8 15.8-2.9 3.1-4.3 9.9-3.5 3.5-3.8 2.4-3.6 2.9-2 0.6-2-0.7-1.9-1.1-2-0.3-2.4 2.6-0.8 10-1.4 4.1-4.5 4.2-1.8 4.3-1.3 1.9-1.5 1.6-1.7 1.4-5.8 2.3-12-0.2-5.4 4.4-7.2 12.7-6.7 7.6-1.7 2.9-1.1 8.1 0.2 2.2 7.9 21.2 3.2 13.1 3.4 7.1 0.1 2.3-0.6 4.7 0.5 4.4 2.6 8.7 0 4.1-1.7 5-6.5 13.6-9.7 11.1-11.2 18.1-13.2 17.1-2.7 1.6-7.7 0.5-3.1 0.9-23.7 12.5-3-13.5-3-13.5-3.1-13.5-3-13.6-3-13.6-3-13.6-3-13.6-3-13.6-3-13.6-3-13.7-3-13.7-3-13.6-3-13.8-3-13.7-3-13.7-3.1-13.8-0.2-1.3-2-8.9-1.2-2.4-1.4-1.8-17.9-12.9-22.2-16.1-16.9-12.3-13-8.4-2.9-3.1-0.2-0.2-1.2-4.2-1-13-1.5-17.7-1.4-4-10.8-16.9-10-15.7-2.4-1.5-2.2 0.5-2.2-0.1-2.2-0.7-2-1.1-11.8-8.5-3.8-1.3-5.1-0.5-3.9-1.2-2.8-3-1.6-5.9-0.1-16.8 0-0.6-1.6-4.9-8.2-14.3-6.7-11.8-0.9-3.2-1.1-6.7-3-5.9-0.8-2.2-1.4-7-0.6-5 2.2-12.8 0.4-9.4 1.4-3.5 2.3-2.4 4.3-4.5 2.6-3.4 2.9-3 4.1-2.1 6.8-1.1 2-1.1 1.3-1.6 1-2.1 4-15.2 2-4.5 4.2-3 9.2-4.1 4.4-3.1 10.1-4.7 0.9-0.8 4.3-3.9 2.5-1.5 0.9-0.9 0.4-0.9 0.8-2.2 0.7-1.1 3.8-2.4 0.8-1.4-2.8-4.3 0.3-2 1.3-2 3.4-3.6 0.1-0.2 0.9-1.1 0.3-1.8-2-13-0.2-4.8 1.1-5 2.5-7 1.9-9.5 1.4-4.6 5-5.5 6.4-9.9 1-2.6-3.6-2.8-4.4-1.4-4-2-2.5-4.6-0.7-5.3 0.3-4.8 1.1-4.5 3.8-9.2 0-3.9-1-10.9-0.4-4-1.8-4.3-5.2-8.5-1.2-4.6-0.5-5.5 0.6-10.4 2.3-8.2 0.4-1.6 0.3-7.2 2.3-9.7 1.2-2.1 0.9-2.5-0.2-2.4-0.8-2.4-0.5-2.6 0.5-5.5 5-14.1 0.1-0.7 0.3-1.8 0.1-5.4-0.2-2.6-0.9-2.4-1.6-1-2-0.5-2-1.1-9.3-1.2-4.3-1.8 0-0.1 0.2-4.4 2.5-3.1 3.1-1.9 6.8-2.6 12.9-7.9 2.3-2.6 2.5-4.6 0.9-4.7-2.2-2.7-3.7-1.9 0.7-2.2 3.3-1.6 4.1-0.5 4 0.3 3.6-0.8 7.4-2.9 1.9-1.4 0-1.6-3.6-5.6-0.4-1.4 0.1-1.6-0.3-3.5 2-0.8 7.5-3.1 2.6-0.5 9.1 0 2.3-0.9 4.4-3.7 3.2-1.5 0.8-0.4 2.4-2.3 3.3-4 3.2-6.3 1.5-1 1-0.5 3-3.2 1.1-0.7 3.2-1.3 8.4-3.4 1.3-0.8 2.2-3.7 2-1 14-0.2 4-1.6 2.6-2.8 1.5-1 1.4 0.6 1.1 0.6 1.2-0.2 1.1-0.5 3.1-0.8 2.5-1.1 2.3-1.6 1.5-1.5 2.1 1.3 2-0.4 3.9-2.7 2.2-1.2 1.8-0.4 4.7-0.1 2.3-1 1.3-0.2 1.1 0.7 0.9 0.8 1.1 0.4 9 0.2 0 0.4 0.3 1.3 0 6-3.3 2.7-4 1.7-2.2 3.3 0.3 1 1.7 3.7 0.5 0.8 0.6 0.4 0.7 1.9 0.9 0.4 4.6 0.7 2.2-0.5 2.3-1.9 1.3-1.8 1.2-2.5-0.1-2.1-6.7-2.8-1 0.1-2.2 0.7-1.2 0 0-0.8 2.5-1.8 1.1-0.3 0.6-0.6 0.5-0.7 0.3-0.3 1.6-0.3 10.4 2.4 1.9-0.2 5.6-2.6 0.9 0.3 1.7 2.6 7.5 1.1 3.4 3.2 7.9 2.8 2 1.8-3.4 0.9-1.5 0.6-1.5 1.1-0.6-2.2-2.9-0.4-3.4 0.9-1.9 1.7 0.8 2.2 2.7 1 3.2 0.2 2.1-0.6 0.7 1.2 1 1.5 0.3 1.2-0.6 1.6-0.7-1.9-4.6 4.6 0.8 6.5 4 6.7 4.9 5 3.9 1.9 1.2 0.8 2.4 3.5 1.1 1.6-0.5 1.5-2.5 2.5-1 2.7-1.1 1-1.5 0.3-1.4-1.2 0.8-2.1-1-0.5-1.8 0.3-3.4 1.1-1.1 0.8-1.8 2.6-0.5 1.9 1.5 0.7 3.3 0.1 1.4 0.7 0.7-0.7 0.3-0.3 1.6-2.9 2.3 5.1 2.8 3.8 3.8 2.3 5 0.6 1.5-0.4 2.1 0.1 5.4-2.7 3.3-0.8 2.1-2.2 0.8-3.7 0.7-3 1.5-5.4 1.9-1.7 2.3-0.4 4.9 0.3 4.5-0.8 4.1-1.7 5.2-3.8 3.3-3.4 1-0.5 0.4-1.2 0.3-0.7 6.1-5 0.9-1.1 0.3-1.5-0.4-0.9-0.2-0.8 1-1.4 2.2-1.1 5.4-0.5 4.1-3.2 2.2-0.3 1.8 0.9 1 2.4-0.1 1.1-1.1 1.6-0.3 1.4 0.3 1.5 1 1.9 0.2 1.2 0.4 0.9 1.9 2.8 0.6 1.3 0.3 1.3 0.2 2.8 0.3 1.3 0.4 1.1 0.8 1.2 0.7 0.9 0.6 0.4 0.6 0.8 1.3 2-0.6 2.2-1.5 2-4.2 1.8-5.8 4.9-3.2 5.8-4.5 6.7-7.4 13.9-5.8 14.3-2.7 3.7-8.8 2.3-10.2 5.8-3.7-1-3.7 2.7-3.4 5.3-1.5 5-1.4 5.4-1.3 5.4-0.2 6.8-0.3 7 0.5 4.3 1.4 4.5 0.8 2.3 0.5 0.9 0.5 1.3 0.6 2.8 0.4 1.2 2.3 3.6 1.7 1.9 1.5 0.9 1.2 1.3 2.8 8.6 1.5 1.7 7.3 7 0.3 0.2 2 1.1 3.2 1.3 6.4-2.3 1.1 0.3 1 0.6 1.9 1.8-1.2 1.7-0.6 2.6 0.6 2.7 1.2 1.8 4.3 2.1 9.5 3.8 4.3-0.5 3.1 2.6 1.5 3-4.1 1.6-0.5 3 0.2 2.2 0.1 1 1 2.8 1.6 1.9 4.9 1.6-2.9 2.6-0.8 3.5-0.5 3.2 0.4 5.7-1.3 2.7 0.5 4.7 2.5 4 3.8 4.8 2.2 1.7 2.6 1.2 1.5 0.8-0.2 2.5-2.9 0.1-2.1 1.6-2.1 4.1-3.1 2.7-1.5 2.9-1.5 3.1-2 1.8 0.7 3.7-0.4 3.9-3.6 4.6-4.1 2-3 3.4 0.8 3-0.9 2.7 0 5.1-4.4 3.2-0.9 1-0.7 0.6-0.4 0.7 1.2 2.6 0.4 1.8-3.9 1.8-2.5 1.9-3.4 3.7-1.6 3.4-2.1 1.9-1 2.3-1.8 2.1-1.8 1.1-7 2.3-1 0.6-0.4 0.9-0.2 1.4-0.5 1.6-0.8 1.3-0.2 2.5-0.7 1.5-0.2 2.3-1.6 1.5-2.4 1.2-9.9 1.5-3.6 2-5.6 9.4-5.2 1.3-1 0-1-0.5-1.2-0.1-1.3 0.5-0.6 0.6-0.4 0.8-2.3 3.1-1 0.8-1.4 0.4-5 2.2-2.1 1.7-4.3 1.7-2.6 2.8-1.3 4-3.8 7.7-2.2 3.6-1.5 0.5-0.9 1-0.6 0.3 1 2.2 0.4 2.6 0 5.3 0.4 2.4 1.5 4.9 0.4 2.4 1 4.2 2.4 4.7 9.7 14.1 1 1 1.5 0.8 15.2 15.2 4 2.4 8.3 3.6 1.5 0.4 3.1 0.7 7.3-1.1 8-2.3 6.8-3.7 2-0.5 2.5 4.5-0.4 8.7-3.1 2.7-1.7 0.7-1.3 1.8-0.5 2.1 0.6 2 2.5 4.3 1.4 1.6 2.3 0.7 4.5-1 8-4.9 3.8-1.1 1.8-0.8 1.7-2 0.8-2.4-0.7-2.2-1.8-2.1-0.3-1.1 3.2-2.5 1.2 0.8 1.4 0.3 1.1-0.6 0.7-1.4 0.7 0 1.7 1.1 4.5 2.1 1.8 1.2 1.4 1.8 3.7 5.7 0.4 1.2 0.5 6.4-2.8 4.5 2.2 7.8-0.9 3.7 3-1 2.1 2.3 2.1 2.8 2.5 1.4 2.5 0.6 5.5 2.8 2.6 0.9-0.7 0.6-0.3 0.2-0.5 0.1-10.4-3.4-5.1-0.6-1.2 4 1 1.5 1.7 1.4 1.7 1.8 0.7 2.7 1 1.3 2.3 0 4.7-0.9 4.5 1 8.9 3.4 4.7 0 1.8-1.3-0.6-1.7-1.8-1.5-1.9-0.7-1.2-0.8-1.5-1.8-1.7-1.8 9.6 6.9 5.9 2.8 0.7 0.2 0.1 0z m-54.5-84l2.1 1.3 2.1 1 1.9 1.1 1.2 1.8-7 6.5-1.8 0.9-0.6 0.5-0.5 1.1-1.1 4.1-0.6 0 0.3-3.3 0.3-1.1-1.6 0.6-1.4 4-1.9 2.9-1.7 2-0.7 2.3-1.7-1.8-0.1-2.3 0.7-2-1.9-3-1.8-0.8-1.7-1.5-1.8-0.6-2 2-0.9 1.9-2 0.4-2.4-1.9-0.7-2-0.6-3.5 0-3.3 2.1-3.6-1.3-5.3 0-3.9 4-1.5 8.6 1.9 4.6 0.3 3.4-2.2 3.2 3.9 3.3 3.1z m-2.9-104.6l1.1-0.8 1.4-1.1 12.1 0.1 1 1.5-1.6 1.6-4.3 3.3-2-0.4-2.1-1.1-3.5-1.7-2.1-1.4z m32-15l1 0.4 0.6 0.9 2.6 2.7-0.9 1.7-10.3 4.4-5.4 3.3-1.9 0.8-0.9-2.2 1.5-1.8 1.7-1.6 1.9-2.8 0.3-1.8-0.1-0.9 0.1-1.1 0.8-0.5 0.3 1.2 1.6 1.1 2.5-0.5 0.2-2.9-0.7-1.5 0.8-1.7 1.3-1.2 0.8-1.4 1-1.4 1.7 1 3.1 0.5 0.5 1.2-2.8 0.9-0.4 0.8-0.6 0.8-0.3 1.6z" id="TN" name="Tunisia">
  </path>
 </g>
 <g id="points">
  <circle class="30.584720117732555|7.684047324896104" cx="305.1" cy="910.8" id="0">
  </circle>
  <circle class="33.43123833117988|9.726196576177147" cx="521.7" cy="554.8" id="1">
  </circle>
  <circle class="36.98938609798903|11.35991597720198" cx="694.9" cy="92.8" id="2">
  </circle>
 </g>
 <g id="label_points">
  <circle class="Tunisia" cx="445.5" cy="522.2" id="TN">
  </circle>
 </g>
</svg>