<?xml version='1.0' encoding='utf-8'?>
<svg xmlns="http://www.w3.org/2000/svg" baseprofile="tiny" fill="#FF5C56" height="596" stroke="#ffffff" stroke-linecap="round" stroke-linejoin="round" stroke-width=".5" version="1.2" viewbox="0 0 1000 596" width="1000">
 <g id="features">
  <path d="M760.4 27.1l0.5 1.3 2.2 5.1 3.2 7.7 3.3 7.7 3.2 7.8 3.2 7.7 3.3 7.7 3.2 7.7 3.3 7.7 3.2 7.7 3.3 7.7 3.2 7.7 3.2 7.7 3.3 7.7 3.2 7.7 3.3 7.6 3.2 7.7 3.2 7.7 2.5 5.7-0.2 0-0.4 0.1-0.1 0 1.1 0.7 2.9 0.2 1.3 0.4 0.8 1.1 2.9 6.7 4.7 10.7 4.8 10.7 4.7 10.8 4.8 10.7-0.1 0-1.6 0.8-3.5 1-2.8-0.7-0.9 0.8-0.9 0.1-0.8 0.1-0.8 0.4-1.5 1.5-0.8 0.7-1.9 0.6-2.6 1.5-3.2 0.6-1.5 0.7-2.8 1.7-1.1 0.5-10.6 2.8-4.9 2.3-8.5 6-7.7 6.3-2 2.2-1 1.6-1.4 2.7-2.5 2.9-0.5 0.9-0.3 1 0 0.8 0.2 1 0.2 0.7 0.1 0.2-0.6 1.5-1.7 1.9-0.7 3.3-1.9 2.1-0.3 1.5 0.6 1.5 1.1 1.7 0.6 1.9-0.8 3.2 1.2 1.2 2.5 1.3 0.1 1.1-0.6 5.6 0.3 3.5 0.7 3.3 0.6 0.5 0.3 0.4 0.2 0.5-0.1 0.4-0.4 0.8-0.1 0.3-0.1 0.7-0.2 0.6-0.4 0.4-0.6 0.2-1.6 0.2-11.5 3.3-0.7 0.5-0.5 0.6-0.4 0.3-0.7 0.2-1.2 0.1-0.7 0.2-6 2.4-2.9 1.8 0 1.8 0 0.3-0.2 0.1-0.2 0-0.1 0.1 0.1 0.9-0.3 0.1-0.4-0.3-0.5-0.2-0.5-0.3-0.6-0.5-0.7-0.2-1 0.8-0.5 0.2-3.9 0.8-5.9 3.4-1 0.9-0.4 1.1 0.4 1.6 0.7 0.8 0 0.5-1.6 0.6-8 0.8-1.5 0.5-1.3 0.7-1.1 0.7-1.8 2.2-1.6 0.1-0.5 0.2-0.3 0.5-0.8 0.1-3.8 1.7-1.1 0.6-1.9-0.6-2.1 0.8-2 1.3-1.5 0.7-15.1 4.1-16.5 3.1-14.4 4.1-8.2 0.7-7.1 3-2.1 1.2-5.6 4.9-1.2 0.6-3.1 0.6-4.4 2.4-4.9 3.4-1.1 0.1-1.4-0.6-1.9 0.5-3.2 1.4-1.4 0.4-0.6 0.2-0.8 0-0.5-1.6-0.4-0.9-0.7 0.1-1.1 0.4-4.9 0.4-10.8 3.6-16.7 4.3-9 5-3.2 1.3-3.4 0.6-1.6 0.8-3 2.1-6.3 2.9-2.9 2.1-0.7 2.5-0.7-0.1-1.2-0.6-1.5-0.5-1.8 0.2-1.5 0.8-1.2 1.1-3.7 5.4-1.4 2.8-0.7 3.2 0.5 0.4 0.1 0.9-0.2 0.9-0.2 0.5-0.9 0.7-3.1 1.2-0.7 0.5-0.4 1.9-1.1 0.7-1.4 0.2-1.2 0.7-0.4 0.5-0.1 0.7 0 1.8-0.3 0.4-0.5 0.4-0.6 0.5-0.7 2.2-1.3 0.8-2.9 1.3-4.5 5.6-1.4 0.9-0.5 0.1-0.9 0.7-0.4 0.2-0.5 0.1-0.6-0.1-8.9-0.2-1.2 0.5-3.4 2.9-0.7 0.3-0.7 0.1-0.6 0.1-0.6 0.6-1.4-1.7-2.7-0.5-5.8 0.1 0.2 0.3 0.3 0.7-3.1 0.1-8.8 2.5 0.4-1.9-1.2-1.2-1.7-0.8-1.1-0.9-0.5 0.6-2.1-1-6.8-1.6-1.1 0.6-4.1 1.2-1.3 0.2-1 0.8-3.9 4.6-3.4 1.8-11.7 4-1.6 1.1-6.2 6.6-9.7 8.7-2.9 1.8-17.5 5.4-19.3 4.1-6.7 4.4-9.3 3.6-1.3 0.2-1.5-0.2-2.7-0.8-1.8 0-1.6 0.4-3.3 1.4-1.5 0.3-15.7 0-3.3-0.6-1.7-0.9-1-0.3-0.4 0.4-0.4 0.2-2 0.6-6.5 1.1-12.9 0.6-1.4 0.3-2.4 1-1.2 0.2-3.1-0.1-1.4 0.1-0.9 0.6-10.5 2.4-2.5 1.3-7.3 7.5-2.1 1.5-1.1 1.1-0.9 2.9-3.6 4.6-2.4 2.2-2.8 1.3-13.1 3.2-3 1.6-2.7 2.4-1 1.3-0.4 0.6-0.4 0.8-0.1 0.1-0.5 1.4-0.2 1.4-0.1 0.2-1.8 4.6-0.1 0.8 0.4 3.2-0.3 1.1-1.5 0.4-1.6-0.2-1.7-0.8-1.2-1 0.1-1.2 1.3-0.4 1.5 0.1 1.3-0.2 0.6-1.3-0.3 0-1.2-1.6-0.1-0.3-0.1-0.3 0.1-0.3 0-0.3-0.5-0.1-0.4 0.1-0.1 0.4 0.1 0.3-0.1 0.2-0.5 0.9-0.3 0.2-0.4-0.1-0.7-0.4-0.4 0-1.7 0-0.8 0.3-0.4 0.5-0.5 1.1-1.2 1.1-1.4 0.2-1.1-1.1-1 0.6-0.3 0.6 0.4 2 0.5-0.5 0.5-0.2 2.3 0.3 0.4 0.3-0.2 0.9-0.4 0.9-1.1 0.8-1.3 0.6-1-0.2-2.2-0.9-0.7-0.4-0.4-0.6 0-0.4-0.2-0.3-1-0.3-1.8-0.2-1.6 0.5-2.8 1.8 0-0.3-0.3-0.5-0.2-0.3 0.4-0.8-0.5-1-0.9-1.1-1.1-0.7-3.1-1.2-3.1-0.1-2.9 0.6-2.3 1.1-4 3.4-4.3 4.7-0.2 0.4-0.5 1-0.6 0.4-0.3-1.1-0.4-0.1-1.8 0.7-2.2 0.6-4.9 2.3-1.7 0.2-1.5-0.2-1.4 0.1-2.8 1.5-1.7 0.1-1.5-0.6-0.9-1.1 1.1 0.1 1.8 0.4 1.1 0.1 0.6-0.6 0-1-0.5-0.6-0.9 0.6-2-0.3-2.4 1-4.5 2.5-2.2 0.5-1.2 0.1-2-0.7-2.2 1-1.2 0.1-1.5-0.9-1.3-2.8-1.1-0.5-1.6-0.2-1.2-0.6-2.1-1.4-1.3-0.6-1.4-0.5-1.6-0.4-1.7-0.1-1-0.3-2.9-1.8-1.5-0.5-2.7 0-0.7-0.3-1.2-0.9-0.7-0.3-0.7-0.2-1 0.4-4.3 4.4-0.4 0.3-1 0.6-1.6 0.2-1.7-0.2-0.5-0.8 1.5-6.2 0-3-0.7-2.7-1.5-2.5-2.3-2.1-0.3-0.8-0.2-1-0.6-0.6-0.5-0.5-0.2-0.6-0.1-1.6-0.3-1.4-0.5-1.4-0.7-1.2-2.7-3.1-0.4-0.9-0.1-0.6-1-1.9-0.7-1.9-0.3-0.7-4.6-5.7-1.7-5.5 1-2.4 0.7-2.7 0.5-13.8 1.5-2.4 0.3-0.7 0.1-0.6 0.3-0.5 0.9-0.4-1-2.5 0.2-5.4-0.3-2.8-2.5-4.8-0.4-0.8-0.7-6.4-0.5-0.7-5-5.4-1.7-4.1-1.6-3.6-1.7-2.4-0.8-5.9-0.7-2.8-0.7-2.3-1.4-4-2.2-7.3-0.6-1.5-0.4-2.5-0.9-2.2-0.3-2.5-0.2-0.7-0.4-0.5-1.4-1-0.3-0.4 0.1-1 0.4-0.3 0.6 0.1 0.7 0.6 0.8 1.6 0.9 3.6 1.2 1 0-2.3-0.1-1.1-0.5-0.9 1.2-3.2-0.9-2.6-1.5-2.4-0.8-2.5 0.2-0.6 0.7-0.8 0.2-0.5-0.1-0.5-0.2-0.2-0.2-0.1-0.3-1-0.6-0.4-0.5-0.2-0.2-0.3-0.2-0.4-0.4-0.4-0.3-0.5-0.6-2.7-0.1-0.8-0.8-2.8-3.6-4.6-0.8-2.8-0.2-1.7 0.1-0.8 0.6 0.1 0.4 0.6-0.1 0.5-0.3 0.7 0 0.8 0.6 1.5 0.9 1.6 1.2 1.4 1.5 0.9 0.1-1.1 0.4-2.6 0-1.6-0.8-2.8-0.4-2.6-0.4-1-0.6-0.8-1.9-1.9-0.9-1-0.5-1.3-0.2-1.9 0.4-4.2-0.4-1.4-1-1.3-2.7-1.2-2.4-2.1-1.5-1-1.7-0.8-1.6-0.6-1.7-0.4-1.5 0-1.1 0.7-0.4 1.6-0.9 0.2-1.7-0.6-1.5-1.3-0.1-1.8-0.5-1.1 0.9-0.1 2.5 0.6 1.3-0.2 0.8-0.5 0.5-0.8 0.2-1.1 0-0.8-0.8-1.2-0.2-1 2-3.7 0.6-0.8 0.4 1-0.2 1.3-0.6 1.2-0.6 0.8 1.4 0.6 1.2 0.8 3.1 2.6 0.3 0.6 0.2 1-0.2 1.4 0.3 0.6 0.9 0.4 0.1-0.6-0.1-0.4-0.2-0.3-0.3-0.3 1.2-1.2 0.4-1.8-0.2-6-0.7-2.8-1.2-2.2-0.3-1.1 0-0.8 0.2-0.9 0.1-1-0.1-0.9-0.1-0.9-0.3-0.9-1.1-2-3.1-4.2 0.2-0.7 0.9-1.1-0.7-0.8-0.7-0.9-0.5-1.1-0.2-1.3 0.8-2.8-0.2-1.2-1.7-0.5 0.6-1.2 0.7-0.7 0.9-0.6 1-0.8 0.6-0.8 0.3-0.6 0.1-0.9 0-1.2 0.4-2.2 1-1.6 1.4-1 1.4-0.9 1.3-1.2 0.8-1.3 0.4-1.8 0.6-10.8-0.2-3.6-2.1-11.1-0.3-5.9-0.1-0.5-0.4-1.7 0 0.1 0.1-0.2 0-0.4-0.1-0.5-0.3-0.4-0.6-0.8-0.1-0.2 3.7-1.3 2.6-1.1 2-1.4 0.6-1.2-0.1-1.3-0.2-1.2 0.3-1 0.8-0.4 3-0.5 1.1-0.4 3.3-2 1.6-1.3 1-1.3 1.9-5.2 0.3-1.5 0.1-1.6 0.4-1.1 1-0.4 1.9 0.3 3 0.9 1.3-0.2 0.5-1.5 0-0.1-0.5-1.8-0.7-1.3-0.1-1 1-1.7 0.7-0.5 0.7-0.3 0.6-0.4 0.3-0.8-0.1-1.1-0.5-0.8-0.8-0.6-2.8-0.8-0.9-0.7-0.9-2.9-1.6-3.1-0.3-1.4 0.5-1.9 1.3-3.1 0.3-1.5 0-1.7-0.4-1.8-0.6-1.3-0.3-1.3 0.4-1.6 1.6-3.2 0.4-1.6 0-1.8 0.4-1.6 1.6-1.2 2-0.9 1.7-0.4 1.7-0.8 0.3-1.6-0.8-1.7-1.5-1.2-4.3-1.4 0.2-0.4 3.7-4.5 6.6-5.7 6.6-4.2 1.7-0.6 1.6-0.3 1.4 0.4 2.6 0.1 1.2 0.3 5.6 2.4 3.2 1.9 5.3 6 3.2 2.5 1.5 0.5 1.4 0 2.8-0.3 3 0.3 1.3-0.1 1.8-0.5 0.4 0.2 0 0.9-0.2 1.5 0.3 0.7 0.3 0.4 0.4 0.2 0.9 0.2 1.8-0.3 1.2-1.1 1-1.6 1.1-1.4 1.7-0.8 1.3 0.1 2.9 1.5 1.9 0.3 1.5-0.7 1.1-1.4 1.2-2 1.1-0.8 1.5 0.2 3.2 1 1.5-0.1 5.8-1.4 7.3-0.8 4.6 0.2 5.2 1.1 2.2-0.1 4.7-1.9 1.7-0.3 15.3 0.1 9.4 0 1.9 0.1 12.7 0.1 4.3 0.8 12.3 7.2 3.5 1.2 16 1.7 18.9 1.9 14.3 1.5 18.4 1.9 12.5-1.8 16.9-2.3 2.8 1.6 4.9 6.9 5.6 7.8 6.4 9 1 0.6 1 0 10 0.5 2.5-0.4 2.2-0.9 9.3-5.5 8.7-5 0-0.1 2.3-3 5-14.1 3.6-9.9 1.3-2.4 7.4-9.3 11.3-14.2 12-15.1 6.8-8.6 5.9-7.4 1.7-1.2 9.7-5 13.1-6.7 14.5-7.5 13-6.6 10.9-5.7 3.4-1.7 7-2.6 9.8-1.4 12.1-1.7 12.2-1.7 12.1-1.8 12.1-1.7 12.2-1.7 12.1-1.7 12.2-1.8 12.1-1.7 12.1-1.7 12.2-1.7 12.1-1.8 12.2-1.7 12.1-1.7 12.1-1.7 12.2-1.8 12.1-1.7 12-1.7z m96.2 541.2l1.5-0.6 1.4 0.1 0.9 0.5 0.8 0.2 0.1 0.6-2.5-0.2-1.1-0.1-1.1-0.5z m-14.8-4.1l1.2 0 1.1 0.7 0.3 1.3 0 1.1-1.2 0.3-1.1 0.2-2.3-0.9-1.5-1.3-1.6-0.5 0.2-0.7 1.2-0.4 1 0.1 0.8-0.3 0.8-0.1 1.1 0.5z m-57.9-2.1l2.3 1 4.2-0.9 1.1 0.2 0.4 0.8-1 0.4-0.8 0.8 0.6 0.5 0.8 1.3-2.2-0.4-0.9 0.2-1.3 0.4-3.5-0.7-3.4-0.1-0.4-0.7-0.8-1.2-0.5 0-0.4 0-1.6 0.5-0.9 0.1-0.3-0.3-0.8-1.2-0.2-0.4-0.4 0.1-1.5-0.6-1 0.2-0.9 0.2-0.5-0.4-0.3-0.2-2.5-1.2-0.3-1 1.1-0.4 1.1-0.1 1.9 0 2.2 0.5 2.4 1.6 1.6 0.6 1.2-0.1 2.3 0.4 3.2 0.1z m-671.5-36.7l1 0.5 0.1 0.3 0.4 0.9-0.1 1.1-0.9 0.5-0.5-0.2-0.9-1-0.4-0.4-0.9 0.2-0.5-0.3-0.2-1 0.5-0.3 0.7-0.2 1.7-0.1z m836.9 10.2l2-0.3 1.4-0.9 0.8 0.1 1 0.5-0.9 1-2.3 0.6-1.6 0.6-1.4 0.2-0.9 0.7-0.1 2-3.2 1.4-2.6 0.6-3 1.2-3.4-0.3-2.9 1.1-0.6 0.6-1.4 2-0.7 0.5-2 0.9-2.2 1.7-1.1 0.7-2.2-0.2-3.5 0.2-1.3-0.2-1.3 0.4-1.7 1.4-1.7-0.5-1.2-0.4-2.3 0.6-3.3 0.5-9.1 1.8-3.4 0.3-4.4-0.4-4.1-1.3-3.5-0.9-1.6-1.6-1.2-1.5-1.2-1.5-1.1-1.8-2-0.7-3.1-2-7.9-5-1.8-1.7-0.2-0.4 0.6-0.6 2.1 0.6 1.5-0.2 1.6-0.9 0.4-0.3 0.1-0.7 0.7-1.4 0.3-0.8-0.6-4.5 1.1-0.5 1.3-0.2 3.2-0.5 0.8-1.2 0.8-1.1 0.7-0.8 1.4-0.2 4.2 0.8 2.4 0.3 1.8-0.2 1.9-0.2 3 2.7 5.2 3.9 3.4 0.9 2.9 0.8 1.6-1.9 0.7-1.9 2.1-0.5 1.4 0.2 1.4 0.7 2.5-0.4 2.6 0.1 2.8-1.6 1-0.4 1.8-1.1 0.8-1 2-0.2 1 1 1.1 0.8 1.6 1 1.2-0.2 0.9-0.6 0.4 0.2 0.8 0.9 0.6 0.7 1.4 0 1.7 0.4 0.7 1.2 1.2 0.4 2.6 1.2 3.1 0.7 3.1 1.7 1.6 0.5 3.7 2.4z m-890.7-93.4l3.2-2.3 1.6-0.6 0.9 0.8-0.2 1.5-2.3 2.4-0.6 1.7-0.7 0.8-4.2 1.9-0.2-1 0-0.2 0.6-1.6 1.9-3.4z m3.1-25.1l0.6-0.6 2.1 2.7 0.5 1.1-0.1 0.9-1 2.9-0.1 2.4 0.2 1.4-0.6 0.5-2.1-0.1 1.1-2.2-1.6-0.6-1.9-1-0.7-0.6-0.9-0.8-0.1-0.4-0.6-1.6 0.7-1.2 1.5-1.4 1.8-1.1 1.2-0.3z m-9.4-108.3l-1.9 1.3-0.3 0.5 0.3 0.2 0.1 0.3-0.3 0.5-0.7 0.5-1.1 0.6-0.2 0.4 0.8 0.2 1-0.3 1-0.6 0.7 0.1 0 1-0.9 3-0.2 1.1 0.1 0.6-0.1 0.6-0.4 0.4 0.1 0.1 0.4-0.1-0.1 0.5-1.5 2.3-0.9 0.8-1-0.1-0.9-0.6-0.8-1.4 0-1.7 0.7-2 0.3-4 0.9-1.4 0.9-1 0.8-0.6 0.3-0.6 0.3-0.6 1.7-0.9 0.5 0.3 0.4 0.6z" id="YE" name="Yemen">
  </path>
 </g>
 <g id="points">
  <circle class="12.45565338933828|43.14547366601437" cx="90.9" cy="542.4" id="0">
  </circle>
  <circle class="15.20933086379349|49.142747425121826" cx="545.5" cy="327.4" id="1">
  </circle>
  <circle class="18.651427706862496|53.94056643240779" cx="909.1" cy="54.7" id="2">
  </circle>
 </g>
 <g id="label_points">
  <circle class="Yemen" cx="297.7" cy="318.1" id="YE">
  </circle>
 </g>
</svg>
