<?xml version="1.0"?>
    
<!--********* Copyright (c) 2024 Pareto Softare, LLC DBA Simplemaps.com ***************************************
************* Free for Commercial Use, full terms at  https://simplemaps.com/resources/svg-license ************
************* Attribution is appreciated! https://simplemaps.com *******************************************-->

<svg baseprofile="tiny" fill="#6f9c76" height="1000" stroke="#ffffff" stroke-linecap="round" stroke-linejoin="round" stroke-width=".5" version="1.2" viewbox="0 0 1000 1000" width="1000" xmlns="http://www.w3.org/2000/svg">
 <g id="features">
  <path d="M443.8 165.5l49.9 43.7 11.7-18.6 17.4-13.8 7.4 19.4 7.4 30.4 14.9 1.3-11.7 14.7-0.7 24-23.3 5.9 6.8 74.8-2.6 113.4-17.2 141.6-10.4 28-33.6 55.2-0.2 0.3-7.7-38.9-13.1-42.5-18.3-41.5-23.1-35.7-50.4-57.3-8.5-35.6 22.6-43.1 6.3-18.8 6.3-18.7-6.6-48.4-17.6-47.6-19.6-34.7-4.7-15.5 0.7-21 13.5-60.9 8.4-15 15-7.3 0.2 0 1.1 0 24.6 0.7 14.4 3 18.6 8.5 15 6.9 0.1-0.1 47.6-18.9 7.6 5 4.8 16.8 8.5 11.6 2.5 5.3 2.5 5.3-6.5 13.7-10.9 3.1-32.9-4.7-16.2 6z m-177.8 25.1l12.4 4.2 12.4 6.9 0 22.1 2.5 18 2.5 19.3-21.1-5.5-22.3 1.4-6.2-20.8 2.5-26.2 17.3-19.4z m235.7-134.1l35.9-11 26.1 13.8 1.2 19.4 0 19.3 17.4 24.9 14.9 6.9-6.2 18-6.2 6.9-18.6-11.1-5-17.9-6.2-18-16.1-4.2-14.9-2.7-9.9 4.1-14.9-27.6 2.5-20.8z m199.5 716.3l9.5 1.7 9.5-7.3 11.7-6.5 0 8.1-2.9 11.3-8.8 13-8.8 11.4 5.9 5.7 8.7 9.7-4.4 6.5-13.8-3.2-6.6 4.8-9.5 9-4.4 4.8 5.1 17.1 8.8 12.1 2.2 8.1-8.1 3.3-4.4 8.1-1.4 10.5 6.6 4.9 5.1 7.3-7.3 7.3-6.6 11.3-5.9 11.4 3 8.1-3.7 3.2-13.2-6.4-8.7-13.8 4.4-12.2 8.7-20.3-0.7-12.1 0-17.9-10.2-11.3 0.7-11.4 1.5-15.4 4.3-17 11.7-18.7 15.4-18.7 6.6-6.5z m1.4-39.7l8.8-4.1 8.1 0.8 1.4 8.1-12.4 4.9-5.9-9.7z m33.7 94.1l17.5 0.8-3.6 12.2-9.5 6.5-5.2-7.3-2.2-6.5 3-5.7z m-13.2 34.9l7.3 0.8 13.9 2.4 5.9 6.5-1.5 9.8-4.4 6.5-4.4-1.7-5.8-1.6-8.1 1.6-5.8 3.3-5.1-10.6 2.2-6.5-3.7-5.6 2.2-5.7 7.3 0.8z" id="BH" name="Bahrain">
  </path>
 </g>
 <g id="points">
  <circle class="25.615268330093198|50.40249681914344" cx="271.6" cy="909.2" id="0">
  </circle>
  <circle class="25.898287478863875|50.62216961876275" cx="525.4" cy="546.1" id="1">
  </circle>
  <circle class="26.25206141482722|50.797907858458196" cx="728.4" cy="91" id="2">
  </circle>
 </g>
 <g id="label_points">
  <circle class="Bahrain" cx="447.6" cy="343.5" id="BH">
  </circle>
 </g>
</svg>