<?xml version="1.0"?>
    
<!--********* Copyright (c) 2024 Pareto Softare, LLC DBA Simplemaps.com ***************************************
************* Free for Commercial Use, full terms at  https://simplemaps.com/resources/svg-license ************
************* Attribution is appreciated! https://simplemaps.com *******************************************-->

<svg baseprofile="tiny" fill="#6f9c76" height="1000" stroke="#ffffff" stroke-linecap="round" stroke-linejoin="round" stroke-width=".5" version="1.2" viewbox="0 0 1000 1000" width="1000" xmlns="http://www.w3.org/2000/svg">
 <g id="features">
  <path d="M215.6 668.8l-7.7-5.2-7.6-5.2-7.6-5.2-7.7-5.3-5.3-3.4-1.1-0.7-6.3-4.1-7.4-4.8-7.3-4.9-7.4-4.8-8.7-5.7-8.7-5.7-8.7-5.7-8.7-5.7-8.7-5.7-8.8-5.7-8.7-5.8-8.7-5.7-8.7-5.7-8.7-5.8-8.7-5.7-8.7-5.8 0-4.7 0-4.6 0-4.7 0-4.6 0-3 0-3 0-3 0-3 0-3 0-2.9 0-3 0-3 0-3 0-3 0-3 0-3 0-3 0-3 0-3 0-3 0-2.3 0.2-1.3 0.5-1 0.8-0.7 5.6-3.1 2-1.5 2-1.2 0.5-0.5 1.6-2.7 0.6-0.6 1.6-0.7 0.7-0.4 2.9-2.8 3-2 5-2.2 1.4-1.1 4-3.8 4.7-3.2 2.7-2.5 2.1-1.1 0.7-0.6 2.7-2.7 1.5-0.7 2 0.1 2 0.3 1 0.1 0.9-0.1 0.9-0.4 5 0.3 4-4.2 5-2.1 3.3-0.4 5 0.4 7.6 3.1 3.7-3.5 6.2-0.7 6.4-1.8 6.2-0.7 6.5 0 5.5 0 5.2-1 5.5-0.7 1.6 4.6 3.7 1.4 4.3-1.4 4.6-6.1 4-6.3 3.1-6 4.3-4.7 4.6-3.2 4.9-4.2 3.7-2.9 4.6-2.5 6.5-2.8 6.1-5 4.9-6.4 4.3-2.5 5.3-1.4 6.7-0.4 7.4-1.8 8.3-4.3-0.3-3.2-0.3-3.2 2.1-2.2 2.5-3.9-2.4-3.9 0-1-0.2-0.9-0.4-0.9-0.6-0.5-1.6-0.8-0.7-0.7-1.2-2-0.7-0.6-0.7-0.2-0.7 0.3-1.3 1.2-0.8 0.4-0.7-0.1-0.5-0.4-0.2-0.9 0.3-1 1-1.6 0-1.2-0.2-3.9 0.1-0.9 0.6-0.7 2.4-1.8 3.3-0.2 0.6-13.3 3-1.6 1.9 0.4 1.6-0.1 12.9-2.3 9.5-2.9 7.7-1.1-1.9-5.1-3-8.1 2.5-1.4 8.2-0.7 7.9-2.2 6 0.2 2.8 0.2 3.2 0.1 3.4 0.2 3.7 0.2 3.8 0.1 3.9 0.2 3.8 0.2 3.8 0.2 3.6 0.2 3.4 0.1 3 0.2 2.7 0.1 2.2 0.1 1.7 0.1 1 0 0.4 0 3.3 0.2 1.8-0.4 0.8-1.9-0.2-1.1-0.7-0.6-0.9-0.3-0.9 0-1.6 0.7-0.7 0-0.2-0.9 0.2-0.3 0.7-0.6 0.3-0.2 0.2-0.6 0.1-0.4 0-0.5 0.1-0.6 0.7-4.7 0.6-1.9 0.4-0.9 0.7-1 0.7-0.4 1.9-0.2 1.6-0.7 1.4-1.1 2.6-2.9-0.7-1.2-12.3-9.5-2.8-1-1.4-1.2-6-10.1 1.9-1.3 0.3-0.4 0.3-0.4 0.2-0.5 0.1-0.5 0.1-1.2 0-1.2-0.3-1.1-0.7-0.7-1.3-1-1.1-1-0.9-1.3-0.6-1.7-0.8-1.5-2.3-2.1-0.4-1.8 0-5.2 0.5-1.3 0.6-1.3 0.8-3 0.7-0.9 0.5-1.5-0.2-1.7-1.9-4.8-0.5-0.6-0.8-0.6-1.5-0.5-0.7-0.5-0.3-0.8 0.2-0.8 0.5-0.6 0.5-0.4 0.4-0.6 0.4-0.8 0-0.6-0.5-1.5-0.4-2.6 0.2-2.5 2-8.5 0.1-1.1-0.1-0.7-0.1-0.7-3.1-9.8-1.1-2.4-1.7-2 4.7-5.7-0.5-0.3-1.6-0.5-5.3-5.5 0.3-0.9 2.3-3.6 1.1-2.4 0.6-0.4 0.1-0.4-0.8-0.8-4.6-3-1.5-1.4-2.3-1.5-0.6-0.7-0.2-0.7-0.1-0.8-0.2-0.6-0.5-0.4-2-0.2-1.5-1-1.3-1.3-1.7-1.2-1.3-0.5-0.8-1-0.4-1.5-0.1-2.1 1-0.4 0.2 0.1 0.1 0 0.2 0.1 0.1 0.2 1.3-0.6 1.5 0.3 1.6 0.7 1.5 0.4 2.8-0.4 1.1 0.3 0.3 0.1 0.3-0.1 0.8-0.7 4.1-1.2 1.1-0.8 0.4-0.1 1.3 0.1 0.6-0.2 0.7-0.5 1.4-1.7 2.9-0.9 0.4-0.3 0.4-1 5.3-4.5 0.8-0.3 4.2-0.4 1.1-0.4 0.3-0.1 0.2-0.2 1.2-1.5 0.8-0.2 0.8-0.6 0.7-0.7 0.5-0.7 0.4-1.1 0.5-2.5 0.5-1 0.5-0.9 1.5-4 0.3-0.6 0.6-0.2 1-0.1 0.2-0.2 1.2-1.6 0.4-0.4 1.1-0.8 1.3-1.2 0.5-0.9 0.4-0.3 1.6-0.4 0.8-0.5 0.7-0.7 0.7-0.4 1-0.3 0.6 0 0.2 0.5 0.2 0.2 0.6-0.2 1.6-1 1.1-1.9 1-0.3 0.4 0.3 0.3 0.3 0.4 0.4 0.6 0.2 0.4 0 0.9 0.3 0.5 0.1 0.5 0.1 0.2 0.4 0.2 0.5 0.4 0.4 0.5 0.1 1.6-0.1 0.8-0.2 0.9-0.4 0.8-0.7 0.5-1.5 0.5-0.1 0.6 0.2 0.5 0.1 0.5-0.3 0.3-0.4 2-4.3 0.1-0.6-0.1-0.1-0.1-0.4-0.1-0.3 0.1-0.3 0.3 0 0.2 0.1 0.2 0.2 0.2 0.1 0.4 0 1 0 0.4 0 1.9-0.9 1.2-0.4 0.5 0.4 0.2 0.6 0.5 0.3 0.5 0.1 0.3 0.2 0.2 0.6-0.3 0.7 0.1 0.6 0.7 0.8 1.2 0.6 3.1 0.6 1.9 0.9 1 0.1 0.4-0.1 1.3-0.3 2-1 1.8-1.3 1.4-1.4 1.6-3.2 0.4-1.4 1.5-3.4 0.4-1.2 0-0.7 0.2-0.3 0.4-0.3 0.4-0.2 0.4-0.3 2.1-2.2 0.8-0.6 2.8-1 0.5-0.3 0.2-0.4 0.9-0.6 0.4-0.3 0.1-0.5 0.3-1.3 0.2-0.4 0.7-0.5 1.1-0.2 2-0.1 1-0.2 0.7-0.5 0.7-0.6 3.2-2.2 1.7-0.5 0.7-0.7 0.7-0.7 0.7-0.6 0.9-0.2 3.4-0.2 0.5-0.1 0.7-0.3 1.5-1.1 2.7-0.7 0.7-0.5 0.5-0.5 1-0.7 0.5-0.5 0.2-0.5 0.1-0.4 0.2-0.5 0.4-0.5 0.8-0.3 1.9-0.5 1.7-1.1 3.1 0 1-0.4 1.8-0.9 1-0.2 1.9 0 0.9-0.1 1-0.3 2.6-1.3 0.9-0.1 0.8 0.1 1.9 0.7 1 0.3 1.1-0.1 1.8-0.5 8-0.5 0.7 0 0.5-0.1 1-0.6 0.5-0.1 0.4 0.1 0.9 0.3 0.5 0 2.4-0.7 2.5-0.2 2.1 0.5 0.5 0 3.8-0.5 11-3.3 0.9-0.3 1-0.1 0.9 0.3 0.8 0.5 0.3 0.5 0.1 0.5 0.2 0.4 0.5 0.1 0.5 0.1 0.9 0.2 0.4 0.1 6.3-0.4 1.4-0.5 4.2-3.3 2.9-1.5 1.1-1 1.1-1.6 0.3-0.7 1.1-1.2 2.6-1.8 1.9-0.4 0.3 0 1.3 0.2 1.5 0.9 1.1 1.3 1.3 1.1 1.7 0.5 1.4 0 0.3 0 1.4-0.8 0.4-0.8 0.2-0.8 0.1-1.4 0.5-0.1 2.8 1.4 1.7 0.4 5.3 0.3 0.8-0.1 1.7-0.5 0.9-0.1 0.5-0.2 0.3-0.3 0.3-0.4 0.3-0.2 0.4-0.1 1 0.1 0.4 0 1.7-0.9 2.6-2.7 1.4-1 3.8-1.2 2-0.2 1.7 0.3 1.6 1 0.7 0.1 0.5 0 0.9-0.3 1.6 0 0.3 0 2.1 0.3 0.8 0.4 1.8-1 0.6-0.1 0.5 0.1 1.2 0.5 0.5 0.1 0.6-0.1 1.2-0.8 0.5-0.2 0.7 0.1 1.3 0.5 0.6 0.1 5.3-0.7 0.5 0.1 0.7 0.2 0.6 0.3 0.4 0.3 0.6 0.3 1.4 0.1 0.6 0.2 1.4-0.6 0.4 0 1.4-0.1 3.3 0.3 3.1-0.4 0.8 0.2 7.2 3 0.8 0.8 0.2 0.4 0.6 0.1 0.6 0 0.4 0.1 0.3 0.2 0.4 0.7 0.2 0.2 0.7 0.4 0.9 0.2 0.9 0.2 0.8 0-0.9 2.6 0.3 0.9 1.2 1 5.2 2.6 1.4 0.4 1.6 0.1 3-0.5 2.4-0.7 0.3-0.1 1.3 0 0.2-0.1 0.6-0.7 0.3-0.3 1.8-0.6 0.8-0.7 0.6-2 0.6-0.8 0.8-0.7 0.8-0.4 1.9-0.6 0.9-0.4 1.5-1.5 1.1-0.3 1.1-0.1 3 0.6 1.8 0 7.4-1.7 7.1-2.7 1.7-1 0.9-1.4 0.1-1.1-0.2-0.9 0-0.9 0.5-1 0.4-0.4 1.7-1.3 0.7-0.8 0.4-0.4 1.4-0.8 2-0.5 2 0 1.8 0.6 1.6 1.2 0.2 0.1 0 0.6 0.2 0.4 0.2 0.2 0.4 0.1 0.5 0.4 0.4 2.1 0.8 0.9 0.6-0.2 0.8 0.3 0.8 0.4 0.9 0.3 6.7 0.3 0.5 0.2 0.8 0.5 0.7 0.6 0.5 0.6 0 0.9 1.3 0.5 1.7 0.2 1.2-0.1 3.9-1.2 1.2-0.7 0.7 0.3 1.1 0.3 1.1 0 0.5-0.4 0.3-0.5 1.9-1.6 0.6-0.3 0.3-0.3 0.4-0.6 0.3-0.7 0.1-0.5-0.1-0.6-0.2-0.4-1.7-1.9-1.3-1.1 0-0.3 0.5-0.1 0.8-0.3 0.5 0 0.4 0.1 0.8 0.5 0.4 0.1 0.1 0 0.2 0.1 0.2 0.2 0.2 0.1 0.2-0.2 0.4-0.4 0.2-0.1 0.2 0 0.4 0.1 0.8 0.5 0.5 0.1 0.3-0.1 1.2-0.6 0.6 0 0.1 0 0 0.2 0.3 0.5 0.2 0.6 0.3 0.4 0.6 0.1 0.9 0.1 0.4 0.1 0.3 0.2 0.8-0.4 0.8-0.3 1.5 1.2 1.3 1.4 1.5 1.1 2 0.4 0.4-0.1 0.4-0.2 0.4-0.1 0.6 0.1 0.5 0.2 0.4 0.3 0.4 0.4 0.3 0.4 2.2-0.2 0.4-0.2 0.8-0.9 0.4-0.4-0.3 1.1-0.6 1.2-0.2 1.1 0.8 0.7-0.8 1.6 1.6 1.2 2.5 0.7 1.9 0.3 6.2-1.5 1-0.6 0.9-0.8 6.1-3.1 0.8 0.6 0.8 0.8 0.9 0.4 1.9-0.1 1 0.1 0.8 0.4 0.7-0.2 0.5 0.2 0.6 0.5 0.6 0.3 1.6 0.2 1.5-0.2 4.6-1.9 0.1 1.4 0 0.7 0.1 0.5 1.5 2.4 0 0.6-0.8 0.6-3 1.2-1.5 0.4-1.7-0.2-1.7 0.2-1.3 0.7-0.3 0.9 1.5 0.8 0.9 1.1-0.4 2-1 1.9-1 1.1-5.3 3.2-2.8 1.1-1.3 0.8-1 1.3-0.1 1.8 0 0.1 1.8 0.7 3.8 0.5 0.8 0.4 0.9 0.3 0.6 0.4 0.4 1 0.1 1-0.1 2.3-0.1 0.8 0 0.2-2.1 5.9-0.2 2.2 0.2 1.1 0.3 1 0.1 1-0.4 1.1-0.5 0.9-0.9 4-0.1 3-0.2 0.6-0.9 3.4-0.3 4.3 0.2 2.3 0.5 1.9 2.2 3.6 0.7 1.7 0.2 1.7 0.4 4.5 0 1.6-1.6 3.9-0.5 1.8-0.1 2 0.3 2.2 1 1.9 1.7 0.9 1.8 0.5 1.6 1.2-0.5 1.1-2.6 4.1-2.1 2.3-0.6 1.9-0.8 3.9-1 2.9-0.5 2.1 0.1 2 0.8 5.4-0.1 0.7-0.3 0.5-0.1 0.1-1.4 1.5-0.5 0.8-0.2 0.8 1.2 1.8-0.4 0.6-1.5 1-0.3 0.4-0.3 1-0.2 0.3-0.4 0.4-1 0.6-1.8 1.6-0.4 0.4-4.2 1.9-1.8 1.3-3.8 1.7-1.7 1.3-0.9 1.8-1.7 6.3-0.3 0.9-0.6 0.7-0.8 0.4-2.8 0.5-1.7 0.8-1.2 1.3-1.1 1.4-1.8 1.9-1 1-0.6 1.4-0.1 3.9-0.9 5.3 0.2 2.1 0.6 2.9 0.3 0.9 1.3 2.5 0.4 2.7 0.4 1.4 2.8 4.9 3.4 5.9 0.6 2 0 0.3 0.1 6.9 0.7 2.5 1.1 1.3 1.6 0.4 2.1 0.2 1.6 0.6 4.9 3.5 0.9 0.5 0.9 0.3 0.9 0 0.9-0.2 1 0.6 4.2 6.5 4.4 7 0.6 1.7 0.6 7.4 0.4 5.4 0.6 1.7 1.2 1.4 5.4 3.4 7 5.1 9.2 6.7 7.5 5.4 0.6 0.7 0.5 1 0.8 3.7 0.1 0.6 1.2 5.7 1.3 5.7 1.2 5.7 1.3 5.6 1.2 5.7 1.3 5.7 1.2 5.7 1.3 5.6 1.2 5.7 1.3 5.6 1.2 5.7 1.3 5.6 1.2 5.6 1.2 5.6 1.3 5.6 1.2 5.7-10.2 5.6 1 1.7 2.6 3.1 2.3 2.8 5.7 8.4 5.2 9.9 3.4 12.1 3.5 12.1 1 7.7 0.1 9.5-1 8.4-2.2 17.6 0.5 2.9 6.5 17-0.1 2-0.2 0.4-2.9 10-0.8 0.9-1.2 0.7-1.1 0.8 0.1 1 0.7 1.2 0.4 1-0.3 0.9-1.9 2.1-0.7 1.1-0.5 2.9-0.8 2-0.2 0.8 0 0.8 3.7 13.2 0.9 5.1 0.4 1 0.5 0.4 2 1.1 0.7 0.6 0.1 0.8-1.1 5.2-0.1 1.7 0.5 1.4 0.1 1-1.8 6.3-0.9 1-15.5 7.5 0 1-0.2 0.8-0.4 0.7-1.5 1.4-0.8 2-0.6 0.8-1.1 2.3 1 2.7 6.2 8.7 6.7 9.4 5.4 7.6 6.7 9.4 1.7 3.1 0.6 3.1 0.2 6.4 0.2 6.9 0.1 6.7 0.5 1.3 6.6 3.8 0.8 1.4 0.8 4.5 0.5 1.6 0.8 0.9 5.8 4.7 0.8 0.3 1.8-0.1 5.1-2 4.9-1.8 0.9-0.1 1 0.2 8.4 2.8 10.5 3.5 13.9 4.6 1.8 0.6 1.5 0.8 1.1 1.5 3.1 6.2 3.1 6.5 0.1 0.2 4.9 10 3.1 6.3 3.4 6.9-3 1.9-3 1.9-3 1.9-3 2-3 1.9-3 1.9-3 1.9-3 2-3 1.9-2.9 1.9-3 1.9-3 1.9-3 2-3 1.9-3 1.9-3 1.9-3 1.9-3 1.9-3 1.9-3 2-3 1.9-3 1.9-3 1.9-3 1.9-3 1.9-2.9 1.9-3 1.9-3 1.9-3 2-3 1.9-3 1.9-3 1.9-3 1.9-3 1.9-3 1.9-3 1.9-3 1.9-3 1.9-3 1.9-3 1.9-3 1.9-2.9 1.9-3 1.9-3 1.9-3 1.9-3 1.9-3 1.9-3 1.9-3 1.9-3 1.9-3 1.9-3 1.9-3 1.9-3 1.9-3 1.9-3 1.9-3 1.9-3 1.9-2.9 1.9-3 1.9-3 1.9-3 1.8-3 1.9-3 1.9-5.8 3.7-4.3 3.8-3.2 2.7-3.1 2.8-3.2 2.7-3.1 2.7-3.4 3-1.7 1.5-2.5 2.3-2.8 2.6-2.8 2.5-2.7 2.6-2.8 2.5-2.8 2.5-2.8 2.6-2.7 2.5-2.8 2.6-2.8 2.5-2.7 2.5-2.8 2.6-2.8 2.5-2.8 2.5-2.7 2.6-2.8 2.5-2.8 2.5-3.5 3.2-1.9 1.3-1.9 0.8-5.7 1.2-4.4 0.8-9.6 2-9.7 2-4.4 0.8-8.3 1.7-8.3 1.7-8.3 1.7-8.3 1.7-7.5 1.5-7.5 1.4-4.2 0.9-3.3 0.6-7.5 1.5-4.7 0.9-3.5 0.9-1.2 0-0.6-0.1-0.4-0.1-1.1-0.7-2.6-2.6-2-0.8-0.9-0.6-0.9-0.7-0.8-0.7-0.7-1.1-0.1-0.8 0.4-0.9 0.7-1 0.3-0.9 0.2-0.4 0.6-0.4 1-1 0.2-0.8 0.2-1.8 0.4-0.9 0.8-0.7 0.9-0.5 0.8-0.6 0.5-1.1-0.1-1-0.5-0.8-0.6-0.7-0.4-0.8 0-0.5 0.3-0.9 0-0.3-0.2-0.4-0.2-0.2-0.2-0.1-0.3-0.3-0.5-1.7-0.1-1.8 0.8-9.4-0.1-0.7-0.7-0.6-0.6-0.3-1.6-0.5-0.8-0.3-2.5-2.1-5.6-2.4-12-2.6-2.5-0.1-4-0.8-0.5 0-0.8-0.2-1.6-0.9-0.9-0.3-1-0.3-0.7-0.2-0.5-0.5-1.8-3.3-1.4-2-1.6-1.8-2.7-2.1-0.8-0.5-0.8-0.2-0.9 0.1-1 0.7-1.8 1.7-1.2 0.5-0.6 0-2.8-1-0.4-0.3-0.4-0.3-0.3-0.2-0.6-0.1-0.6 0.2-0.7 0.7-0.5 0.2-1 0-0.3-0.6-0.2-0.9-0.4-1-0.7-0.5-0.7 0-0.8 0.1-0.9-0.1-1-0.4-5.2-4.4-0.4-0.7 0-3.5-0.3-1.7-0.9-1.3-2.8-2.2-1.7-0.9-1.6-0.3-0.8-0.5-0.8-0.2-1.8-0.3-1.9-0.6-0.7-0.6-0.7-0.8-0.9-1.7-0.6-0.5-1.1-0.3-0.9 0.1-1.8 0.3-0.9 0-1-0.1-0.6-0.2-0.3-0.6-0.1-1.2 0-0.9 1-4.3 0.5-5.1-0.1-1.1-0.8-3-0.6-0.9-5.1-3.6-3.8-2.7-3.8-2.7-3.8-2.7-3.9-2.6-3.8-2.7-3.8-2.7-3.8-2.7-3.8-2.7-3.8-2.6-3.8-2.7-3.8-2.7-3.2-2.3-0.7-0.4-3.8-2.7-3.8-2.7-3.8-2.7-3.8-2.6-3.8-2.7-3.8-2.7-3.8-2.7-3.9-2.7-3.8-2.7-3.8-2.7-3.8-2.7-3.8-2.7-3.8-2.7-3.8-2.7-3.8-2.7-3.9-2.7-3.8-2.7-3.8-2.7-3.8-2.7-3.8-2.7-3.8-2.7-3.8-2.7-3.8-2.8-3.8-2.7-3.9-2.7-3.8-2.7-3.8-2.7-3.8-2.7-3.8-2.7-3.8-2.8-3.8-2.7-3.8-2.7-3.9-2.7-3.8-2.7-3.8-2.8-3.8-2.7-3.5-2.5-3.5-2.5-3.5-2.5-3.5-2.5-3.5-2.5-3.5-2.6-3.5-2.5-3.5-2.5-3.6-2.5-3.5-2.5-3.5-2.5-3.5-2.6-3.5-2.5-3.5-2.5-3.5-2.5-3.5-2.5-4.9-3.6-3.3-2.3-3.4-2.3-3.4-2.3-3.3-2.3z" id="DZ" name="Algeria">
  </path>
 </g>
 <g id="points">
  <circle class="19.881480055145836|-7.649822919386468" cx="91.1" cy="912.3" id="0">
  </circle>
  <circle class="27.128831407873598|2.6758000487322517" cx="545.4" cy="564.2" id="1">
  </circle>
  <circle class="36.18802059878331|10.936298423227228" cx="908.9" cy="95.1" id="2">
  </circle>
 </g>
 <g id="label_points">
  <circle class="Algeria" cx="551.3" cy="551" id="DZ">
  </circle>
 </g>
</svg>