<?xml version="1.0"?>
    
<!--********* Copyright (c) 2024 Pareto Softare, LLC DBA Simplemaps.com ***************************************
************* Free for Commercial Use, full terms at  https://simplemaps.com/resources/svg-license ************
************* Attribution is appreciated! https://simplemaps.com *******************************************-->

<svg baseprofile="tiny" fill="#6f9c76" height="888" stroke="#ffffff" stroke-linecap="round" stroke-linejoin="round" stroke-width=".5" version="1.2" viewbox="0 0 1000 888" width="1000" xmlns="http://www.w3.org/2000/svg">
 <g id="features">
  <path d="M859.4 755.6l-14.3 13-16.2 15.5 10-9.3 10.5-9.8 10-9.4 1 2.3 1.5 3 1 7.4 0.5 1.3 1.5 2.8 3.1 3.9 2 1-0.9-1.2-2.1-3.7 1.5 0 0.9 0.8 0.7 1.1 0.5 1.4 0.8 4 0.2 0.7 1.2 0.8 0.6 0.9 0.6 1 0.9 1.2 1.4 1.7 2.8 2.2 2.7 1.1 1.3 0.5 0.3 0.3 0.9 0.6 1 0.6 1.1 0.3 4.2 0.3 6 1.2 5.7 1.9 2.1 1.3 3.7 3.5 1.1 1.9 0.5 3.8 1.2 2.4 2.3 2 2.3 1.7 1.1 0.6 1.1 0.4-0.2-1.2 0.4 0 1.6 1.8-0.4 2.3 1.2 3.3 5.1 2.3 2.4 1.4 1.7 1.1 4.5 3.8 6.7 6.5 1.5 0.7 1.1-0.1 0.2-0.5 0.2-0.5 0.2-0.3 0.6 0.2 1.3 0.8 0.6 0.6 0.4 0.5 1.1 2.5 0.6 0.9 1.1 1.1 2.9 1.7 1.8 0.6 0.2 3 0 1-0.5 0.8-0.6 0.8 0 0.1-17.4 0-17.3 0-17.4 0-17.3 0-17.3 0-17.3 0-17.4 0-17.3 0-17.3 0-17.3 0-17.3 0-17.4 0-0.4 0-0.6 0-16.3 0-17.3 0-17.3 0-15.8 0-1.6 0-7.6 0-7.6 0-7.6 0-7.6 0-7.7 0-7.6 0-1.5 0-6.1 0-7.6 0-7.7 0-7.6 0-7.6 0-7.6 0-7.6 0-7.7 0-7.6 0-7.6 0-2 0-4.4 0 2.4-7.1 1.7-5.1 0.1-2.1-0.7-1.7-1.6-1.7-1.4-0.7-1.4-0.2-1.5 0.3-1.4 0.7-1.9 2.1-3.3 6.9-0.3 0.6-3.7 7.5-1 0.6-2.8 0-7.2 0-7.3 0-7.2 0-7.3 0-7.2 0-7.3 0-7.2 0-7.3 0-7.2 0-7.3 0-7.2 0-7.3 0-7.2 0-7.2 0-7.3 0-7.2 0-7.3 0-7.2 0-7.3 0-7.2 0-7.3 0-7.2 0-7.3 0-7.2 0-7.2 0-7.3 0-7.2 0-7.3 0-7.2 0-7.3 0-7.2 0-7.3 0-7.2 0-7.3 0-7.2 0-7.3 0-7.2 0-7.2 0-7.3 0-7.2 0-7.3 0-7.2 0-7.3 0-7.2 0-7.3 0-7.2 0-7.3 0-7.2 0-7.3 0-7.2 0-7.2-0.1-7.3 0-7.2 0-7.3 0-7.2 0-7.3 0-7.2 0-7.3 0-7.2 0-7.2 0-7.3 0-7.3 0-7.2 0-7.2 0 0-23.4 0-23.5 0-23.6 0-23.6 0-23.6 0-23.8 0-23.7 0-23.8 0-23.9 0-23.9 0-24 0-24.1 0-24 0-24.2 0-24.2 0-24.3 0-16.3 0-15.8 0-7.4 0-28.3 0-12.8 0-3.3 0-29.6 0-6.6 0-33.4 0-33.8 0-14.3 0-10.5-0.6-4.9-1.3-4.6-6.1-15-0.8-3-0.1-3.3 0.6-6.2 0-2.1-1-3.5-3.9-6.4-0.5-3.6 1.3-4.5 0.1-1.7-0.4-1.9-6.4-16.1-2.1-3.8-0.6-1.9 0-3.3 1.2-3.1 3.1-5.5 1.2-3 0.7-1.2 2-2.6 2.3-2.3 4.3-6.6 1.5-3 0.7-2.9 0.2-1.7 2.3-6 0.8-4.7 0.9-3.5 1.1-3 0.5-3-1-3.5-3.3-6.9-1-4.5-2.6-5.3-0.5-1.8-1.7-9.3-0.1-7.1-0.7-7.4 0-3.1 0.9-2.8 12.1-10 2.8-7.4 2-3 4.7-3.7-0.1 0.6 0.9 5.8 0.8 2.7 1.4 1.8 1.6 0.5 3.8 0.2 2.8 1.5 1.6 0 3.4-0.5 0.7 0.2 0.9 0.4 0.9 0.2 1.3-0.8 1.9-0.5 2.1-0.2 12.1-3.5 14-4.8 3.3-0.5 7.3 0.4 29.5 8.2 21.4 2.9 1.3 0.7 1.2 0.4 3.7-0.2 1.5 0.1 5.3 2.6 3.1 1 3.4 0 2.7-1 1.3-0.2 1.3 0.9 1 1 0.7 0.3 0.7 0 0.9 0.2 2 1.2 4.7 1.6 5 0.5 1.9 0.6 1.2 0.9 0.5-0.4 0.7-0.4 0.3-0.4 0.9 0.1 4.6-0.1 0.5 0.2 0.6 0.3 0.5 0.6 0 0.4-0.1 0.3 0.1 0.6 0.6 1.1 0.3 0.5 0.4 0.2 0.2 0.2 0.1 1.3 0.2 0.6 0.6 0.9 0.7 2.6 0.8 1.2 1.7 1.6 2.2 1.2 2.3 0.8 4.7 0.7 1.9 0.8 1.6 0.3 1.7-0.9 3.7 2 4.4-0.8 8.7-4.2 1.3-0.2 0.7 0.6 0.4 1.2 0.1 1.7 0.2 0.7 1.3 3.2 0.3 2.8 0.2 0.8 2.3 1.3 3.6 0.5 13.3 0 0.9 0.2 0.7 0.5 0.6 0.6 0.6 0.4 0.9 0.3 2.2-0.3 1.7 0.2 3.2 0.8 1.4 0.2 1.5-0.4 3.3-1.6 1.7-0.3 1.4 0.2 1.3 0.7 1.2 0.8 0.9 0.9 0.6 0.4 2.7-0.1 1 0.2 0.8 0.4 1.2 0.6 13.3 4.8 2.6 1.5 1.5 0.6 1.8 0.2 0.4 0.5 0.5 2.4 0.3 0.8 0.5 0.3 1.4 0.5 12.9 6.8 12-0.5 2.3-0.5 10.1-4.9 11-5.3 4-3 3.1-1.6 0.4-0.3 0.5-0.8 0.6-0.6 11-8.1 1.1-2.3 2.1 0.5 2.2-1 3.4-3.1-0.7-1-0.2 0.1-0.7 0.3 0.5-0.9 0.5-0.6 0.6 0 0.5 0.9 0.5 0 0.9-0.9 3.4-3.2 1.1-0.6 1-0.5 1.4-2.1 0.6-0.5 1.1-0.2 0.6-0.4 0.5-0.6 0.7-0.5-0.3-0.1-0.2 0-0.1-0.2 0.1-0.4 2-1.1-0.2 2.5 2.1 1.7 0.2 0 2.8 0.9 2.8 0.3-0.7 0.4-0.8 0.9-0.6 0.4-0.1 0.5 0.1 0.1 0.3 0 0.2 0.1-0.9 0.6 0.3 0.6 0.8 0.7 0.8 0.4 3.1-1.8-0.4 1 0.4 0.5 0.7 0.1 0.3-0.1 0.3-0.5 2.3-2.2 0.2 0.4 0 0.1 0.3 0.2 0.1-0.5 0.2-0.3 0.1-0.4 0.1-0.7 0.5 0-0.1 1 0.2 0.7 0.4 0.4 0.5 0.3 0.3-0.6 0.8-2.3-1.2-0.6-1 0.2-1.1 0.6-1.4 0.3 0-0.5 0.3-0.1 0.5 0.1 0.3 0 0-0.6-1.2 0.4-4.4 0.2 0-0.6 2.7-0.7 2.6-1.5 4.6-4.1 1.6-2.7 1-3.5 0.3-3.6-0.6-3.1 0.5 0 0.4 1.7 0.6 1.6 1.1 1.2 1.5 0.3-2.1-1.6-1.1-2.6 0.5-1.5 2.7 1.5 2 1.6 2.3 0.9 2.7 0.3 3.2-0.4 10.5-2.8 22.1-7.9 0 0.6-1.1 0.1-6.9 2.6-5.7 3.4-4 1.8-3.2 2.2-0.4 0.2-1 0.2-0.6 0.2-2.8 2-1.3 0.4-3 0.3-0.6 0.3-0.4 0-1.1 1.8 0 0.6 1.5 0.4 0.6 0 0.4-0.4 0.5 0 1.2 0.7 2.1-0.1 2-0.7 0.9-0.8 0.7-1.4 1.5 0.4 1.5 1.3 0.9 1.2 0.5 0 0.5-1.5 1.1-1.5 1.4-1.2 1.1-0.6 0.7-0.3 0.8 0.4 0.9 0.6 1.1 0.5 0.8-0.1 0.9-0.2 1.1-0.1 0.8 0.4-0.2 0.1-0.2 0-0.1 0.1 0 0.4 1 0.3 1.3-0.4 1.3-0.8 1-0.9-0.2-0.1-0.2 0-0.1-0.1 0-0.3 0.3-0.2 0-0.1 0-0.1 0.2-0.3 2.5 1.1 0.5 0.7 0.7-0.6 0.5-0.7 0.9-1.7-0.5-0.8 0.3-0.5 1.2-1.1 0.2-0.5-0.1-0.5 0-0.4 0.4-0.4 0.5-0.1 2.7 0.2 0.7 0.3 1.2 0.8 0.2 0.4 0 0.4 0.1 0.3 0.7 0.1 0.6-0.1 0.5-0.5 0.3-0.5-1.4-0.7 0.5-0.3 0.5-0.2 0.5 0.1-1.5-2-3-2.3-3.5-1.5-3.4-0.1 0.7-0.4 1.9-0.7 6.3-1 2.3 0.3 6.9 2.2 9.6 4.4 2.1 0.9 3.1 2.4 7.7 3.6 2.5 0.6 1.1 0 1.9-0.1 11.3-3.2 6.6-3.9 2.7-0.9 2.9 0.1 2.4 1.2 1.1 2.3 0.3 1.1 2.4 3.2 1 2.5 1.2 1.5 2.3 2.1 0.8 0.4 1.9 0.4 0.1 0.1 0.8 0.3 1.8 2.1 0.5 0.4 1 0.5 3 2.3 0.8 0.5-2.3-0.5-7.4-4.6 0.4 0 0.4 0 0.2 0.1 0.5 0.5-0.1-0.6-0.4-0.4-0.5-0.2-1.5-0.2-0.4-0.3-0.2-0.4-0.3-0.4-2-1-0.8-0.7-0.3 0-0.6 0-0.2-1.2-0.5-1-0.6-0.8-0.7-0.6 1 0 0.9-0.1-3.7-4.7-0.8-1.4-1.1-1.4-0.9-0.5 0 0.3-1.2-0.5-0.5 0.3-0.3 0.8-1-0.6 0 0.3 0 0.6 0 0.3-0.3-0.2-0.5-0.2-0.3-0.2 0 0.7-0.1 0.5-0.4 0.6 1.6 0-0.4 1 1.1 2.1-0.2 1.2 0.5 0 0 0.5-0.5 0 0.1 0.4 0.3 0.4 0.1 0.4-0.5 0-0.3-1-0.5-0.8-0.7-0.5-1.1-0.1 0.3-0.6-0.3-0.1-0.5 0.5-0.5 1.4 0.5 0.1 0.2-0.1 0.3-0.5 0.6 0.4 0.4 0.1 0.6 0 0 0.6-0.6 0 0 0.6 0.3 0.6 0.4 0.3 0.6 0.2 0.8 0.1-0.5 0.5-0.8 0.2-0.7-0.2-0.6-0.5-0.5 0 0.1 0.4-0.2 0.1-0.2 0-0.2 0.1 0.3 0.3 0.3 0.3 0.4 0.6-1 1.3-0.2 1 0.7 0.6 1.6 0 0 0.7-1-0.2-0.8-0.3-0.7-0.1-0.6 0.6-0.5 0-0.5-0.5-0.5 0-0.4 0.5-0.1 0.9 0.3 0.4 0.5 0.4 0.1 0.3-0.9 0.4 0 0.5 0.4 0.8-0.5 0.3-0.9 0.3-0.6 0.5-0.1 1.2 0.4 0.8 0.8 0.2 0.8-0.4 0.1 0-0.1-0.2-0.1 0-0.1-0.1-0.1-0.3 1 0.4 0.5 0.2 0.7 0 0.6 0.4 0.2 0.8 0 0.7 0.3 0.4 0.8 0.2 1.2 0.6 1.1 0.8 0.7 0.8 0.6-1.4 0.4-0.6 0.5-0.4-0.3 0.8-0.1 0.6 0.1 0.4 0.3 0.6-1 0 0 0.6 1 0-0.2 0.2-0.2 0.2-0.2 0.2 0.1 0.6 0.4 0 0.2-0.2 0.1-0.2 0.3-0.2 0.1 0.1 0 0.2 0.1 0.2 0.3 0.1 0-0.6 0.5 0-0.3 1.2 0.3 0.8 0.6 0 0.5-1.4 0.8-0.1 1.2-1.2 1.4-1 1.7 0.5-1.1 0 0 0.6 1.1 0.6 0.2-0.4 0.5-0.4 0.3-0.4 1.1 0.6 0 0.6-0.3 0.4-0.2 0.3-0.1 1.1 0.8-0.4 0.3-0.2-0.1 0.8-0.2 0.4-0.3 0.4-0.5 0.2 0 0.5 0.5 0.8 0 0.9-1.5 1.4 0 0.6 0.8 0 0.6-0.2 0.5-0.4 0.2-0.6 0.4 0 0.1 0.9 0.1 0.2 0.2 0.5 0.4 0.5 0.7 0.3 0 0.6-0.7 0.2-0.6 0.3-0.4 0.5-0.2 0.8 0.4 0.1 0.5 0.5 0.8-0.5 0.6-0.1 0.6 0.2 0.5 0.4 0 0.5-0.5 0 0 0.7 0.8 0.6 0.9 0.5 1 0 0.9-0.6 0-0.5-1.1-0.1-0.7-0.5-0.5-0.9-0.2-0.9 1.1 0.2 1.5 0.8 0.7 0.1 0.3 0.1-0.6-1.2 1.2-0.1 0.4 0.1 0-0.7-0.4 0 0-0.1 0-0.1-0.1-0.3 0.1-0.1 0.9-0.5 0 0.5 0.2 0.1 0.4-0.1 0.4 0.1-0.3-0.9 0.6-0.7 0.8 0 0.8 1.4 1 0.4 1.1 0 1.1-0.2 1.8-1 0.8-1.6-0.2-1.6-1.4-1.3 1.8 0 0.1 0 0.2 0 0.3-2.5 0.1-1.3-0.4-1.4-1.3-1.6-0.2-0.8 1-0.7-1.2-0.6-1.5-0.6-1.5-0.2-1 0.3-0.5-1.5 0.9 0.1 1 0.1 1.8 0.4 3.3 0.6 1 0.8 0.4 0 0.9 0.1 0.2 1.4 0.7 1.2 1.1 0.7 2.3 0.6 0.9 0.8 1.4 1.8 3.1 3.1 1.4 1.1 2.1 3.6 2 1.8 2.2 1.4 2.6 0.7 0.1 0.1 3.3 0.1 3.1-0.4 5.5-1.5 6.6-3.2 1.3-1 3.1-1.6 0.8-0.6 0.5 0 0 0.6-2.3 1-4.2 3.1-2.4 0.7-4.1 1.9-6.4 1.6 3.6 0 0 0.6-1 0.6 2.2 0 0.9-0.3 0.5-0.9 0.4 0 0.1 0.6 0.2 0 0.4 0 0.4 0 4.6-2.9 3.8-1.2 0.8-0.7 0.5 0 0.3 0.5 1 0.3-0.2 0.4-0.6 0.1 0 0.6 0.8-0.3 1.8-0.9 0-0.7-2.1 0 0-0.5 1-0.4 1.3 0.3 1.1 0.8 0.7 1.1 0.2 0.5 0.2 0.8 0.1 0.5-1 0 2.4 0.9 1.2-0.1 1-0.8 0-0.7-0.7-0.4-0.4-0.1 0-0.6 2.9-0.8 0.7-0.5-0.3-0.6 0.1-0.6 0.4-0.8 0.3-0.9-0.5 0-0.4 0.6-1.6 1.2-0.2 0.3-0.3 0.2 0 0.3 0.5 0.3-1 0.3-1.7-0.1-1.7-0.2-1.2-0.5 2.2-0.2 1.3-1.4 0.9-1.7 1.2-1.5 0.9-0.4 1.8-0.4 0.9-0.4 1.4-1.4 0.9-0.4 1.3 0 0 0.6-2.1 0 0 0.6 0.9 0.6 2.7 3.6 0.8 1.5-0.3 0.4-1 0.3-1 0.7-0.1-0.2 0-0.2-0.1-0.2-0.4 0.1 0 0.5 1.3 0.9 0.6 1.1 0 1.4-0.8 1.4 2.6-1 1.4-0.4 1 0.2 0.5-0.1 0.4 0 0.6 0.1 0-0.5-1-0.7-0.5 0 0 0.7-0.4 0 0-0.7 3.9-1.5 1.1-0.9 0.5 0-0.5 0.7 0.5 0.6 0.6-0.5 0.6-0.1 0.5 0.4 0.3 0.8 0.6 0 0.1-0.8-0.1-0.8-0.1-0.2 1.1-0.1-0.7-0.3-0.7 0.1-0.7-0.1-0.9-0.2 8.1-0.6-0.6-1.6 0.9-0.3 1.2-0.1 0-1.6 0.8 0.4 0.3 0.2 0.5 0 1-0.2 2.9 1.5 1.4 0.5 5.5 0.5 1.4 0.7 0-0.6 1.7 0.5 2.5-0.2 15.4-4 14.3-5.7 11.3-7.4 0.1 0 1.8 3.3 0.5 1.4 1.3 4.2 0.8 2.4 2.9 9.1 2.3 7.4 2.9 7.5 3.8 10.1 4.6 12.1 1.6 6.9 0.2 3.6 0.4 1.5 1.2 1.6 0.7 1 0 1.2-0.7 2.6-0.1 1.5 0.1 1 0.5 0.8 4.1 3.6 0.8 1.2 2.5 7.1 4.4 12.7 2.9 8.3 0.2 0.5 0.1 0.5 0.1 0.5-0.1 0.6 0.5 4.6 3.3 9 2.9 8.1 1.9 8.8-0.1 5.9 0.5 2.1 1.7 3.5 0.6 1.2-0.8 0.5-0.7 0.5-0.5 0.6-0.5 0.8-0.4 1-0.3 0.8-0.4 0.7-0.9 0.4 0.2 0.1 0.2 0 0.1 0.1 0 0.4-0.6 0.3-0.5 0.5-0.2 0.5 0.3 0.5-0.7 0.1-0.4 0.2 0.1 0.4 0.5 0.4-0.9 0.8-1.7 2.7-0.4 0.4-0.8 0.4-0.3 0.3-0.3 0.6-0.3 0.5-0.3 0.4-0.7 0.4 0 0.5 0.7 1.2-0.3 1.2-0.5 1.2-0.4 1.1 0 4.4-0.4 1-0.9 0.8-0.9 0.6-0.4 0.5 0 1.2-0.3 1.4-0.5 1.3-0.7 1.1 0.2 1-0.2 5.1 0.2 0.8 0.7 1.1 0.2 1-0.2 1-0.6 0.5-0.7 0.2-1.6 1.1-0.3 0.5-0.2 1.1 0 0.5 0.4 1.7 0.1 5.1-2 1.5 0 0.5 0.2 0.8 0.2 1.1 0 1.2-0.4 1 0.3 0.4 0.2 0.3 0.5 1-0.7 0.5-0.1 0.5 0.1 0.5 0.2 0.6-0.2 0.9-0.3 0.6-0.4 0.4-0.2 0.4-0.4 1.5-1.7 2.5-1 3.9-3 4.5-1 2.5-0.1 0.2 0.1 0.2-0.1 0.1-0.4 0 1 2.6-0.9 1.6-1.7 1.3-1.5 1.5 0.2 0.2 0.1 0 0.2 0.4-1 0.5-0.6 1.1-0.7 3.8-0.3 0.9-0.8 1.4-0.2 0.1-0.2 0.9-1.1 2.1-0.2 1.1 0.1 1.4 0.2 1.1 0.3 0.9 0.4 0.9 0 0.6-0.6 1.4 0.7 1.2 0.9 1.2 0.7 1.4 0.7 0.6 0.2 0.5 0 0.6-0.2 0.4-0.2 0.2-0.1 0.3-0.1 1.1-0.6 2.9-0.9 2.4 1.3 2.3-1.3 6 0.6 0.6-2 0.3-0.6 0.3-0.2 0.5-0.2 0.8-0.4 0.7-0.9 0.6-0.5 1.2-0.6 0.3-0.6 0-1 0.4-0.7 0.1 0.1 0.3 0 0.1 0.1 0 0.3 0.2-0.5 1.3-0.8 2.5-0.7 0.8-0.5 0-0.3-0.4-0.6-0.2-0.5-0.4-0.5 0.5-0.5 1.9-0.7 0.9 0.6 1.1-0.9 0.9-1.5 0.6-1 0.2-0.7 0-0.2 0 0.3 1.3 0.3 0.5 2.7 0.1 0 0.5-0.6 0 0 0.6 0.4 0.3 0.2 0.4 0.4 1-0.7-0.4-0.3-0.2 0.1 0.3 0 0.2 0.1 0.1 0.4 0 0 0.6-0.6 0-0.4-0.7-1.3-1.8-1.4-1.5-0.6-0.5-0.8-0.4-1.1-0.4-7.2-0.7-1.7-1.2-5-6.1-0.4-0.3-0.6 0.1-4.3-3.9-0.9-0.5-1-0.1-0.9 0.7-1-2.3-0.5 0.5-0.7-0.8-2.6-2.2-0.6-0.3-0.2-0.1-0.3-0.4-0.2-0.7-0.3-0.3-0.5-0.5-0.5-0.2-1.2-0.3 0-2.1-3.5-2.2-0.1-1.5-1-0.9-1.3-1.7-0.9-1.9 0.2-1.2-0.4-0.3-0.3-0.1-0.2-0.3-0.2-0.5-0.5 0 0 0.6-0.5 0-0.2-0.4-0.7-0.7-0.1-0.3-1.1-4.1-0.4-0.7-0.6 0.4-0.5-1.1-1.8-2.6-0.7-1.4-9.7-5.9-0.5-0.9-0.3-0.1-1.8-3.1-1.4-1.3-0.9-1 0-0.5-4.7-3.5-0.8-0.8-0.3-0.7-0.3-0.7-0.6-1-0.8-1-0.9-0.4 0.5-0.7 0 0.7 0.5 0-0.5-2.8-1.2-0.2-0.7 1.1 1.4 1.2-1.2-0.4-0.8-1.1-0.4-1.5-0.3-3.4-0.5-1.5-1.3-2.5 0.7-1.7 1-3.9 0.7-2-0.9-1.1-0.4-0.7-0.4-1.7-0.5-0.4-0.7-0.2-0.6-0.5-0.4-1.6-0.3-3.8-0.3-1.1 0-0.5 0.7-0.8 0.1-0.7-0.3-2-0.2-0.4-0.3-1.2-0.1-1.3 0.4-0.6 0.5-0.6-0.5-1.1-0.9-1-0.4 0.1-0.2-0.9-0.4-0.7-0.7-0.2-0.7 0.3-0.8-1-2-1.1-0.8-0.8-0.9-2.1-0.2-0.5-0.2-0.5-1.1-0.9-0.2-0.4-0.3-0.1-1.2-1.9-0.2-0.2-0.6-0.3-0.3-0.1-0.1-0.3-0.2-0.7-0.1-0.2-3.4-3.5-1.2-0.4-1.6-0.9-1.6-1.1-1-1.1-0.4-1.3-0.3-1.8-0.5-1.5-1-0.7-0.7-0.2-0.5-0.7-1.5-3.7-0.1 0 0.2-3.2-0.3-1.5-2-0.9-3.6-2.7 0.6 0-0.3-0.6-0.3-0.3-0.4-0.1-0.6-0.1 0.2-0.2 0.2-0.2 0.2-0.3-0.1-0.5-0.5 0-0.3 0.7-0.2 0.7 0.1 0.5 0.4 0.4-1 0 0.6-3.1 0.1-4-0.9-3.5-2.3-1.7 0-0.5 0.4-1 0-1.2-0.3-1.3-0.1-1.2 0.2-1.3 0.6-1.7 0.2-0.9-0.1-1.4-0.2-0.9-0.3-0.7-0.4-0.8-1.8-2.3-0.3-0.9-0.3-0.6-1.7-1.7-1.6-0.8 0.4-0.8 0.8-0.8 0.4-0.3 0-2.4-1-1.7-3-3 0.6-0.4 0.3-0.4-0.1-0.4-0.4-0.5 0.4-0.2 0.2-0.1-0.2-0.2-0.4-0.1-0.3-0.5-0.3-0.5-0.4-0.4-0.2-0.4 0.1-0.2 0.2-0.2 0.3-0.1 0.6-0.1 0-0.5-0.2-0.6 0-0.5 0.2-0.8-0.4 0-1 2.1-0.1 0.9 0.2 0.7 0.4 0.5 0.4 0.6 0.1 1.1-0.6 0-0.2-1.1-0.6-0.5-0.8-0.1-0.9 0.6-1.3-0.5-1.4 0.9-1.3 1.6-0.7 1.5 0 1.6 0.4 1.2 1.1 0.9 1.6 0.4-1.3 1.1-6.2 8.8-0.4 0.7-0.7 0.8-2.2 4-0.4 1.4-0.1 3.5-0.4 1.4-1.1 1.2 0 0.7 0.8 0.6 0.9 1.2 0.7 1.2 0.6 1.8 0.8 0.9 3.8 2.5 0.9 0.8 3.4 4 2.4 1.4 2.1 2.2 1.8 2.5 0.7 1.6 0.3 2.1 0.8 2.9 1 2.6 1 1.5 0 0.6-0.3 1.5 2.1 8.4 0.2 0.8 0 1.9-0.4 0.7-0.7 0.6-0.4 1-0.8 0.4-0.3 0.7 0.6 0.9-0.4 2.6-0.1 3 0.5 0.9 2.2 2.4 0.8 1 0.3 0.9 0 1.7 0.3 0.9 1.7 1.9 0.3 0.2 3.1 4.3 2.6 0.5 1.7 1.8 1 2.6 3.3 12.6 0.3 1.7 0.8 0.3 3.5 2 1.8 1.8 0.9 1.1 0.7 1.5 0.8 0.3 0.8 0.2 0.7 0.4 0.2 0.5 0.5 1.7 2.2 4.2 0.6 0.6 0.1 0.4-0.2 0.1-0.2-0.1-0.2 0.1 3.3 2.7 1.4 1.8-0.1 1.9 0.6 0.4 0.5 1 0.3 1 0.2 0.8 0.3 0.3 1.7 2.3 3.5 3.8 0.8 1.8 0.8 0.5 0.8 0.3 0.7 0.5 0.3 1.1 0 1 0.2 0.6 1.3 0.2 1.2 0.7 2.5 3 1.6 1-0.1 0.5 0.1 0.7 0 0.5-0.1 0.7 0.5 0.5 0.9 0.2 0.8-0.2 0.6 1.2 1.7 0.8 3.3 0.9 5.3 4.8 1.7 3.6 0.9 0.8 0.5 0.9 1.6 3.9 0.2 1 0 0.5 0.4 0.6 0.3 1.7 0.3 0.6 0 0.5-0.5 0-1 0-0.8-1.8-1.8-1.1-2-0.7-1.5-1-0.5 0-0.5 1.2-0.2 0.8 0.1 0.6 0.6 0.9 1.4 1.5 0.8 1 0.3 1.3 0.5 0.7 1-0.4 1.1-0.5 0.5 0.2-0.1 1.1-0.3 1.2-0.5 1.2-0.7 0.8 0.3 0.3 0.4 0.6 0.3 0.2 1.4 1 0.5 0.2 0.2 0.3 0.7 1.6 0.3 0.4 0 0.6-0.8-0.7-1.7-2.2-0.6 0 0 0.6 0.3 0.5 0.3 0.7-0.6 0-0.4-1.6-1.3 0.1-1.5 1.2-0.8 1.4 1.7 0.9 1.3 1.7 2.1 3.7-0.3 0.6-0.2 0.6-0.1 0.8 0.1 0.9 1.2 1 3.3 1.4 1.1 1.1 0.2 0.7 0.1 1.9 0.2 0.8 0.5 0.7 1.3 1.4 0.5 0.8 0.5 1.7 0.5 3.7 0.5 1.2 2.5 2.3 2.9 2 3.1 1.5 1.5 1.1 1 1.4 0.1 0.9-0.1 3.2-0.2 0.2-0.7 0.6-0.1 0.3 0 0.5 0.4 0.7 0.1 0.5 0 1.9 0.3 1.4 0.8 1.1 1.4 1 1.3 1.2 1.4 1.9 0.5 1.4-1.1-0.2 0 1.4 0.5 1.1 1.5 2.1 0.7 1.3 0.9 2.4 0.7 1.2 0.9 0.7 1.1 0.6 0.9 0.6 0.4 0.9 0.5 2.7 0.1 1.3-0.6 0.9-1.2 0.1-0.8-0.8-0.7-0.3-0.8 1.6-0.2 1.1 0 1.5 0.1 1.5 0.3 1.1 0 2.1-1.4 5.1 0.6 2.4 1.1 0.9 2.4 0.7 1.2 0.7 0.7 1.2 0.8 2.6 2.4 3.2 1.1 2.2 2.5 7.4 1.1 2.2 1.5 2.3 1 2.1 1.8 2.7 6.3 14.5 2.9 4.3 2.8 7.1 5.9 8.2 0.5 1.1 0.8 2.3 5 7.5 2.7 3 0.6 0.8 6.5 12.9 1 3.9 1.8 3.5 0.8 4.2 1.3 2.3 3.2 4.1 0.5 1 0.7 2.4 0.5 1.1 2.2 3.5 0.9 3.5 3.4 6 6.4 11.1 0.3 2.6 0.8 2.3 1.2 1.4 1.5 1.8 0.2 1.5 0.1 3 0.2 1.6 0.4 1.2 0.6 0.9 0.9 0.8 1.2 0.7 1.9 1.8 1.3 2.4 1.7 6.4 0.4 1.1 1.3 2.1 1.4 2.6 1.1 1 0 1.3-1.2 2.5 0 2.2 3.1 1.2 3.7 7 10 7.7 1.6 1.9 2.8 7.9 2 2.2 2.8 4.1 1.3-0.2-0.6-1.1-0.7-1.1 0.8-0.2 1.5 1.6 2.1 0.9 2.7 2.8 1 2.3 0.2 2.4 2.3 1.3 2.3-0.4 1.8 0.5 2 0.6 1.5 0.8 1.2 1.2 1.5 3.7 1.4 1.7-0.5 0.8-1.2-1.6-1.5-1.6-1.1-0.1-2.7 1.3-1.1 0.5-1.5-0.6-1.4-0.5-1.4-0.3-1 0.1-1.1-0.2-1.4-0.5-0.5-0.7-0.8-1-0.8-0.3-0.1-0.4-1.1-0.5-1.6-0.4-0.7 0.5-1 1.9-0.5 2.4 0.5 3.9-0.7 3.4-0.5 2.4 0.6 2.1 1.4 0.3 0.6 1 0 1.2-0.3 0.6 0.1 1.4 0.1 0.9 0.1 1.8-0.3 3.4-0.1 7-0.2 1.3-0.7 2.3-0.2 1.2 0.3 1.2 0.7 1.2 1.6 2.3 1.3 2.4 0.4 1.3 0.3 1.3-0.1 3.8 0.6 3.9 0.7 3 0.5 2.7 3.5 5.9z m-56.5 37.1l-6.3 14.6 3.8-8.7 2.5-5.9z m-13.4 30.8l-19.3 3.9-20.5 4.6 12.9-2.7 13.5-2.9 13.4-2.9z m-54.1-367.8l1.1 0 0.4 0 1.5 3.2 0.5 1.7 0.1 1.9-1.1-1-0.5-1.1-2-4.7z m3.8-60.2l1.6 0.7 0.5 1.4 0.3 1.5 0.9 1 0 0.5-0.5 0-1-0.2-1.3-1.6-0.5-0.5-1.6-0.5-0.7-0.4-0.7-0.9-0.7-0.5-1.7 0.8-0.7-0.6-0.5-1-0.3-0.9 0.4-0.5 0.5-0.4 0.5-0.1 0.6-0.1 1.7 0.3 0.6 0.3 0.7 0.5 0.6 0.5 0.3 0.3 1 0.4z m43.1-37.5l1.2 1.1 1.4 1.2 0 0.7-2.9 0.2-2.6-0.2-2.1-0.9-1.5-1.9-0.1-0.2 0.1-1.1-0.3-1.6-0.4-0.7 0.3-0.4 0.1-0.1 0.2 0.5 0.2-0.7 0.4-0.5 0.4-0.3 0.5-0.2 1.3 0.7 0.4 0.4 0.3 0.6-1.9 0.4-0.9 0.4-0.2 0.9 0.3 0.4 0.3 0.3 1.3 0.1 2.1-0.3 1-0.4 0.1 0.2 0.2 0 0.4 0.6 0.3 0.6 0.1 0.2z m-119.6-267.5l-0.3-0.4-0.4 0 0.5-0.4 0.5 0.1 0.3 0.5 0.2 0.9-0.8-0.7z m29.5-9.4l2.3 0.5 2 1 3.2 2.7-1.6-1.2-11.6-5-2.2-0.4 2.4 0.1 3.8 1.8 1.7 0.5z m-22.1-3.3l2-1.1 11.7 1.4-0.5 0.4-0.9 0-2.3-0.4-2.2-0.3-2.2-0.4-2.6 0.7-1.2-0.2-2 0.7-8.9 4.8-1.6 1.3 0.9-1.3 1.7-0.8 1.4-0.8 1-0.6 1-0.7 3.8-1.8 0.9-0.9z m123.1 280.1l0 3.2-2 0.9-1.8-0.6-1.4-1.3 1.5-2.4 3.7 0.2z" id="EG" name="Egypt">
  </path>
 </g>
 <g id="points">
  <circle class="22.477474712019966|25.298884621863525" cx="90.9" cy="809.1" id="0">
  </circle>
  <circle class="26.342319125351576|31.404303521235196" cx="545.5" cy="493" id="1">
  </circle>
  <circle class="31.17337464201609|36.28863864073253" cx="909.1" cy="82.5" id="2">
  </circle>
 </g>
 <g id="label_points">
  <circle class="Egypt" cx="399.6" cy="506" id="EG">
  </circle>
 </g>
</svg>