<?xml version="1.0"?>
    
<!--********* Copyright (c) 2024 Pareto Softare, LLC DBA Simplemaps.com ***************************************
************* Free for Commercial Use, full terms at  https://simplemaps.com/resources/svg-license ************
************* Attribution is appreciated! https://simplemaps.com *******************************************-->

<svg baseprofile="tiny" fill="#6f9c76" height="1000" stroke="#ffffff" stroke-linecap="round" stroke-linejoin="round" stroke-width=".5" version="1.2" viewbox="0 0 1000 1000" width="1000" xmlns="http://www.w3.org/2000/svg">
 <g id="features">
  <path d="M600.4 72.3l-1.2 3.3 0 1.1 0.7 2 0.5 0.8 0.7 0.3 0.7 0.2 0.6 0.5 0.4 0.7 0.5 1.8 0.4 0.5 0.8 0.2 1.8-0.5 0.9-0.1 0.6 0.4 1.1 1.1 2 1.1 0.6 1-0.2 1.2-1 1.3-0.5 3 0.5 2.1 0.9 1.8 0.4 2.6-0.5 2.7-1.2 2.1-3.3 4-1 2.8 0.8 2 1.8 1.2 2.4 0.5 2.8-0.1 1.3 0.2 1.2 1 0.8 1 0.9 0.7 1.1 0.3 1.2 0.1 1.5 0.8 1.4 1.8 2.2 4.1 1 2.5-0.2 2.1-1.8 4.1-0.9 3.9-0.1 2.4-0.3 0.2-1.1 0.5-0.4 0.3-0.2 1.8 1.3 1.7 0.3 0.3 1.5 1.2 1.2 1.3 0 1.6 0.6 0.9 0.8 0.8 0.7 1.1 0.5 1.5 0.1 1.1 0.4 1 1 1.2 2.5 1.2 2.7-0.2 5.1-2.1 2.3 0.2 1.6 2 1 2.9 0.4 2.6 0.2 4.9 0.7 2 1.7 2.2-2.2 1.4 0.5 1.4 1.7 1.3 1.3 1.3 0.5 2.2-0.3 5.2 0.5 2.4 2.8 3.7 1.2 2.3-0.4 2.2-1.1 1.8-1.1 2.3-0.6 2.4 0.6 1.8 0.1 0 1.6 1.7 1.9 0.3 2-0.7 1.9-1.3 1.6-0.5 3.1-1.5 2.4 0 2 0.7 3.5 1.3 3.4 3.2 1.2 0.7 2.4 0.5 2.8 2.5 4.2 6 2.3 5.8 1.1 1.5 1.7 0.5 3.4-1.1 1.1 0.2 1.4 1 1.9-0.1 1.8-0.9 2.2-1.9 0.9 0.1 1 0.3 0.9 0.1 3-1 5.8 0.2 1.8-0.6 1.8-1 1.4-0.6 1.5 0.1 2.9 1.1 0.6 0.1 0.5 0.4 0.4 2.3 0.4 0.7 0.6 0.7 0.7 0.6 1.9 0.8 1.9-0.1 3.9-0.8 1.7-0.7 1.6-1.1 1.6-0.8 2 0.2 1.5 1.1 0.7 1.5-0.2 1.8-1.1 1.8-1.4 1.3-2.8 1.8-1.2 1.8-1.5 1.4-1.9 0.2-3.5-0.2-4.6 2.5-1.9 0.4-6.4-0.2-1.9 0.7-1.1 1.2-0.8 1.8-0.3 2 0 1.9 0.9 4.3-0.3 1.5-2.7-0.8-0.5 0-0.4 0.1 0.8 2.3 1 2.1 0.4 0.5 0.1 0.4-0.1 0.5-0.4 0.4-0.7 0.6-0.5 0.7-0.2 0.9 0 1.1 1.2 3.2 5.9 9.4 5 4.5 2.2 2.6 0.7 3.3-0.2 0.4-0.5 1.1-1.1 1.4-0.9 1.4 0.3 1.8 1.3 0.9 3.5-0.1 1.4 1.2-0.4 2.9-1.9 3.4-1.3 3.2 1.9 2.2-0.7 1.3-1 0.6-1.1 0.2-2.3 0.8-1.7-0.5-0.9 0.1-2.5 1.5-1.3 1.3-1.4 0.4-2.8-1.2-1.2 0.1-0.9-0.4-1.9-1.3-1.4-0.5-0.6 0.3-1.3 2.1-0.1 0.5 0.3 1.4-0.2 0.5-0.5 0.3-1.3 0.1-0.6 0.2-1 1-0.4 1.3-0.1 1.5 0.3 1.5 0.8 2.9-0.2 2.1-0.8 2-0.7 2.7-1.4 1.9-2.4-0.9-1.1-0.5-1.6-0.9-2.2 0.1-0.6 2.1 0.2 2.8-0.4 2.8-2.6 1.7-2.6 0.3-1.1 0.5-0.9 1.3-0.3 1.3 0.2 2.2-0.3 1.3-2.5 2.9-0.7 1.8 1.3 1.6 0.8 0.4 0.8 0.6 0.7 0.9 0.3 0.9 0.3 1.1 0.4 0.7 0.5 0.6 0.4 0.7 0.3 2.1 0 2.1 0.3 1.9 1 1.4 0.3 0.8 0 1.2-0.3 1.1-0.3 0.7-0.6 0.2-2-0.7-6.3-0.5-2.8-0.7-3.1-1.7-3.6-1-0.4 3 0.8 4.5-0.1 3.3-0.5 0.9-0.5 0.8-0.6 0.7-0.6 0.6-4.8 1-0.9 1.5 2.8 9.1 1.2 2.4 1.7 1.3 1.8-1.5 2 0 1.9 1.2 1.4 2.2 0.5 2.5-0.2 2.7-1.2 5.3-0.5 1-1.2 2.1-0.2 1 0.4 1.3 0.7 0.9 0.5 1 0 1.2-0.9 1.3-3.7 3-1.3 1.4-2.3 2-1 2.4-0.8 2.8-1.4 3.1-0.7 0.8-0.9 0.6-2 0.9 1.9 2.7 2.1 1.1 2.4 0.2 2.7-0.4 0.2 0 0.2 0.1 0.1 0.1 8.2 14.9 1.2 1.3 1.4 1.2 1.2 1.3 0.7 1.9 0.4 2.2 0.6 1.9 0.9 1.8 1.2 1.8 1.4 1.4 4.3 3.1 0.4 0.8 0.3 0.8-0.1 3.9 0.7 0.8 1.6-0.4 1.5-1 2.6-2.6 1.7-0.7 4.4 0 2-0.5-0.4 3.3 1.7 1.7 1.9 1.3 0.6 2.4-1.1 1.7-4.3 2.7-1.4 1.8 1.5 1.4 2.7 0.6 2.8-0.3 1.7-1.7 0.4-0.2 0.5-0.1 0.5 0.1 0.1 0.1 0.3 0.1 0.3 0.2 0.3 0.2 3 3.9 1.1 1.9 0.7 2 0.3 2.3 0.1 1.8 0.4 1.6 3.1 2.9 3.6 5.2 2.9 2.3 1.3 1.3 0.8 1.9 0 1.1-0.5 2.1-0.1 0.9 0.4 1 1.1 0.7 0 1-0.6 1.4-1.3 1.5-2.4 2.5-2 1.4-1.4 0.3-1.6-0.1-2 0.2-1.8 1-0.1 1.3 1.3 1.1 4 0.5 1.7 0.7 1.3 1.2 0.5 1.5-0.6 1.9-1.3 1.4-1.5 1.2-1.2 1.3 2 4.4 5.3 0.7 10.8-1.3 9.7 3.1 9.1 4.3 2.6 2.6 8.5 4.9 0.3 0.2 4.2 3.4 6 3.7 3.8 4.3 27.5 24 2.9 2.2 2.8 1.5 2.9 0.6 3.2-0.4 1.6-0.6 4.2-2.3 1.3 0.1 5.2 1.8 1.9 1 1.2 1.4 1 1.6 1.5 2 2.5 1.9 0.5 0.8 0.1 1.2-0.3 0.7-0.5 0.6-0.8 2-0.4 0.4 0 0.6 0.6 1.4 0.4 0.7 2.8 2.6 0.4 0.5 0.3 0.7 1.7 2.2 0.5 0.6 0.9 0.5 0.5 1.3 1.8 1.4 0.5 1.4-0.2 1.5-0.5 1-0.5 1-0.4 1.2-0.1 1.5 0 0.8 0.7 0.5 1.4 0.4 1.2 0.8 0.7 1.1 0.8 0.9 1.4 0.2 1.8 0.7 0.2 0.3 1.3 1.9 2.1 4.7 1.4 1.6 3.2 1.6 0.9 1.9 0.4 1.9 3.3 5.9 0.6 0.9 1.7 1 0.7 0.7 0.5 1 0.4 1.9 0.4 0.8 1.4 1.6 3.6 2.7 1.3 1.9 0.2 2.3-0.5 2.5-13.9 37.9-0.2 18.3-0.4 25.8 30 0 1 0.6 0.3 1.4-0.3 51.2 0.1 3.2 9.7 1.4 1 0.4 1 0.6 1.5 1.6 1.2 2.1 0.8 2.3 0.7 4.7 0.5 1 0.7 0.8 1 0.4 1.1 0.2 1.1-0.1 3.3-0.5 1.2 0 1.1 0.4 0.8 0.7 1.9 3.1 2.9 3.4 3.6 3.3 0.6 0.8 0.4 1.1 0.2 1.2-0.2 1.1-0.7 0.9-0.9 0.8-0.7 0.9-0.2 1.1 0.2 0.8 1.1 2.4 1.9 2.1 0.5 1.1 0.2 0.2 1.7 5.2 0.2 1.4 0.8 2 0.4 0.7 0.6 0.6 1.3 1 1.3 0.9 2.9 0.8 0.6 0.3 0 0.5 2.2 0 0.4 1-1.1 1.3-2.4 0.6-10-1-7-2.4-3.2-2.5-3.2-1-5.1-3.2-4-1.4-4.2-0.8-3.9 0-3.5 0.9-6.3 3.5-0.7-2.8-0.3-3.2-0.6-2.9-1.5-2 1.1 3.4 0.1 1.3-0.2 1.4-0.4 1.3-0.1 1.1 0.7 0.9 0 2.5-19.8-10-5.3-1-23.6 0-5.2 0.7-14.7 6.1-4.8 3.2-3.1 4.5-7.8 19.9-3.4 6.3-0.4 1.5-0.4 3.1-0.2 1.1-1.8 3.9-6.8 11.4-2.7 7.1-1.4 2.1-5.8 6.4-5.8 9.7-13.7 15.4-2.6 2.9-4.1 0.9-3.9 0.8-1.6 0.4-2.4 0.5-4 0.8-9.7-0.8-6.9-0.7-7-0.6-6.9-0.6-7-0.7-9.3-0.8-9.4-0.8-9.4-0.9-9.3-0.8-9.4-0.9-9.4-0.8-9.3-0.9-9.4-0.8-7.3-0.7-7.2-0.7-7.3-0.6-7.3-0.7-8.3-0.7-0.6-0.3-0.6-0.2-0.6-0.2-0.6-0.3-7-5.6-8.7-7.1-8.7-7-8.7-7.1-8.7-7-10.5-8.5-10.4-8.5-10.5-8.5-6-4.9-4.5-3.6-10.4-8.5-10.5-8.5-10.5-8.6-10.4-8.5-8.1-6.6-8-6.5-8.1-6.6-8-6.6-9.7-7.9-6.9-6-1.8-1.5-8.6-7.6-8.7-7.5-8.6-7.6-7.8-6.7-7.7-6.7-7.7-6.7-7.7-6.7-6.1-5.2-8.1-4.9-8-4.8-8.1-4.7-8-4.8-8-4.8-8-4.8-8-4.7-8-4.8-8-4.8-8-4.8-8-4.8-8.1-4.8-8-4.8-8-4.8-8-4.8-8-4.8-8-4.8-9.4-5.6-5.1-3-4.9-1.9-31.2-6.1-7.3-1.2-18.1-3.1-18.1-3.1-18-3.1-18.1-3.1-0.2 0-0.3 0.1-0.3 0.1-0.2 0.1 0-0.8 10.9-9.4 2.4-3.4-1.9-7.3-1.4-3.3-1.9-1.1-17.3 4.8-0.9-0.6-0.7-1.6-4.4-15.5-0.1-0.2-0.1-0.2 0.1 0 0.1-0.1 7-2.2-6.1-22.7-4.3-15.9-4.2-15.5-3.1-11.5-3.8-14-4.3-15.6 10.1-6.1 10.1-6.1 10.1-6 10.1-6.1 10.1-6.1 10.1-6.1 10.1-6 10.1-6.1 10.1-6.1 10.1-6.1 10.1-6.1 10.1-6.1 6.6-4 3.5-2.1 10.1-6.1 10.1-6.2 10.1-6.1 13.4-8.1 22.5-6 2.6-1.8 2.1-2.9 3.3-7.3 15.7-30.5 0.8-2.7 0.2-2.9-0.8-19.5-0.5-18.4-0.1-2.6 0.9-6.8 3.8-13.8 0.8-11 0.8-3.3 0.1 0 4.3-6.5 3.1-4.7 1.4-3.4 0.5-3.5-0.4-15.5-0.4-3.7-1-3.6-7.1-15.4-2.3-5.5-0.4-2 0-1.9 3-28.4 0.7-3 8.1-15.8 1.8-2.6 2.7-1.2 5.9-1 28.4-6 2.5-1.2 2.4-2.1 12.3-13.2 18.2-19.6 9.5-10.1 5.8-5.6 2.9-2.2 0-1.7-0.6-1.3-0.6-1.1-0.6-1.4 4-0.5 5.3-1.7 7.8-1.3 1.5-0.7 0.3-0.6 1.1-3.1 11.5-16.8 0.3-0.9 0.2-0.8 0.1-0.8 0.6-0.9 0.6-0.4 4.5-1.9 0.8 0 1.1 0.1 0.8 0.6 0.4 2 0.8 0.6 7.6 2.5 3.6 0.5 3.9-1.3 2.4-1.8 3.5-1.5 3.6-1 2.9-0.2 1.5 0.4 12 6.5 0.7 0.2 0.7 0.1 0.8-0.1 0.9-0.9 0.8-0.4 1.7-0.2 1.1 0.2 2.4 1.9 1.2 0.9 3.8 1.9 4.2 3.5 1.5 0.6 1.2-0.1 2.2-0.9 1.2-0.2 1.1 0.2 0.8 0.4 1.6 1.3 2.4 0.9 2.2 0.3 9.3-0.6 2.4 0.2 2.2 0.5 0.9 0.7 1.9 1.9 0.7 0.4 1.2-0.3 1.6-1.7 4.9-0.9 2.8-3.2 2.7-3.9 3.3-2.9 4.2-0.7 3 0.6 1.8 0.2 8.8 3.7 2 1.4 1.5 1.5 1.1 2 0.8 2.6 0.4 2.5 0.1 1.5-0.1 1.1-0.7 1.3-0.9 0.4-1.1 0.2-1.2 0.7-1.5 2-0.8 2.3 0 2.5 0.7 2.3 3.6 8.4 0.6 1.2 0.8 0.7 3.8 0.9 1.2-0.1 0.8-0.8 0.9-1.9 1.4-2.5 0.3-1.8 0.8-1.2 7.7-2.6 2.4-1.3 2.3-1.8 2.2-2.8 3.3-3.1 3.5-2.6 3-1.4 1.7-0.1 9.6 1.4 1.8 0.9 1.1 2z" id="IQ" name="Iraq">
  </path>
 </g>
 <g id="points">
  <circle class="29.47875469035241|39.26374855521409" cx="97.8" cy="911" id="0">
  </circle>
  <circle class="32.8036990434121|44.15612058098439" cx="544.7" cy="556.1" id="1">
  </circle>
  <circle class="36.95987948473672|48.07001820160063" cx="902.2" cy="93.1" id="2">
  </circle>
 </g>
 <g id="label_points">
  <circle class="Iraq" cx="463" cy="524.5" id="IQ">
  </circle>
 </g>
</svg>