<?xml version="1.0"?>
    
<!--********* Copyright (c) 2024 Pareto Softare, LLC DBA Simplemaps.com ***************************************
************* Free for Commercial Use, full terms at  https://simplemaps.com/resources/svg-license ************
************* Attribution is appreciated! https://simplemaps.com *******************************************-->

<svg baseprofile="tiny" fill="#6f9c76" height="1000" stroke="#ffffff" stroke-linecap="round" stroke-linejoin="round" stroke-width=".5" version="1.2" viewbox="0 0 1000 1000" width="1000" xmlns="http://www.w3.org/2000/svg">
 <g id="features">
  <path d="M154.7 936.1l0-0.9 0.6-2.4-2.1 0.3-0.7-0.7 0-1.4-0.4-1.7 2.9-6.1 4.1-6.3 5-4.8 10.2-4.3 3.3-5.5 2.9-6.3 3.1-4.7-2.7-3.8 2.7-0.5 1.5 0.7 1.7 3.6 13.9-30.2 2.1-16.5-9.7-14.1 9.9-7.4 7-10.3 8.7-24.1 1.1-7.3 0.3-15 1.8-7.7 8.4-12.6 2.9-6.9-1.8-6.9 24-18.6 12.1-12.7 5.2-16.4 1-7.2 17.6-48.2-2.9-3.8 7.2-6.2 5.4-22.9 7.8-5-0.3-6.7 18.3-44.8 1.8-11 0.8-23.1 0.1-4-1.5-6.6-2.8-5.4-1.6-4.5 2.5-4.4 5-1.7 6.1 1 5.3 2.3 2.8 2.5 3.2 0 4.4-2.5 6.6 0.5 4.3 0.3 6.8-2.4 2.9-3.8 4.4-11.1 2.4-4.5 0.2-2.3-0.7-0.9-2.9-0.2 4-4.7 5.5-13.4 3.4-5.5 3-1.1 7.7-0.1 1.9-2.3-0.2-5.1-2.1-2.6-2.5-1.6-1.5-2.1-0.1-13.6 7.6-24.5 2-17.3-1.5-6.6-6.5-12.2-1.5-7.9 0-19.1 1.5-4.1 6.5-4.8 1.5-2.9 0.2-17.6 2.2-17.5 5.7-14.8 10.9-9.5 7.9 6.5 7.5-11.7 7-17.7 6.2-11.6 25.7-14.1 8-10.9-8.4-13.6 0-3.5 8.6 2.3 36.7-9.6 24.7-23.7 7.5-5.4 4.7-5 2.6-7.9 0.4-26.3-1.3-11.9-2.8-10-5-6.3 5.9-0.3 4 1.2 3.4 1.6 8.1 6.6 10.1 2.9 10.5 0.3 12.3-1.8 11.5 0.9 20.2 1.4 2-0.6 5.5-3.4 2.9-0.7 2.3 1 5.5 4.1 2.8 1 27.9-1.5 4.6-2.1 4.2-4.6 1.8-5.2 0.1-11 1.6-4.3 9.6-6.7 6.9 4.5 10.9 19.9 9.3 8.4 10.9 3.7 11.5-0.2 11.2-3.6-1.8 17.7-3.3 2.6-4.9-4-6.9-2-6.8 4.3-1 6.7 0.6 8.3-2.1 8.8-9 7.2-12.7 6.8-7.7 8.3 4.6 8.7 1.3 2.5 1.2 0.4 1.3 0.1 1.3-0.1 1.2-0.4 9-2.7 13.6-0.7 12.6 1.1 6.4 2.2 0 0.1 2.9 9.4 4.6 7.2 6.2 5.2 7.9 3.5 6.7 8.3 3.3 2.2 3.4-1.2 7.4 5.3 2.5 5-0.4 6.2-1.6 9.2-1.2 3.8-1.7 2.7-1.5 2.9-0.4 4.6 1.3 4.5 2.3 4.3 10 14.1 4.9 5.4 3.3 1.5 3.4-0.3 3 0.7 2.4 4.4-1 7.3-4.4 6.1-3.5 7.3 2.2 10.5 3 8 11.2 11.2 2.4 5.4 0.3 0.6-13 14.4-10.8 18.1-20.7 17.7-9 11.5-2.7 7.9-0.9 6.6-2.5 5.1-7.6 3.8-6.3 0.3-10-3.7-5.3-0.5-9.7 5-15.4 19.6-18.4 16.2-7.3 9-6.3 10-9.9 20.1 0.8 2.1 3 5.3 2.9 3.4 13.6 10.6 18.2 3.1 7.9 5 0.9 11.4-5.5 7.4-8.9 1.4-17.5-4.1-23.7-11.8-8.1-1.5-7 2.6-6.5 5.3-7.4 4.5-9.7 0.2-3.7-2.3-5.9-7.5-3-1.8-16.6 10.3-8 3.4-8.7 2.3-7.4 3.1-4.5 6-6.3 11.9-15.3 13.1-6.3 9.5-2.8 6.4-8.5 7.8-3.4 4.9-0.7 4.7 1.3 10.1-1.2 5.3-2.2 2.2-6 2.3-1.9 1.8-1.8 11.9 6.2 3.8 10.2 2 10.8 6 6.6 1.9 8.5 4.2 7.7 5.8 4.1 6.3-1.5 10.3-7.1 8.4-9.5 6.3-8.8 4.1-10.9-0.2-10.9 3.6-5.2 7.3 6.2 11.3-7.3 17.7-14.4 12.1-8.5 5.1-11.5 6.9-11.1 6.7-7.1 8.5-9.3 18.5-7.5 8.5-5.5 3.5-6.4 2.8-6.6 1.9-6.1 0.6-8.2 2.2-17.6 18.5-3.9 7-9.7 1.2-5.1 2.7-0.9 7.5-6.3 6.5-0.3 2.2 0 0.1-2.7-2.3-0.1 0-5.9-4.4-8.4-13.2-2.6-3.3-5.4 0.6-3.1 5.2-2.8 7.6-4.2 7.5-3.6 12.2-1.1 27.3-2.5 14-3.9 9.3-8.6 15.5-2.3 8.4-14.2 1.2-22.1 9.5-26.1 6.8-6.2-0.8-4.3-5.7-3.2-6.5-4.6-5.6-5.1-4.2-2.7-1.2-2.4-1.1-5.6 0-17.1 5.6-3.3-0.2-6.6-1.7-2.8-0.2-3 1.1-5.1 4-2 0.9-37-2.8z" id="LB" name="Lebanon">
  </path>
 </g>
 <g id="points">
  <circle class="33.137178622990504|35.174844066243175" cx="186.9" cy="909.5" id="0">
  </circle>
  <circle class="33.78996569261015|35.92708466415108" cx="534.8" cy="547.6" id="1">
  </circle>
  <circle class="34.605949529634714|36.52887714247741" cx="813.1" cy="91.3" id="2">
  </circle>
 </g>
 <g id="label_points">
  <circle class="Lebanon" cx="565.2" cy="356.1" id="LB">
  </circle>
 </g>
</svg>