<?xml version="1.0"?>
    
<!--********* Copyright (c) 2024 Pareto Softare, LLC DBA Simplemaps.com ***************************************
************* Free for Commercial Use, full terms at  https://simplemaps.com/resources/svg-license ************
************* Attribution is appreciated! https://simplemaps.com *******************************************-->

<svg baseprofile="tiny" fill="#6f9c76" height="839" stroke="#ffffff" stroke-linecap="round" stroke-linejoin="round" stroke-width=".5" version="1.2" viewbox="0 0 1000 839" width="1000" xmlns="http://www.w3.org/2000/svg">
 <g id="features">
  <path d="M102.4 678l2.1-7.8 0.3-0.5 0.9-1 0.1-0.6 0.1-1.1 0.2-1.1 0.3-1 0.9-1.9 0.2-1-0.1-1.6 0-0.7-1.4-4.1-0.7-3.9-0.8-0.7-1.3 0-5.1 0.5-0.5-0.2-0.1-1.7-0.1-0.5-1.4-1.3-4.4-1.5-1.8-0.9-2-1.9-1.6-2.3-1.1-2.6-0.3-2.7 3.1-17 0.9-2.8 0.2-1-0.1-0.8-0.3-0.3-0.4 0.8-0.7-0.5-2.2 0.4-3.5 1.1-0.6 0.5-0.3 0.2-0.3 0.1 1.4-6.1 0-0.7 0-0.6-0.2-0.7-3.9-12.3-1.8-2.9-0.1-0.7 1.2-1.8 2.7-6.4-0.7-0.7-5.6-2.1-6.7-4.5-1.6 2.3-1.7 1.7-2.1 1.2-2.6 0.7-2.1 0.3-2.3 0-2.2-0.4-1.9-1-1.1-1.1-2.1-4-1.5-1.9-0.2-0.6 0.1-0.3 0.9-1.8 1.3-4.1 4.5-8.5 1.5-2.2 1.9-1.8 0.9-0.5 5.9-2.4 0.8-0.6 5-5.3 2-2.6 0.4-2.3-0.6-1.2-2-2.4-0.7-1.3-0.2-1.1 0-3.2-0.8-2.1-3.5-3.3-0.9-2.1 0-1.3 0.1-0.8-0.2-0.9-0.9-1.1-1.2-1.2 0-0.5 1.3-2.2 4.5-5.6 0.5-0.7 1.3-1.3 1.6-1.1 8.5-4.1 1.1-0.7 2-1.9 1.2-0.7 1.5-0.3 1.2-0.5 0.8-0.9 0.1-1.7-0.4-1.7-0.4-1.1-1-0.6-3.1-0.6-0.9-0.5-0.6-0.8-0.5-1.2-0.2-0.7 0.1-0.4 0.5-1 0.2-0.2 0.7-0.3 0.3-0.3 0.1-0.4-0.2-0.4-0.3-0.2-0.2-0.4-0.7-6-0.4-0.8-1.7-1.2-1.3-2.1 1.1-2 2.2-1.6 2.3-1.2 10.8-2.9 0.6-0.4 0.3-0.8-0.1-0.5-0.9-1.8-0.3-1-0.4-3 0-1.5 0.4-0.8 2-1.4 1.1-1 0.3-0.9 0-1.1 0.3-1.3 0.7-1.2 4.8-5.1 1.1-0.9 1.2-0.7 1.9-0.7 0.4-0.6 2.4-4.4 0.4-1.3 0.7-6.5-0.1-1.9-0.5-1.7-1.2-1.6-1.1-1.3-0.9-1.4-0.4-1.7 0.4-1.7 1-1.3 4.2-2.6 3.5-4.3 1.4-1 1.4-0.1 2.5-0.4 8.4 1.8 4-0.4 7.1-2.6 3.6-0.8 6.2 0 6.6 1 6.3 2.2 1.4 0.1 0.7-1.7 0-0.1 0-3.2 0-13.1 0-13.1 0-13.1-0.1-13.1 0-13.1 0-13.2 0-13.2 0-13.1 0-13.2 0-13.3 0-13.2 0-13.2 0-13.3-0.1-13.3 0-13.3 0-13.3 0-7.2 0-7.2 0-7.2 0-7.2 8.7 0 4.7 0 6.1 0 7.2 0 6.8 0.1 6.6 0 7.9 0 5.4 0 0.1-0.1 0.2 0 0.1 0 0.1 0 0.1-0.1 0-0.1 0.1-0.1 0-0.4 0-6.4 0-5.5 0-5.5 0-5.5 0-5.5 0-7.2 0-7.2 0-7.2 0-7.2 0-7.3 0-7.2 0-7.2 0-7.3 0-7.2 0-7.3 0-7.3 0-7.2 5.3 0 5.3 0 5.3 0 5.2 0 5.3 0 5.3 0 5.2 0 5.3 0 5.3 0 5.2 0 5.3 0 5.3 0 5.2 0 5.3 0 5.3 0 5.2 0 5.3 0 5.3 0 5.2 0 5.3 0 5.3 0 5.2 0 5.3 0 5.3 0 5.2 0 5.3 0 5.3 0 5.3 0 5.2 0 5.3 0 5.3 0 5.2 0 5.3 0 5.3 0 5.2 0 5.3 0 5.3 0 5.2 0 5.3 0 5.3 0 5.2 0 5.3 0 5.3 0 5.3 0 5.2 0 5.3 0 5.3 0 5.2 0 5.3 0 5.3 0 5.2 0 5.3 0 5.3 0 5.2 0 5.3 0 5.3 0 5.2 0 5.3 0 5.3 0 5.2 0 5.3 0 5.3 0 5.3 0 5.2 0 2.1 0 0.7-0.4 2.7-5.5 0.2-0.4 2.4-5 1.4-1.5 1-0.6 1.1-0.2 1 0.2 1 0.5 1.2 1.2 0.5 1.3-0.1 1.4-1.3 3.8-1.7 5.2 3.2 0 1.5 0 5.5 0 5.6 0 5.5 0 5.6 0 5.5 0 5.5 0 5.6 0 5.5 0 5.6 0 4.4 0 1.1 0 5.5 0 5.6 0 5.5 0 5.6 0 5.5 0 5.5 0 0.1 0 1.1 0 6.6 5.4 7.4 5.9 6.4 5.3 0.2 0.1 16.5-2.4 7.2-1 4.6-13.3 0.3 0 12.6 0 12.6 0 12.6 0 12.6 0 12.6 0 12.6 0 12.6 0 12.6 0 12.6 0 12.6 0 12.6 0 12.6 0-0.1 0.8-0.2 0.3-0.2 0.1-0.9 0.1-0.9 0.4 1.3 1 0.5 0.7 0 7.1 1.2 8-0.4 1.6 0.7 0.5 0.2 0.7 0 0.7 0.4 0.7 0.6 0.6 0.4 0.5 2.9 7 7 10.9 4.6 4.5 5.8 7.4 0.4 0.9-0.1 1.2-0.4 1-0.7 0.4-1-0.4-1.1 0.8-1-0.8-1.5-2.6-0.4-0.5-0.4-0.7-0.1-0.7 0.4-0.2 0.7 0.2 0.3 0.4 0.3 0.6 0.3 0.5 1.3 1 0.7 0.3 0.5-0.3-0.2-0.4-1.3-1.6-0.8-2.2-0.6-0.8-0.9 0.2-1.5-1.1-0.4 0.6-0.5-0.1-0.3-0.6-0.2-0.7 0.1-0.7 0.4-0.7 0.1-0.7-0.6-0.7-1.5-0.3-0.9 0.9-0.3 1.6 0.1 1.4 0.3 0.3 0.6 0.1 0.2 0.3-0.2 0.7-0.2 0.5 0.2 1.5 0 0.7-0.2 0.6-0.6 0.6-0.5 0.2-0.4 0.3 0 0.9 0.3 0.5 1.6 1.9 1.4 3.4 0.7 3.6 0.5 7.7 0.8 3.6 2.4 6.9 0.1 3.7-0.1 0.9-0.3 1-0.6 0.5-1.6-0.2-0.2 0.7 0.2 1.7-0.4 4.1 0.4 2.4 0 0.8 1.3 3.4 0.4 2 0.3 1.9 0.3 2.8-0.8 2.2 0 0.4-0.2 0.6-0.7 0.8-0.2 0.6-0.1 1.5 0.4 2 3.5 9.1 0.3 1.9 0 3.8-0.1 1-0.3 0.6-0.9 1.3-0.2 0.9 0.4 3.5-0.1 1.1 0.1 0.4 0.2 0.6 0.9 1.5 1.1 3.2 2.1 12.2 0.5 6 0.2 0.6 0.4 0.4 0.5 0.3 0.4 0.4 0 0.4-0.3 0.8 0 0.4 1.3 1.8 0.6 2.9 1.1 3.7 0.8 2.3 0.4 3 0.8 1 1.1 2.2 1.3 2.2 1.8 1.7 0.3 0.6 0.4 0.6 0.7 0.4 0.6-0.2 0.6-0.4 0.4 0.1 3.3-0.5 1.8-0.8 0.2 1.1 1.2 0.6 1 0.2 1.1-0.1 0.4 0.7 0.1 0.9 0.9 0.8-0.4 2.2 0.8-0.4 0.6-0.2 0.6 0.5 0.9 0.9 6.1 1.7 2.3 2.2 1.5 2.6 2.3 2.3 1.5 1 2.4 0.9 0.7 0.8-0.7 1-1.5 0.8-0.3 1.9 1.5 3.3 2.6 2.4 2.9 0.7 2.1-0.4 0.4-2.1 1-0.3 1.9-1.2 0.4 0.6-0.5 0.5-0.8 0.4-0.5 0.4-0.1 0.5 0.1 0.6-0.2 0.7-0.6 0.6-0.8 0.3-0.8-0.1-0.6 0.1-0.4 0.5 0.7 0 1.9-0.4 0.7 0.2 0.5 0.3 0.5 0.3 0.5 0.4 0.7 0.1 1.6 0.2 0.7 0.3 0.8 0.1 0.6-0.2 0.1-0.5-0.7-0.4 0.8-0.8 1.1 1.1 1.7 2.8-0.5 0.8 0.9 0.5 1.4 0.1 0.9-0.6 0.5 0.9 0.2 2.3 0.4 0.7 1.1 0.2 0.5-0.9-0.1-1.3-0.8-1.1 0.9 0.5 2.3 2.4 0.4 0.9-0.1 0.9 0.2 0.5 0.5 1.3-0.1 0.5-7.7 6.5-1.5 2.2-3.2 8.7-1.5 2.4-1.1 0.9-2.7 1.3-1 0.9-0.2 1.1 0 1.2-0.1 1.1-0.9 0.9-1.3 0.2-0.9-0.6-0.9-0.8-0.8-0.6-2 0.7-0.3 0-0.2 0.5 0 0.4 0.2 0.4 0 0.6-0.6 1-0.9 0.8-0.8 0-0.3-1.2 0.1-1.1-0.1-1-0.5-0.5-1.2 0-1.3 0.4-0.1 0.1-3.6 2.4-1.7 2.2-1.1 0.9-1.3 0.3-1.2-0.4-1.6-1.6-1.1-0.3-1.9 1-2.4 4.3-2.2 1.1-2.2 0.4-7.1 2.2-0.6 0.4-0.2 0.6 0.6 2.6 0.1 1-0.3 2.4-0.3 1.1-1.2 2.2-0.2 1.2-0.5 1.2-3 3.6-5.1-1.4-1.6 0.1-2.5 1.6-1.7 0.1-0.8-0.1-2.9 0.5-0.6-0.1-2-1.3-0.6-0.2-1.4-0.2-1-0.4-0.8-0.6-0.8-0.4-1.1 0.2-0.4 0.4-0.1 0.5 0.1 0.5 1.1 1.5 0.2 1.1-0.3 1.1-1.3 1.9 0.2 0.6 0.6 0.5 0.4 0.7 0.2 0.7-0.1 2.3 0 0.2 0.3 0.5 0.1 0.4-0.1 0.2-0.4 0.5-0.1 0.2-0.2 3.4-1.3 3.4-0.6 0.8-1.8 1.3-0.8 0.7-0.5 1.1-0.1 1 0.1 1.8-0.2 1.1-0.6 2.3-0.1 0.7 0.4 1.3 0.7 1 0.9 0.9 0.7 1.1 0.1 0.1 0.3 1 0 1-0.2 1-0.1 1.2 0.3 1.2 1 2.3 0.2 1.2-0.6 1.4-2.3 2.4-0.8 1.5-1.8 5.1-2.5 7-2.6 7.4-1.4 2.4-2.7 2.8-0.7 1.3-2.9 10.7-0.2 2.4 0.8 2.5-1.8 1.2-1 1.7-2.8 8.2-1 1.5-4 3.9-0.4 1-0.1 1.2 0.7 5.3 1.1 9.4 0.3 3.1 0.7 5.4 0.8 7.1 0.8 6.9 1.2 10.3-4.9 15.2-0.2 1.2 0 1.4 0.3 1.3 0.9 2.8 0.2 2.8-1 2.5-2.2 5.5-0.2 1.2-0.2 3.1-0.5 1.6-8.1 11.6-5.2 18.3 0.1 1.1 0.4 0.9 0.2 0.5 0 0.4-0.5 0.9-0.8 0.8-0.6 0.9 0 1.3 1.3 2.2 0.2 0.8 0.1 1.3-1.1 6.2-0.5 1.1-0.8 0.3-1.5-0.4-0.5-0.2-0.3-0.3-0.4-0.2-0.6-0.1-0.5 0.1-16.3 2.3-1.4 0.5-0.1 0-0.7 0.4-0.2 0.1 0 0.3-0.4 1.5 0 0.5-0.2 0.6-0.6 0.6-0.4 0.2-1.1 0.1-0.5 0.2-0.4 0.5-10.2 17.1-0.6 1.6-0.1 1.5-0.2 0.7-0.5 0.7-0.6 0.5-1.1 0.6-0.6 0.5-0.4 0.6-0.9 2.4-0.6 3.1-0.5 1.3-1 1.2-2 1.2-0.5 0.5-0.2 0.5 0 0.2 0 1-0.1 0.6-1.7 1.8-3.6 1.4-1.2 0.5-2.1 1.3-0.8 1.1-0.7 1.3-0.6 1.3-0.4 1.4 0 1.1 0.4 2.1-0.1 2.2 0.4 1.2 1.1 2.2 0.1 1-0.2 1.1-6.8 15.2-0.2 1.2 0.6 1.5 0.9 1 0.7 1.2-0.2 1.7-3.6 10.5 0 0.6 0.5 0.7 1.6 1.2 0.3 0.9-0.4 1.8-0.9 1.4-2.9 2.2-1 0.9-0.3 0.7 0 0.7-0.3 0.9-0.7 1-0.6 0-0.6-0.2-0.9 0.1-0.7 0.6-0.7 1.7-0.5 0.5-0.5-0.3-0.1-0.8 0.2-1.6-0.3-0.9-0.7-0.6-1.6-1-6.6-5.8-0.7-0.3-0.9 0.4-6.5 4.5-0.9 0.8-0.9 1.2-2.1 4.1-4.6 6.6-0.5 1.9 0.3 2.3 2.6 12.1 0.1 2.5-0.5 2.3-0.2 0.3-0.5 0.6-0.1 0.3 0 0.6 0.1 1.3 0 0.6-1.3 1.9-3.2 3-6.6 19-1.7 8.1 0.2 4.2-9.2 0-0.2-0.1-0.2-0.1-0.1-0.3-0.2-0.3-0.4-1.6-0.2-2.4 0.4-4.2 1.1-5 3.5-7 0.1-0.6 0.1-0.3 0-0.4-0.3-1.3-0.4-1-0.2-1.7 0.6-3.6 0-1.2-0.1-1.4-0.2-0.9-2.5-6.1-0.8-1-11.7-9.7-11.7-9.6-4.3-5.3-0.5-0.3-0.5-0.3-11.9-4.4-0.6-0.5 0.1-0.6 0.3-0.9 1.5-2.5 0.2-0.7 0.2-1-2.7-20.5-2.7-20.4 0-0.8 0.3-0.6 0.2-0.3 0.7-0.9 0.6-0.9 0.7-1.6 0.2-0.6 0.7-7.3 0-6.4 3.1-10.7 0.3-4.6-25.8-0.3-0.2 0.3 0 0.2 0.1 0.4 0 0.3 0 0.7-0.2 1.4-0.1 0.7 0.1 0.7 0.4 2.5 0.6 2 0.1 0.6 0.1 0.7-0.1 1.3-18 0.1-18 0.1 14.3 16.1 0.1 0.3 0.3 0.9 0.1 0.6 0.3 5.7-0.8 8.9 0.2 5.8 0.8 3.7 3.8 7.3-0.2 1.4-0.9 1.7-12.8 10.9-12.7 10.9-0.7 1-3.6 9.1-3.3 5.3-1.5 1.5-6 7.4-11.6 11.6-11.6 11.6-3.9 1.6-11.5 0.6-0.1 0-6.1 0.2-0.7 0.1-1 0.4-0.7 0.6-0.7 0.5-0.8-0.3-0.8-0.6-14.4-13-12.7-8.2-12.8-8.2-2.4 1.5-14.5 7.1-3 1.8-1.6 1.3-0.1 7.9-2.5 4-4.6 4.4-12.5 2.8-6.5 2.3-6.6 3.6-1.1 0.9-4.1 3.2-3.5 3.4-1.1 2.1-0.1 2.4 0.3 1.9 0.6 1.4-21.6-0.2-21.6-0.2-2.6-2.9-5.5-11.6-0.6 0.2-0.9 0.2-5.3 0.3-7-1-0.3 0-1.1 0.3-0.3 0-4.4-0.5-7.7 0-2.5-0.4-14 0.3-20.9 7.1-0.6 0.1-3.1-0.3-1.4-0.6-2.4-1.6-10.2-12-10.2-12.1-4.2-1.5 0-0.1-0.7-0.8-0.7-0.8-3.2-5.3-0.3-0.5-0.2-0.1-0.4-0.3-0.1-0.1-1.5-0.4-0.8-0.4-2-1.1-0.4-0.4-0.3-0.4-0.2-0.2-0.1-0.3-0.3-8.5-0.1-0.3-0.1-0.3-0.3-0.4-2.3-3-0.2-0.1-0.6 0-2.4 0.7-1.1 0.5-0.5 0.1-0.5 0.1-2.1-0.1-0.3 0.1-0.9 0.2-1.2 0.2-1.8 0-0.3 0.1-2.3 0.5-4 1.5-0.2 0-0.7 0.2-0.6 0.1-2.2-0.1-0.6 0.1-0.6 0.1-0.8 0.3-0.5 0.2-0.6 0.2-0.6 0-0.4 0-0.6 0.1-0.3 0.1-1 0.5-0.3 0-0.3 0-0.6-0.1-0.3 0.1-0.5 0.2-0.3 0-0.4 0-0.3 0-0.3-0.1-0.5-0.3-0.3-0.1-0.7-0.1-0.3 0.1-0.4 0.1-0.5 0.2-0.4 0-0.6-0.1-0.3 0-1.3 0.5-0.6 0.1-1.4-0.1-0.6 0.2-0.8 0.3-0.9 0.2-0.3 0.2-0.4 0.3-0.5 0.7-2.7 5.9-0.2 0.5 0 0.5 0.1 0.6 0.1 0.3 0.4 1 0.2 0.6 0 0.3 0 0.3 0 0.4-0.6 1.6-1.4 2.9-0.4 1-0.4 1-0.5 0.6-0.7 0.8-1.5 2-0.7 0.8-1.9 1.1-1.8 1.6-0.5 0.3-0.5 0.2-0.6 0.1-0.5 0-0.2 0.1-0.2 0.2-0.2 0.3-0.2 1.2 0.1 14.6-0.1 0.6-0.4 1.3-3.3 3.7-1.6 1.5-0.4 0.6-0.4 1-1 10.5-0.1 0.3-0.2 0.5-4.9 8.4-0.3 0.8 0 0.3 0 5.9-0.3 0.3-0.6 0.3-2.6 0.9-5 0.6-1.2 0.2-5.9 3.8-1.6 0.7-3.2 2.4-0.3 0.5-0.1 0.7-0.2 0.4-3.1 0.4-5.6-0.9-1.6 0.2-1-0.1-2.2-0.9-3 0.3-3.4-0.8-1.9 0-1.7 0.8-0.9 0.3-1.7-0.5-1.7 0.1-0.7-0.3-0.8-0.6-0.9-0.4-0.9-0.1-1 0.2-0.8 0.5-1.2 0.9-0.8 0.2-1.2-0.5-0.8-1.2-0.4-1.4 0-1.4 0.7-1.4 2.3-2.5 0.9-1.5 0.6-3.1 0.1-1.9-0.4-1.2-0.9-0.1-2 2-1.5 0.1-1.5-0.8-0.7-1.1-0.1-1.4 1.2-6.9 0.3-0.5 0.6-0.9 0.8-0.3 1.7 0.1 0.9-0.2 0.6-0.4 1.2-1.2 2.1-2.6 0.7-0.6 0.5-0.6-0.1-0.8-0.5-1.7 0.1-1 1.3-4.3 0-0.3-0.3-0.5-0.3-0.1-0.4 0-0.4-0.7-0.2-0.5 0.1-1.7-0.1-0.7-0.6-1.4 0-0.6 0.7-1.6 2-3.1 0.7-1.6 0.3-2.1-1.6-9.5-1.1-2.4-9-14.7-9-14.6-9.9-9.6-5.6-4-7.7-11.3-0.1-1.5z m779.7-560l0.5 0.4 0.2 0.1 0.3 0.8-0.7 3.8-0.4 1-0.5 0-0.6-1.3 0-1.9 0.4-1.7 0.8-1.2z" id="SD" name="Sudan">
  </path>
 </g>
 <g id="points">
  <circle class="9.358907947331252|22.64916884593053" cx="90.9" cy="763.8" id="0">
  </circle>
  <circle class="14.777037181917299|31.046370382709302" cx="545.5" cy="463.8" id="1">
  </circle>
  <circle class="21.549698725149856|37.764131612132324" cx="909.1" cy="77.6" id="2">
  </circle>
 </g>
 <g id="label_points">
  <circle class="Sudan" cx="448.8" cy="376.5" id="SD">
  </circle>
 </g>
</svg>