<?xml version="1.0" encoding="UTF-8" standalone="no"?>
<svg
   xmlns:dc="http://purl.org/dc/elements/1.1/"
   xmlns:cc="http://creativecommons.org/ns#"
   xmlns:rdf="http://www.w3.org/1999/02/22-rdf-syntax-ns#"
   xmlns:svg="http://www.w3.org/2000/svg"
   xmlns="http://www.w3.org/2000/svg"
   xmlns:xlink="http://www.w3.org/1999/xlink"
   xmlns:sodipodi="http://sodipodi.sourceforge.net/DTD/sodipodi-0.dtd"
   xmlns:inkscape="http://www.inkscape.org/namespaces/inkscape"
   width="500"
   height="500"
   version="1.1"
   id="svg58"
   sodipodi:docname="Egypt R.svg"
   inkscape:version="0.92.4 (5da689c313, 2019-01-14)">
  <metadata
     id="metadata64">
    <rdf:RDF>
      <cc:Work
         rdf:about="">
        <dc:format>image/svg+xml</dc:format>
        <dc:type
           rdf:resource="http://purl.org/dc/dcmitype/StillImage" />
        <dc:title></dc:title>
      </cc:Work>
    </rdf:RDF>
  </metadata>
  <defs
     id="defs62">
    <clipPath
       clipPathUnits="userSpaceOnUse"
       id="clipPath907">
      <circle
         style="opacity:1;fill:#000092;fill-opacity:0.47738695;stroke-width:1.59722257"
         id="circle909"
         cx="375"
         cy="350"
         r="250" />
    </clipPath>
  </defs>
  <sodipodi:namedview
     pagecolor="#ffffff"
     bordercolor="#666666"
     borderopacity="1"
     objecttolerance="10"
     gridtolerance="10"
     guidetolerance="10"
     inkscape:pageopacity="0"
     inkscape:pageshadow="2"
     inkscape:window-width="1366"
     inkscape:window-height="705"
     id="namedview60"
     showgrid="false"
     fit-margin-top="0"
     fit-margin-left="0"
     fit-margin-right="0"
     fit-margin-bottom="0"
     inkscape:zoom="0.31555556"
     inkscape:cx="325"
     inkscape:cy="301.5845"
     inkscape:window-x="-8"
     inkscape:window-y="-8"
     inkscape:window-maximized="1"
     inkscape:current-layer="svg58" />
  <g
     id="g905"
     transform="translate(-125,-100)"
     clip-path="url(#clipPath907)">
    <path
       style="stroke-width:0.83333331"
       inkscape:connector-curvature="0"
       id="path2"
       d="M 0,100 H 750 V 600 H 0 Z" />
    <path
       style="fill:#ffffff;stroke-width:0.83333331"
       inkscape:connector-curvature="0"
       id="path4"
       d="M 0,100 H 750 V 433.33333 H 0 Z" />
    <path
       style="fill:#ce1126;stroke-width:0.83333331"
       inkscape:connector-curvature="0"
       id="path6"
       d="M 0,100 H 750 V 266.66667 H 0 Z" />
    <g
       style="fill:#ffffff;stroke:#c09300"
       transform="matrix(0.83333333,0,0,0.83333333,0,100)"
       id="g56">
      <path
         style="stroke-width:1.26999998;stroke-linejoin:round"
         inkscape:connector-curvature="0"
         id="path8"
         d="m 450.8,302.4 68.488,63.58 -4.876,-115.47 c -0.716,-17.5 -15.924,-13.485 -26.97,-7.172 -11.19,7.172 -23.958,7.172 -37.446,2.437 -13.485,4.735 -26.253,4.735 -37.444,-2.437 -11.046,-6.312 -26.252,-10.328 -26.97,7.172 l -4.88,115.47 z" />
      <path
         style="fill:#c09300;stroke:none"
         inkscape:connector-curvature="0"
         id="A"
         d="m 393.47,246.5 -4.734,112.32 -8.035,7.168 4.878,-115.47 c 2.295,-1.578 6.313,-4.017 7.9,-4.017 z m 9.63,8.03 -4.017,93.955 -8.032,8.22 4.877,-108.5 c 1.58,1.577 6.314,5.45 7.172,6.3 z m 8.74,7.17 -3.154,78.362 -6.456,6.3 4.018,-89.405 c 1.575,1.578 4.73,3.873 5.592,4.733 z m 9.46,4.02 -3.156,66.787 -6.313,5.12 3.156,-74.344 c 1.58,0.716 4.735,2.438 6.313,2.438 z m 8.76,0 -2.297,55.657 -6.454,6.313 2.44,-61.252 c 1.576,-10e-4 5.594,-10e-4 6.313,-0.718 z" />
      <use
         height="100%"
         width="100%"
         y="0"
         x="0"
         id="use11"
         transform="matrix(-1,0,0,1,900,0)"
         xlink:href="#A" />
      <path
         style="fill:#c09300;stroke-width:1.074"
         inkscape:connector-curvature="0"
         id="path13"
         d="m 453.16,315.06 9.613,43.755 -3.158,3.155 -3.3,-2.44 -5.452,-39.018 2.296,39.018 -3.157,4.016 -3.156,-4.016 2.296,-39.018 -5.45,39.018 -3.302,2.44 -3.154,-3.155 9.61,-43.755 z" />
      <g
         style="fill:none;stroke-width:1.27100003;stroke-linejoin:round"
         id="B">
        <path
           style="fill:#ffffff;stroke-width:1.18900001"
           inkscape:connector-curvature="0"
           id="path15"
           d="m 428.48,295.84 -19.08,67.705 26.255,4.018 11.188,-50.924 -18.363,-20.8 z" />
        <path
           inkscape:connector-curvature="0"
           id="path17"
           d="m 422.17,318.94 2.296,5.593 12.405,-11.848" />
        <path
           inkscape:connector-curvature="0"
           id="path19"
           d="m 430.76,304.92 2.596,24.346 7.9,-10.328" />
        <path
           inkscape:connector-curvature="0"
           id="path21"
           d="m 438.1,322.95 4.3,14.875" />
        <path
           inkscape:connector-curvature="0"
           id="path23"
           d="m 444.1,332.36 -8.718,13.24 m 2.72,13.216 -2.8,-13.198 -2.436,-13.423 -5.84,7.9 -2.56,-9.12 -8.175,8.385 4.158,15.25 5.738,-9.435 3.156,9.612 5.9,-9.162 M 415,361.97 l 5.3,-7.444 3.453,11.457 4.734,-8.032 3.158,9.614" />
      </g>
      <use
         height="100%"
         width="100%"
         y="0"
         x="0"
         id="use26"
         transform="matrix(-1,0,0,1,900,0)"
         xlink:href="#B" />
      <g
         style="stroke-width:1.27100003;stroke-linejoin:round"
         id="g38">
        <path
           style="stroke-width:2.37800002"
           inkscape:connector-curvature="0"
           id="path28"
           d="m 450,393.8 c 19.943,0 39.024,-1.578 50.213,-4.734 4.735,-0.86 4.735,-3.298 4.735,-6.455 4.735,-1.578 2.295,-7.17 5.594,-7.17 -3.3,0.862 -4.016,-5.594 -8.033,-4.732 0,-5.596 -5.595,-6.313 -10.33,-4.738 -9.47,3.158 -26.255,3.875 -42.18,3.875 -15.924,-0.718 -32.567,-0.718 -42.18,-3.875 -4.734,-1.575 -10.327,-0.86 -10.327,4.738 -4.018,-0.862 -4.735,5.594 -8.034,4.732 3.3,0 0.86,5.593 5.594,7.17 0,3.158 0,5.596 4.878,6.455 11.045,3.156 30.128,4.734 50.068,4.734 z" />
        <path
           inkscape:connector-curvature="0"
           id="path30"
           d="m 422.9,363.54 c 6.454,0.86 13.628,1.578 19.225,0.86 3.153,0 5.45,5.45 -0.863,6.313 -5.593,0.715 -14.345,0 -19.08,-0.862 -4.017,-0.718 -12.768,-2.295 -18.364,-3.875 -5.595,-2.436 -1.576,-7.168 1.577,-6.452 4.88,1.577 11.192,3.156 17.505,4.016 z m 54.22,0 c -6.457,0.86 -13.628,1.578 -19.08,0.86 -3.3,0 -5.596,5.45 0.717,6.313 5.596,0.715 14.347,0 19.078,-0.862 4.02,-0.718 12.77,-2.295 18.364,-3.875 5.597,-2.436 1.58,-7.168 -1.577,-6.452 -4.878,1.577 -11.2,3.156 -17.5,4.016 z" />
        <path
           inkscape:connector-curvature="0"
           id="path32"
           d="m 403.1,360.4 c -4.877,-0.86 -7.172,4.732 -5.593,7.887 0.716,-1.578 4.016,-1.578 4.735,-3.155 0.858,-2.437 -0.718,-2.437 0.858,-4.732 z m 19.07,14.66 c 0,-3.153 3.154,-2.765 3.154,-5.92 0,-1.577 -0.86,-4.017 -2.437,-4.017 -1.577,0 -3.157,1.578 -3.157,3.155 -0.718,3.157 2.44,3.63 2.44,6.783 z m 22.7,-9.08 c 4.73,0 4.262,6.314 1.966,9.47 0,-2.295 -4.016,-3.156 -4.016,-4.732 0,-2.442 3.626,-2.442 2.05,-4.738 z m 52.02,-5.58 c 4.878,-0.86 7.174,4.732 5.595,7.887 -0.718,-1.578 -4.017,-1.578 -4.734,-3.155 -0.86,-2.437 0.718,-2.437 -0.86,-4.732 z m -19.06,14.66 c 0,-3.153 -3.153,-2.765 -3.153,-5.92 0,-1.577 0.86,-4.017 2.438,-4.017 1.578,0 3.156,1.578 3.156,3.155 0.718,3.157 -2.44,3.63 -2.44,6.783 z m -22.7,-9.08 c -4.732,0 -4.263,6.314 -1.967,9.47 0,-2.295 4.016,-3.156 4.016,-4.732 0.001,-2.442 -3.626,-2.442 -2.048,-4.738 z" />
        <path
           style="stroke-width:0.89200002"
           inkscape:connector-curvature="0"
           id="path34"
           d="m 404.67,361.97 c 1.58,0 4.018,0.718 4.735,1.577 l -4.74,-1.58 z m 7.88,2.43 c 0.862,0 4.018,0.716 5.596,1.575 l -5.6,-1.58 z m 28.7,3.16 c -1.578,0 -4.734,0 -5.593,0.715 l 5.6,-0.72 z m -8.75,0 c -0.86,-0.862 -4.017,-0.862 -5.594,0 h 5.6 z m 62.84,-5.6 c -1.578,0 -3.875,0.718 -4.735,1.577 z m -7.9,2.43 c -0.86,0 -4.017,0.716 -5.595,1.575 l 5.6,-1.58 z m -28.7,3.16 c 1.58,0 4.735,0 5.595,0.715 l -5.6,-0.72 z m 8.75,0 c 0.86,-0.862 4.018,-0.862 5.595,0 h -5.6 z" />
        <path
           style="fill:#c09300;stroke:none"
           inkscape:connector-curvature="0"
           id="path36"
           d="m 403.34,374.58 c -0.534,-0.102 -0.815,-0.525 -0.68,-1.025 0.164,-0.6 0.652,-0.957 1.113,-0.794 0.293,0.104 0.83,0.645 0.832,0.84 0.003,0.223 -0.28,0.753 -0.403,0.754 -0.053,10e-4 -0.134,0.046 -0.18,0.102 -0.1,0.118 -0.413,0.175 -0.68,0.124 z m 54.93,3.92 c -0.2,-0.074 -0.515,-0.52 -0.515,-0.724 0.002,-0.387 0.574,-1.018 0.93,-1.02 0.175,-10e-4 0.655,0.248 0.834,0.435 0.325,0.338 0.254,0.893 -0.154,1.208 -0.2,0.155 -0.8,0.2 -1.094,0.103 z m 0.36,2.48 c -0.42,-0.142 -0.574,-0.348 -0.608,-0.814 -0.036,-0.485 0.012,-0.56 0.525,-0.84 l 0.366,-0.2 0.346,0.155 c 0.48,0.214 0.693,0.445 0.7,0.767 0.018,0.348 -0.24,0.703 -0.64,0.883 -0.352,0.158 -0.373,0.16 -0.7,0.05 z M 407.75,370.1 c -0.346,-0.01 -0.82,0.307 -1.094,0.47 -0.65,0.152 -1.405,0.55 -2.03,0.125 -0.617,-0.2 -1.438,-0.04 -1.53,0.72 0.158,0.652 1.072,1.024 1.625,0.594 0.4,-0.538 1.53,-0.853 1.656,0.063 -0.457,0.692 -0.405,1.6 -0.78,2.344 -0.06,0.458 -0.252,0.892 -0.5,1.28 -0.462,0.046 -0.954,-0.008 -1.344,0.28 -0.626,0.034 -1.265,0.345 -1.625,0.875 -0.403,0.578 -0.8,1.165 -0.906,1.875 0.107,0.725 0.938,0.933 1.563,0.97 l 2,0.625 3.188,0.875 c 1.584,0.478 3.248,0.697 4.844,1.125 0.167,0.056 0.324,0.104 0.5,0.125 0.662,0.138 1.008,-0.583 1.063,-1.125 l 0.906,-3.5 c 0.225,-0.466 0.496,-1.517 -0.406,-1.28 -0.515,0.3 -0.952,0.773 -1.594,0.813 -0.874,0.05 -0.375,0.945 -0.03,1.313 a 2.38,2.38 0 0 1 -0.5,1.75 c -0.52,0.33 -1.172,-0.056 -1.72,-0.187 -0.575,0.01 -1.723,-0.283 -1.187,-1.062 0.2,-0.577 0.207,-1.208 0.438,-1.78 0.294,-0.615 0.336,-1.285 0.47,-1.937 -0.36,-0.777 -0.98,0.256 -1.47,0.344 -0.338,0.235 -1.605,0.334 -0.937,0.938 0.575,0.437 0.134,1.197 0.03,1.75 -0.037,0.77 -0.838,0.954 -1.47,0.78 -0.628,-0.03 -1.5,-0.497 -0.97,-1.187 l 0.438,-1.72 0.688,-2.062 c 0.1,-0.62 0.33,-1.208 0.625,-1.75 0.017,-0.685 0.478,-1.275 0.47,-1.97 -0.047,-0.34 -0.2,-0.462 -0.406,-0.47 z m -3.594,7.25 c 0.082,-0.014 0.14,-0.002 0.22,0.03 0.25,0.106 0.257,0.3 0,0.53 -0.112,0.097 -0.24,0.2 -0.28,0.188 -0.468,-0.04 -0.606,-0.1 -0.625,-0.28 -0.017,-0.15 0.03,-0.195 0.344,-0.344 0.156,-0.074 0.262,-0.1 0.344,-0.125 z m -1.036,5 c -0.496,-0.466 -0.416,-0.806 0.317,-1.353 0.314,-0.234 0.504,-0.207 0.863,0.12 0.552,0.504 0.574,0.823 0.087,1.255 -0.24,0.213 -0.346,0.257 -0.627,0.26 -0.293,0.003 -0.377,-0.033 -0.64,-0.282 z m 3.05,0.92 a 0.86,0.86 0 0 1 -0.623,-1.088 c 0.13,-0.435 0.203,-0.477 0.84,-0.484 0.715,-0.007 0.854,0.112 0.86,0.742 0.004,0.354 -0.024,0.437 -0.2,0.6 a 1.08,1.08 0 0 1 -0.878,0.23 z m 89.1,0.08 c -0.227,-0.2 -0.273,-0.274 -0.275,-0.515 -0.003,-0.4 0.233,-0.712 0.746,-0.944 0.682,-0.3 0.96,-0.266 1.217,0.186 0.342,0.6 0.325,0.847 -0.084,1.252 -0.226,0.224 -0.268,0.237 -0.785,0.242 -0.508,0.003 -0.566,-0.01 -0.82,-0.22 z m -85.06,1.14 c -0.364,-0.097 -0.553,-0.37 -0.557,-0.807 -0.004,-0.334 0.02,-0.387 0.254,-0.57 a 1.34,1.34 0 0 1 0.579,-0.245 0.64,0.64 0 0 1 0.579,0.138 c 0.55,0.387 0.667,0.77 0.35,1.14 -0.34,0.396 -0.66,0.488 -1.203,0.343 z m 21.93,1 c -0.08,-0.1 -0.26,-0.16 -0.277,-0.287 0.032,-0.555 0.058,-1.117 0.235,-1.648 0.096,-0.523 0.012,-1.07 0.194,-1.58 0.187,-0.927 0.187,-1.883 0.402,-2.804 0.01,-0.474 0.055,-0.95 0.192,-1.405 0.158,-0.722 0.014,-1.476 0.226,-2.2 -0.023,-0.268 0.286,-0.983 0.557,-0.56 0.393,0.576 0.9,1.045 1.42,1.515 0.438,0.253 0.036,0.624 -0.267,0.75 -0.415,0.164 -0.516,0.62 -0.487,1.022 -0.058,0.415 -0.225,0.807 -0.242,1.23 -0.088,0.622 -0.07,1.255 -0.152,1.877 -0.182,0.6 -0.112,1.26 -0.173,1.887 0.008,0.4 -0.18,0.76 -0.155,1.16 -0.048,0.406 -0.067,0.894 -0.407,1.172 -0.33,0.166 -0.804,0.137 -1.068,-0.142 z m 29.7,-9.8 c -0.482,0.365 -0.914,0.795 -1.344,1.22 -0.593,0.45 0.487,0.7 0.625,1.094 0.157,0.586 0.148,1.2 0.188,1.813 a 4.59,4.59 0 0 1 0.22,1.72 c -0.052,0.622 -0.863,0.5 -1.22,0.844 -0.492,0.207 -0.688,0.7 -1.062,1.03 -0.246,0.483 -0.312,1.076 -0.344,1.625 0.035,0.448 -0.302,0.95 0,1.344 l 0.125,0.188 c 0.1,0.145 0.342,0.03 0.5,0.063 0.504,-0.028 1.03,0.047 1.5,-0.156 1.2,-0.2 2.43,-0.226 3.656,-0.28 0.75,0.024 1.47,-0.237 2.22,-0.22 0.587,0.13 0.85,-0.506 0.844,-0.97 -0.332,-0.654 -0.045,-1.43 -0.312,-2.094 -0.235,-0.672 -0.142,-1.428 -0.25,-2.125 -0.015,-0.548 -0.7,-0.752 -1.062,-0.344 -0.34,0.345 -0.893,0.414 -1.156,0.844 -0.297,0.602 0.627,0.603 0.78,1.063 0.176,0.464 0.118,0.98 0.156,1.47 0.114,0.592 -0.53,0.626 -0.937,0.688 -0.537,0.2 -1.3,0.336 -1.594,-0.312 -0.2,-0.48 -0.165,-0.993 -0.22,-1.5 -0.013,-0.892 -0.228,-1.768 -0.28,-2.656 l -0.312,-3.28 c -0.01,-0.455 -0.07,-1.198 -0.72,-1.062 z m -0.625,8.25 0.313,0.03 0.062,0.75 -0.406,0.125 a 3.28,3.28 0 0 1 -0.406,0.094 2.55,2.55 0 0 1 -0.187,-0.125 c -0.22,-0.16 -0.163,-0.385 0.125,-0.687 a 0.49,0.49 0 0 1 0.5,-0.187 z m -29.965,-9.3 c -0.38,0.135 -0.862,0.693 -1.25,0.688 -0.88,0.062 -0.757,0.92 -0.125,1.22 0.083,0.26 0.005,0.588 0.03,0.875 0.123,0.8 -0.375,1.425 -0.28,2.22 -0.044,0.87 -0.307,1.718 -0.344,2.594 -0.247,0.903 -0.25,1.832 -0.406,2.75 -0.104,0.823 -0.7,0.533 -1.22,0.313 l -0.03,-1.062 c 0.216,-0.817 -0.44,-1.056 -1.094,-1.156 -0.686,0.065 -1.023,-0.523 -0.875,-1.125 0.295,-0.35 1.036,-0.253 1.5,-0.312 0.98,0.203 0.942,-1.112 0.438,-1.562 -0.345,-0.636 -1.198,-0.9 -1.437,-1.562 0.096,-0.866 -0.48,-1.732 -1.187,-2.156 -1.1,-0.076 -1.9,0.863 -2.312,1.78 l -1.344,0.438 c -0.7,0.177 -1.72,1.407 -0.75,1.875 0.544,0.15 2.2,0.528 1.47,1.28 -0.412,0.707 -1.2,0.72 -1.906,0.53 -0.724,0.001 -1.53,-0.352 -1.5,-1.187 -0.148,-0.75 -0.123,-1.558 -0.47,-2.25 -0.148,-0.84 -1.1,-0.643 -1.156,0.125 -0.733,0.534 -0.636,1.398 -0.125,2.03 0.32,0.73 0.003,1.578 -0.312,2.25 -0.2,0.875 -1.156,0.905 -1.844,1.188 -0.338,0.13 -1.63,-0.078 -1.156,0.656 0.753,0.266 1.652,0.505 2.438,0.313 0.823,-0.102 1.538,-0.665 1.938,-1.375 0.553,-0.56 1.502,-0.267 2.22,-0.28 0.773,-0.002 1.563,0.542 2.313,0.188 0.217,-0.564 1.222,-1.496 1.53,-0.53 -0.053,0.863 0.7,1.326 1.5,1.22 0.864,-0.05 0.544,0.6 0.53,1.125 0.057,0.934 0.66,1.425 1.438,1.813 0.265,0.072 0.545,0.047 0.813,0 0.748,-0.235 1.554,-0.57 1.78,-1.406 0.304,-0.68 0.3,-1.45 0.53,-2.156 0.177,-1.13 0.406,-2.26 0.438,-3.406 0.276,-1.038 0.197,-2.136 0.406,-3.187 l 0.313,-2.344 c -0.092,-0.417 -0.272,-0.487 -0.5,-0.406 z m -6.78,4.156 c 0.15,0.02 0.236,0.204 0.25,0.53 0.016,0.364 0.206,0.66 0.438,0.72 0.182,0.046 0.167,0.24 -0.03,0.375 -0.115,0.08 -0.32,0.127 -0.687,0.125 -0.578,-0.003 -0.936,-0.153 -1.25,-0.47 l -0.2,-0.196 0.28,-0.187 a 6.43,6.43 0 0 0 0.563,-0.5 c 0.285,-0.3 0.474,-0.425 0.625,-0.406 z m 66.03,-7.876 a 8.37,8.37 0 0 0 -1.656,0.25 c -1.04,-0.065 -1.562,1.027 -0.562,1.563 0.602,1.534 1.54,-0.317 2.5,-0.187 1.438,0.28 1.56,1.832 1.78,3 0.08,1.157 0.414,2.282 0.75,3.375 0.962,1.07 -0.72,1.74 -1.437,0.906 -0.6,-0.664 -1.92,-1.48 -2.656,-0.562 -0.904,0.383 -0.94,1.6 -1.687,1.938 -1.2,0.368 -1.36,-1.12 -2,-1.75 -0.587,-0.824 -1.7,-0.896 -2.625,-1.187 -0.43,-0.87 -0.205,-2.346 -1.094,-2.937 -0.746,0.304 -2.113,1.702 -0.97,2.344 1.118,0.96 -0.488,1.4 -1,2.063 -0.732,0.815 -0.848,1.936 -0.97,2.97 -1.26,0.696 -1.504,-0.788 -1.656,-1.72 -0.098,-1.1 -1.036,-0.785 -1.687,-0.375 -0.952,0.386 -1.428,1.3 -2.094,2 -0.08,0.648 0.037,1.357 0.03,2.03 0.216,0.8 1.202,0.43 1.813,0.375 0.98,-0.4 1.38,0.627 0.594,1.22 -0.532,0.676 -2.22,0.323 -2.062,1.406 0.544,0.064 1.1,0.043 1.656,0 1.1,-0.298 2.26,-1.067 2.375,-2.28 0.144,-1.058 1.668,-0.865 2.5,-1.094 1.04,-0.3 2.295,-0.377 2.53,0.938 0.7,0.745 2.25,1.584 3.03,0.563 0.795,-0.485 1.176,-1.338 1.125,-2.25 -0.162,-0.785 1.27,-0.813 1.625,-0.375 0.52,0.858 2.15,0.605 2.938,0.125 0.836,-0.617 1.018,-1.705 2.22,-1.72 l 5.375,-1.5 c 1.4,-0.307 -0.2,-1.198 -0.562,-1.72 -1.074,-0.53 -2.008,1.642 -3.22,0.563 -0.936,-0.716 -0.872,-2.077 -1.22,-3.125 -0.237,-1.357 -0.177,-2.923 -1.156,-4 -0.672,-0.715 -1.586,-0.887 -2.53,-0.844 z m -6.812,9.47 c 0.126,-0.003 0.268,0.06 0.5,0.188 0.438,0.242 0.75,0.643 0.75,0.97 0,0.213 -0.055,0.227 -0.375,0.375 -0.197,0.1 -0.42,0.2 -0.5,0.188 -0.18,-0.002 -0.624,-0.357 -0.625,-0.5 -10e-4,-0.06 -0.058,-0.286 -0.125,-0.47 -0.118,-0.32 -0.1,-0.316 0.063,-0.53 0.103,-0.137 0.187,-0.215 0.313,-0.22 z m 6.53,0.344 c 0.372,-0.024 0.594,0.092 0.75,0.375 0.182,0.33 0.058,0.58 -0.406,0.78 -0.203,0.088 -0.407,0.16 -0.437,0.156 -0.03,-0.004 -0.198,-0.103 -0.375,-0.22 -0.27,-0.178 -0.3,-0.264 -0.312,-0.47 -0.003,-0.315 0.35,-0.597 0.78,-0.625 z m -8.937,0.094 c 0.1,-0.017 0.208,0.04 0.344,0.156 0.18,0.155 0.237,0.28 0.28,0.594 a 2.23,2.23 0 0 1 0,0.625 c -0.05,0.226 -0.053,0.216 -0.562,0.22 -0.64,0.006 -0.7,-0.064 -0.687,-0.656 0.008,-0.377 0.012,-0.478 0.22,-0.687 0.16,-0.162 0.297,-0.233 0.406,-0.25 z m -5.5,1.438 a 0.57,0.57 0 0 1 0.438,0.438 c 0.066,0.317 0.008,0.462 -0.25,0.594 -0.222,0.113 -0.734,0.15 -0.875,0.063 a 0.62,0.62 0 0 1 -0.187,-0.187 c -0.068,-0.12 -0.055,-0.18 0.03,-0.25 0.06,-0.05 0.125,-0.12 0.125,-0.156 0,-0.036 0.067,-0.163 0.156,-0.28 0.146,-0.194 0.363,-0.266 0.563,-0.22 z m 9.25,1.188 a 0.65,0.65 0 0 1 0.438,0.156 c 0.185,0.162 0.18,0.4 -0.03,0.563 -0.135,0.104 -0.872,0.095 -1.125,0 a 0.2,0.2 0 0 1 -0.156,-0.219 c -0.002,-0.14 0.038,-0.228 0.28,-0.344 0.204,-0.098 0.416,-0.155 0.594,-0.156 z m -17.17,4.836 c -0.096,-0.062 -0.238,-0.117 -0.095,-0.222 0.173,-0.302 0.518,-0.407 0.824,-0.52 0.548,-0.237 1.02,-0.64 1.374,-1.118 0.05,-0.333 0.424,-0.514 0.422,-0.862 0.003,-0.475 0.03,-0.962 -0.085,-1.426 -0.128,-0.426 -0.45,-0.752 -0.826,-0.974 -0.257,-0.2 -0.674,-0.257 -0.77,-0.614 -0.053,-0.343 0.253,-0.604 0.36,-0.9 l 0.65,-1.275 c 0.26,-0.288 0.66,-0.016 0.793,0.262 a 3.23,3.23 0 0 1 0.451,0.897 c 0.302,0.332 0.57,0.72 0.68,1.162 0.148,0.3 0.383,0.602 0.37,0.966 0,0.416 0.235,0.787 0.22,1.206 0.013,0.56 0.013,1.145 -0.192,1.674 -0.14,0.293 -0.42,0.47 -0.606,0.733 -0.32,0.296 -0.67,0.58 -1.08,0.736 -0.3,0.092 -0.457,0.426 -0.82,0.345 -0.515,0.01 -1.037,0.08 -1.547,-0.004 0.032,0.054 -0.156,-0.1 -0.125,-0.057 z m -6.86,0.44 c -0.243,-0.25 -0.295,-0.355 -0.298,-0.6 -0.003,-0.245 0.045,-0.346 0.282,-0.586 0.438,-0.443 0.652,-0.453 1.4,-0.07 0.723,0.366 0.968,0.4 1.032,0.14 0.063,-0.25 0.48,-0.48 0.874,-0.48 a 0.82,0.82 0 0 1 0.592,0.204 c 0.25,0.196 0.263,0.226 0.27,0.68 0.004,0.463 -0.002,0.48 -0.3,0.736 -0.277,0.244 -0.322,0.26 -0.665,0.225 -0.437,-0.044 -0.7,-0.244 -0.77,-0.588 -0.052,-0.25 -0.14,-0.3 -0.205,-0.14 -0.02,0.055 -0.13,0.122 -0.24,0.15 -0.204,0.05 -0.55,0.27 -0.794,0.5 -0.093,0.087 -0.255,0.13 -0.52,0.13 -0.356,0.003 -0.405,-0.018 -0.678,-0.3 z m -19.8,-8.9 c -0.665,0.007 -1.38,0.566 -1.47,1.22 0.152,0.752 0.777,1.5 0.375,2.28 0.278,1.013 -0.76,1.397 -1.47,0.813 -0.427,-0.97 -0.643,-2.036 -1.28,-2.906 -0.804,-0.228 -1.154,1.057 -1.72,1.5 0.28,0.755 1.096,1.432 1.188,2.375 0.195,0.915 -0.36,1.93 -1.156,2.406 -0.686,0.655 -1.625,0.42 -2.47,0.563 -1.024,0.6 0.752,0.818 1.22,0.844 1.048,0.106 2.135,-0.032 2.906,-0.812 0.77,-0.367 0.7,-1.697 1.625,-1.844 1.588,-0.07 3.163,0.244 4.75,0.28 0.85,0.203 2.163,-0.1 2.75,0.53 0.002,1.108 0.94,1.8 1.844,2.22 0.5,0.14 1.024,-0.48 1.53,-0.594 0.965,-0.308 0.672,-1.502 1.25,-1.97 l 4.97,-0.094 c 0.315,0.008 0.407,-0.44 0.625,-0.625 l -0.156,-1.906 c -0.318,-0.807 0.05,-1.845 -0.53,-2.53 -0.83,-0.226 -1.536,0.534 -2.375,0.594 -0.926,0.412 -1.707,1.268 -1.75,2.313 -0.548,0.897 -1.428,-0.16 -1.125,-0.906 -0.035,-0.325 0.07,-0.704 -0.03,-1 -0.507,-0.608 -1.395,-0.4 -2.094,-0.5 -1.018,0.04 -2.013,-0.18 -3.03,-0.156 -0.893,-0.067 -1.822,0.078 -2.687,-0.156 -1.032,-0.03 -0.9,-1.038 -1.062,-1.75 -0.183,-0.136 -0.403,-0.2 -0.625,-0.187 z m 2,3.688 c 0.343,0.007 0.667,0.052 1,0.094 0.43,0.07 0.9,-0.148 1.313,0 0.977,0.166 1.954,0.127 2.938,0.22 0.26,-0.004 0.446,0.185 0.625,0.344 v 2.063 c -0.03,0.258 0.076,0.598 -0.156,0.78 a 0.7,0.7 0 0 1 -0.25,0.125 c -0.27,-0.07 -0.557,-0.248 -0.687,-0.5 -0.04,-0.357 0.018,-0.704 0.03,-1.062 -0.007,-0.093 0.04,-0.237 0,-0.312 -0.213,-0.15 -0.454,-0.25 -0.72,-0.25 l -2.53,-0.125 c -0.707,-0.045 -1.433,0.06 -2.125,-0.125 -0.268,-0.098 -0.618,-0.064 -0.78,-0.344 -0.234,-0.272 0.104,-0.597 0.344,-0.72 a 2.28,2.28 0 0 1 1,-0.187 z m 11.28,0.25 c 0.16,-0.002 0.2,0.05 0.28,0.344 l 0.125,0.5 c 0.036,0.118 -0.022,0.156 -0.187,0.22 -0.494,0.186 -0.986,0.168 -1.156,-0.062 -0.077,-0.105 0.013,-0.435 0.156,-0.562 0.3,-0.26 0.6,-0.437 0.78,-0.437 z" />
      </g>
      <path
         style="stroke-width:1.14999998"
         inkscape:connector-curvature="0"
         id="path40"
         d="m 449.98,327.23 c 32.642,-25.106 29.843,-61.883 29.843,-61.883 a 12.72,12.72 0 0 1 -2.541,0.258 c -6.847,0 -23.178,-3.917 -26.988,-8.893 -4.08,4.503 -20.77,8.893 -27.574,8.893 -0.86,0 -1.722,-0.086 -2.54,-0.258 0,0 -2.842,36.776 29.8,61.883 z" />
      <path
         style="stroke-width:0.91600001"
         inkscape:connector-curvature="0"
         id="path42"
         d="m 477.22,268.04 -0.848,0.026 c -6.205,0 -20.62,-3.184 -26.175,-7.957 -5.82,4.4 -20.47,7.957 -26.576,7.957 a 4.7,4.7 0 0 1 -0.85,-0.087 c -0.014,1.39 0.058,2.832 0.144,4.144 0.323,4.9 1.183,9.82 2.488,14.552 4.108,14.895 12.516,27.553 24.572,37.155 12.066,-9.6 20.484,-22.28 24.6,-37.186 1.307,-4.732 2.17,-9.65 2.495,-14.55 0.085,-1.284 0.157,-2.692 0.147,-4.054 z" />
      <path
         style="fill:#c09300;stroke:none"
         inkscape:connector-curvature="0"
         id="path44"
         d="m 439.38,265.03 c -5.872,1.845 -12.23,3.03 -15.75,3.03 -0.286,0 -0.563,-0.042 -0.844,-0.094 -0.014,1.4 0.07,2.845 0.156,4.156 a 72.77,72.77 0 0 0 2.47,14.53 c 2.765,10.025 7.506,19.032 13.97,26.78 V 265.03 Z m 20.62,-0.1 v 49.25 c 6.794,-7.92 11.733,-17.206 14.594,-27.562 1.307,-4.732 2.143,-9.63 2.47,-14.53 0.085,-1.284 0.166,-2.7 0.156,-4.062 a 13.07,13.07 0 0 1 -0.844,0.03 c -3.73,0 -10.42,-1.17 -16.375,-3.125 z" />
      <g
         style="stroke-width:1.26999998"
         id="g54">
        <path
           style="stroke-width:1.21800005"
           inkscape:connector-curvature="0"
           id="path46"
           d="m 462.3,253.1 c 0.667,0.04 -0.902,-3.568 -0.902,-3.568 1.764,1.804 8.43,2.235 8.43,2.235 -4,-1.766 -7.998,-15.096 -7.528,-25.72 0.432,-10.664 -1.528,-14.86 -3.097,-16.428 -2,-2 -8.43,-3.764 -12.664,-4 -2.392,-0.118 -2,1.804 -2,1.804 -4.43,-1.137 -8.86,-1.568 -10.86,-0.235 -1.882,1.255 -2.274,7.528 -0.902,6.43 3.333,-2.666 6.234,-0.235 8.233,2.666 1.764,2.548 1.647,9.763 -0.902,18.192 -2.666,8.86 -9.96,17.722 -9.96,17.722 3.96,0 9.528,-3.53 9.528,-3.53 l -1.333,5.528 c 4.195,-2 7.528,-5.097 7.528,-5.097 l 4,4.195 c 1.333,-1.764 4,-4.195 4,-4.195 0,0 3.333,3.53 8.43,4 z" />
        <path
           style="fill:none"
           inkscape:connector-curvature="0"
           id="path48"
           d="m 446.12,227.57 c 0,0 -2.235,16.428 -6.43,21.094 m 9.96,-21.524 c 0,0 -0.863,16.623 -3.764,21.956 M 452.78,227.8 c 0,0 0,18.192 1.098,21.3 m 2.862,-20.4 c 0,0 0.902,15.3 4.666,20.82" />
        <path
           style="fill:#c09300;stroke-width:0.354"
           inkscape:connector-curvature="0"
           id="path50"
           d="m 442.08,219.6 c -0.196,-1.45 -0.55,-2.588 -1.06,-3.333 -2,-2.9 -4.9,-5.332 -8.234,-2.666 0,0 1.137,-3.53 3.568,-3.646 1.882,-0.118 6.156,1.4 9.92,7.84 0,0 -2.784,-0.627 -3.45,-0.04 -1.255,1.098 -0.745,1.843 -0.745,1.843 z m -9.64,-10.34 c 0.274,-0.902 0.706,-1.725 1.255,-2.078 2,-1.333 6.43,-0.902 10.86,0.235 0,0 -0.392,-1.92 2,-1.804 4.234,0.235 10.665,2 12.664,4 0.47,0.5 1.02,1.255 1.5,2.392 h -0.078 c -0.98,-1.372 -3.764,-1.294 -4.43,-1.215 -1.06,0.118 -1.725,0.078 -3.136,0.43 -0.667,0.157 -1.686,0.353 -2.235,0.784 -0.43,0.353 -0.784,1.647 -1.45,1.647 -1.06,0 -0.98,-0.274 -1.255,-0.588 -0.353,-0.43 -0.55,-1.06 -0.902,-1.02 -1.098,0.196 -2.862,-0.666 -5.097,-2.43 -2.235,-1.764 -3.097,-2.196 -5.998,-2 -2.862,0.235 -3.764,1.843 -3.764,1.843 l 0.078,-0.196 z" />
        <circle
           style="stroke:none"
           id="circle52"
           r="1.176"
           cy="210.672"
           cx="448.82401" />
      </g>
    </g>
  </g>
</svg>
