<?xml version="1.0" encoding="UTF-8" standalone="no"?>
<svg
   xmlns:dc="http://purl.org/dc/elements/1.1/"
   xmlns:cc="http://creativecommons.org/ns#"
   xmlns:rdf="http://www.w3.org/1999/02/22-rdf-syntax-ns#"
   xmlns:svg="http://www.w3.org/2000/svg"
   xmlns="http://www.w3.org/2000/svg"
   xmlns:sodipodi="http://sodipodi.sourceforge.net/DTD/sodipodi-0.dtd"
   xmlns:inkscape="http://www.inkscape.org/namespaces/inkscape"
   height="500"
   viewBox="0 0 132.29167 132.29167"
   width="500.00003"
   version="1.1"
   id="svg18"
   sodipodi:docname="Iraq R.svg"
   inkscape:version="0.92.4 (5da689c313, 2019-01-14)">
  <metadata
     id="metadata24">
    <rdf:RDF>
      <cc:Work
         rdf:about="">
        <dc:format>image/svg+xml</dc:format>
        <dc:type
           rdf:resource="http://purl.org/dc/dcmitype/StillImage" />
        <dc:title></dc:title>
      </cc:Work>
    </rdf:RDF>
  </metadata>
  <defs
     id="defs22">
    <clipPath
       clipPathUnits="userSpaceOnUse"
       id="clipPath836">
      <ellipse
         style="opacity:1;fill:#0000bf;fill-opacity:0.68844222;stroke-width:0.22831805"
         id="circle838"
         cx="54.768997"
         cy="36.121498"
         rx="36.517761"
         ry="36.384502" />
    </clipPath>
  </defs>
  <sodipodi:namedview
     pagecolor="#ffffff"
     bordercolor="#666666"
     borderopacity="1"
     objecttolerance="10"
     gridtolerance="10"
     guidetolerance="10"
     inkscape:pageopacity="0"
     inkscape:pageshadow="2"
     inkscape:window-width="1366"
     inkscape:window-height="705"
     id="namedview20"
     showgrid="false"
     inkscape:zoom="0.31555556"
     inkscape:cx="325.05233"
     inkscape:cy="296.87278"
     inkscape:window-x="-8"
     inkscape:window-y="-8"
     inkscape:window-maximized="1"
     inkscape:current-layer="svg18"
     fit-margin-top="0"
     fit-margin-left="0"
     fit-margin-right="0"
     fit-margin-bottom="0" />
  <g
     transform="matrix(1.8113333,0,0,1.8179674,-33.059071,0.47812543)"
     id="g16"
     clip-path="url(#clipPath836)">
    <path
       d="m 0,-0.263 h 109.538 v 72.76 H 0 Z"
       id="path2"
       inkscape:connector-curvature="0"
       style="fill:#ce1126" />
    <path
       d="M 0,24 H 109.538 V 72.506 H 0 Z"
       id="path4"
       inkscape:connector-curvature="0"
       style="fill:#ffffff" />
    <path
       d="M 0,48.243 H 109.538 V 72.496 H 0 Z"
       id="path6"
       inkscape:connector-curvature="0" />
    <g
       transform="matrix(0.266515,0,0,0.265542,-0.122806,-0.333535)"
       id="g14"
       style="fill:#007a3d">
      <path
         d="m 246.026,120.178 c -0.558,-0.295 -1.186,-0.768 -1.395,-1.054 -0.314,-0.438 -0.132,-0.456 1.163,-0.104 2.318,0.63 3.814,0.383 5.298,-0.873 l 1.308,-1.103 1.54,0.784 c 0.848,0.428 1.748,0.725 2.008,0.656 0.667,-0.176 2.05,-1.95 2.005,-2.564 -0.054,-0.76 0.587,-0.568 0.896,0.264 0.615,1.63 -0.28,3.502 -1.865,3.918 -0.773,0.2 -1.488,0.127 -2.66,-0.28 -1.438,-0.502 -1.684,-0.494 -2.405,0.058 -1.618,1.24 -3.87,1.355 -5.894,0.3 z m 5.734,-5.242 c -0.563,-0.717 -1.24,-3.424 -1.02,-4.088 0.192,-0.576 0.4,-0.7 0.914,-0.527 0.918,0.287 1.13,0.92 0.993,3.064 -0.107,1.747 -0.366,2.206 -0.886,1.55 z M 184.244,113 c -0.185,1.3 2.325,4.568 3.458,5.158 -0.77,0.345 -1.728,0.188 -2.434,0.576 -3.948,3.948 -18.367,18.006 -21,21.366 7.8,0.154 16.448,-0.106 23.76,-0.44 -0.007,-5.3 5.018,-5.572 8.38,-7.502 1.73,2.725 6.075,2.516 6.618,6.617 l 0.01,17.646 H 136.4 c -1.172,5.176 -5.844,9.125 -12.354,7.5 2.014,-2.104 5.405,-2.827 6.62,-5.734 1.024,-6.365 -2.046,-10.296 -4.03,-13.906 3.284,-1.195 3.782,-1.494 7.12,-3.737 -2.344,7.12 6.1,6.338 12.353,6.175 0.2,-2.417 0.1,-5.27 -1.766,-5.624 2.396,-0.87 2.794,-1.168 6.62,-4.412 v 9.593 l 46.14,-0.1 c 0,-3.002 0.795,-7.824 -1.58,-7.824 -2.27,0 -0.107,6.173 -1.87,6.173 h -35.63 L 158,138.4 c 1.5,-1.5 1.33,-1.38 11.648,-11.697 1.028,-1.03 8.266,-7.568 14.6,-13.713 z m 89.06,-0.264 c 2.487,1.34 4.457,3.2 7.502,3.972 -0.354,1.26 -1.476,1.76 -1.77,3.087 v 26.9 c 3.402,0.75 4.118,-1.178 5.737,-2.205 0.442,4.307 3.186,8.53 3.088,11.9 H 273.3 l 0.002,-43.674 z m -19.412,14.412 5.296,-4.643 v 23.484 l 3.814,-0.006 -0.118,-26.338 c 1.548,-1.55 4.58,-3.8 5.338,-5.358 v 42.06 l -33.443,0.012 c -0.493,-8.73 -0.577,-17.77 9.6,-15.826 v -3.563 c -0.3,-0.6 -0.868,0.147 -0.998,-0.645 1.615,-1.617 2.163,-2.03 6.538,-5.852 l 0.08,15.5 3.857,0.004 c 0.001,0.002 0.036,-18.227 0.036,-18.83 z M 241.34,145.75 c 0.716,1.075 3.154,1.056 3.04,-0.755 -0.4,-1.493 -3.616,-0.924 -3.04,0.755 z"
         id="path8"
         inkscape:connector-curvature="0" />
      <circle
         cx="144.52699"
         cy="161.369"
         r="2.0420001"
         id="circle10" />
      <path
         d="m 207.55,112.78 c 2.488,1.34 4.457,3.19 7.502,3.97 -0.353,1.26 -1.476,1.76 -1.768,3.087 v 26.91 c 3.4,0.75 4.117,-1.18 5.736,-2.206 0.44,4.308 3.185,8.528 3.088,11.9 h -14.56 l 0.002,-43.673 z"
         id="path12"
         inkscape:connector-curvature="0" />
    </g>
  </g>
</svg>
