<?xml version="1.0" encoding="UTF-8" standalone="no"?>
<svg
   xmlns:dc="http://purl.org/dc/elements/1.1/"
   xmlns:cc="http://creativecommons.org/ns#"
   xmlns:rdf="http://www.w3.org/1999/02/22-rdf-syntax-ns#"
   xmlns:svg="http://www.w3.org/2000/svg"
   xmlns="http://www.w3.org/2000/svg"
   xmlns:sodipodi="http://sodipodi.sourceforge.net/DTD/sodipodi-0.dtd"
   xmlns:inkscape="http://www.inkscape.org/namespaces/inkscape"
   width="500"
   height="500"
   version="1.1"
   id="svg8"
   sodipodi:docname="KSA R.svg"
   inkscape:version="0.92.4 (5da689c313, 2019-01-14)">
  <metadata
     id="metadata14">
    <rdf:RDF>
      <cc:Work
         rdf:about="">
        <dc:format>image/svg+xml</dc:format>
        <dc:type
           rdf:resource="http://purl.org/dc/dcmitype/StillImage" />
        <dc:title></dc:title>
      </cc:Work>
    </rdf:RDF>
  </metadata>
  <defs
     id="defs12">
    <clipPath
       clipPathUnits="userSpaceOnUse"
       id="clipPath827">
      <circle
         style="opacity:1;fill:#00008c;fill-opacity:0.42211058;stroke-width:0.71684265"
         id="circle829"
         cx="375"
         cy="350"
         r="250" />
    </clipPath>
    <clipPath
       clipPathUnits="userSpaceOnUse"
       id="clipPath831">
      <circle
         style="opacity:1;fill:#00008c;fill-opacity:0.42211058;stroke-width:0.71684265"
         id="circle833"
         cx="375"
         cy="350"
         r="250" />
    </clipPath>
    <clipPath
       clipPathUnits="userSpaceOnUse"
       id="clipPath835">
      <circle
         style="opacity:1;fill:#00008c;fill-opacity:0.42211058;stroke-width:0.71684265"
         id="circle837"
         cx="375"
         cy="350"
         r="250" />
    </clipPath>
  </defs>
  <sodipodi:namedview
     pagecolor="#ffffff"
     bordercolor="#666666"
     borderopacity="1"
     objecttolerance="10"
     gridtolerance="10"
     guidetolerance="10"
     inkscape:pageopacity="0"
     inkscape:pageshadow="2"
     inkscape:window-width="1366"
     inkscape:window-height="705"
     id="namedview10"
     showgrid="false"
     inkscape:zoom="0.31555556"
     inkscape:cx="325"
     inkscape:cy="300"
     inkscape:window-x="-8"
     inkscape:window-y="-8"
     inkscape:window-maximized="1"
     inkscape:current-layer="svg8"
     fit-margin-top="0"
     fit-margin-left="0"
     fit-margin-right="0"
     fit-margin-bottom="0" />
  <path
     d="M 0,100 H 750 V 600 H 0 Z"
     id="path2"
     inkscape:connector-curvature="0"
     style="fill:#006c35;stroke-width:0.83333331"
     clip-path="url(#clipPath835)"
     transform="translate(-125,-100)" />
  <path
     d="m 468.55,443.75 c -0.008,0.003 -0.0233,0.0217 -0.0308,0.0267 -6.0375,1.3075 -5.85,6.59083 -1.97417,8.91916 -63.75583,0 -161.595,-0.91333 -182.5775,-0.91333 -11.73917,0 -48.8775,-1.1825 -49.5925,-1.1825 7.965,9.83167 19.5025,11.835 34.6,12.03583 L 465.84333,462.34 c -2.65416,3.97833 0.24167,10.38833 2.32334,11.5525 0.0442,0.025 0.115,0.0617 0.15916,0.0808 a 0.9675,0.81666667 0 0 0 0.255,0.08 c 0.025,0.005 0.0717,-0.002 0.095,0 2.4725,0.49167 3.56,-1.01916 4.3925,-2.1225 4.01084,0.2975 26.58167,0.5725 28.6475,-0.0267 0.007,-0.002 0.025,-0.025 0.0308,-0.0267 1.3975,1.73583 2.78416,3.375 5.44416,3.09 4.65334,-0.8425 8.31834,-1.26917 8.43417,-9.24167 0,0 -0.475,-13.58333 -11.04583,-12.73333 -2.5,0.31917 -9.51667,0.91417 -9.51667,0.91417 -8.12,-0.81584 -14.07667,-0.89917 -23.20417,-1.1825 0.8425,-0.9025 2.33,-4.55834 0.50834,-5.88334 -0.475,-0.33333 -1.1825,-0.51916 -2.16417,-0.45666 h -0.0308 c -0.0142,0 -0.0508,0.002 -0.0642,0 -0.007,-0.002 -0.025,-0.025 -0.0308,-0.0267 -0.025,-0.007 -0.0708,-0.0142 -0.095,-0.0267 a 1.0016667,0.845 0 0 1 -0.15834,-0.13333 c -0.0117,-0.0125 -0.0533,-0.0417 -0.0642,-0.0542 -0.46167,-0.56666 -0.71334,-1.95833 -1.01917,-2.31 l -0.0308,-0.0267 c -0.004,-0.002 -0.0283,-0.025 -0.0317,-0.0267 a 0.535,0.45166667 0 0 0 -0.0633,-0.0267 h -0.0633 z m 4.32917,19.42417 c 0.0108,-0.004 0.0208,0.004 0.0317,0 9.30084,0.38333 18.04,0.0733 27.34167,0.45666 1.475,1.05667 0.7375,3.48 -0.2225,3.92167 a 1.1891667,1.1891667 0 0 1 -0.15833,0.0542 c -0.0342,0.007 -0.085,-8.4e-4 -0.1275,0 -0.0425,0 -0.085,0.007 -0.1275,0 l -7.79834,-0.1875 a 1.7233333,1.4541667 0 0 0 -0.0633,-0.37667 c -0.71667,-1.79333 -5.90833,-1.6725 -7.13,-0.26833 -0.0225,0.0267 -0.0417,0.0525 -0.0633,0.08 a 0.59666667,0.59666667 0 0 0 -0.0642,0.10833 1.9516667,1.6466667 0 0 0 -0.0633,0.13333 c -0.0192,0.0533 -0.0242,0.1325 -0.0317,0.18834 -0.008,0.0717 -0.0383,0.14666 -0.0317,0.215 -4.07416,0.41416 -7.75833,-0.115 -11.84083,-0.24167 -1.18833,-1.25833 -1.05833,-3.53583 0.35083,-4.08333 z"
     id="path4"
     inkscape:connector-curvature="0"
     style="fill:#ffffff;fill-rule:evenodd;stroke-width:0.83333331"
     clip-path="url(#clipPath831)"
     transform="translate(-125,-100)" />
  <path
     d="m 501.80083,315.53417 c 1.28667,0.63166 4.67,-3.2 4.55,-8.0125 0.3725,-2.46834 -0.95666,-11.58584 -4.33083,-13.13167 -0.395,-0.125 -0.8125,-0.17667 -1.225,-0.125 -1.76333,0.23583 -3.43167,1.73583 -2.66667,4.1925 -0.48333,1.44083 2.39334,6.48917 3.13917,9.16917 0.67083,1.9075 -0.865,7.3 0.53167,7.86666 z m -266.3625,-77.41334 c 4.13084,1.81334 11.8775,1.05167 11.55,-5.09 0,-0.53166 -0.13,-2.36833 -0.18916,-2.86416 -0.42,-0.90334 -1.20084,-1.24584 -1.94584,-1.12834 l 0.008,0.002 c -0.75334,0.125 -1.465,0.69667 -1.72667,1.61833 -0.16583,0.61417 0.28333,1.63 -0.31333,1.93667 -0.3425,0.355 -1.655,0.125 -1.60084,-1.58833 0,-0.53084 -0.43166,-1.105 -0.69083,-1.44667 -0.25917,-0.17667 -0.43667,-0.23583 -0.91,-0.23583 -0.5725,0.015 -0.56083,0.17583 -0.87833,0.6075 -0.14167,0.41416 -0.31917,0.89833 -0.31917,1.41666 -0.07,0.60167 -0.33083,0.81 -0.81667,0.8975 -0.53666,0 -0.41833,0.0467 -0.84666,-0.23583 -0.24834,-0.29583 -0.56084,-0.355 -0.56084,-0.81 0,-0.41333 -0.13,-1.20417 -0.28333,-1.50583 -0.23083,-0.295 -0.585,-0.41417 -1.00417,-0.53167 -2.25583,0.008 -2.42083,2.39167 -2.29166,3.29583 -0.16417,0.17667 -0.25334,4.39334 2.82583,5.58084 z m -33.11,-0.23583 c 0.63334,1.45333 -0.6275,6.13333 0.69084,6.56583 1.21166,0.47167 2.88083,-3.2425 3.515,-6.68166 0.34916,-1.88417 0.0833,-8.33084 -4.675,-9.66167 -0.24834,-0.0467 -0.49667,-0.125 -0.75417,-0.125 -1.82,-0.0467 -3.82833,0.99167 -3.045,3.00583 -0.455,1.09834 3.5625,4.8075 4.26833,6.85667 z m 145.87917,1.73083 c 2.37167,-5.90833 2.38333,-8.42666 2.54167,-10.93333 -0.36584,-1.90667 -1.26917,-2.82833 -2.29,-2.75167 -1.02167,0.125 -2.1525,1.175 -3.075,3.29584 -0.7925,1.61833 -1.75834,10.03666 -1.60167,10.03666 -0.63167,2.51 2.84333,3.56667 4.425,0.355 z m -29.47333,-1.6475 c 1.1725,1.54667 2.3275,1.3875 4.67666,0.295 1.34917,-0.91583 1.805,-1.50666 2.25917,-3.04166 0.56083,-2.575 -2.94167,1.21666 -3.39,-1.65334 -0.7825,-2.66333 1.45333,-3.75583 3.5775,-6.335 0.0483,-1.21083 0.0708,-2.2025 -0.78333,-2.2325 -0.39,-0.01 -0.97167,0.17667 -1.78917,0.63167 -1.83583,1.12833 -5.475,4.63 -5.58667,8.64833 -0.1125,2.2675 -0.57333,2.25584 1.035,3.70334 z m -120.45,40.67917 c 12.0575,1.06833 5.39666,-18.78417 9.76166,-22.38833 0.825,-1.7775 2.35417,-1.81334 2.47917,0.41416 v 16.86334 c -0.1125,5.48 3.80417,7.11166 6.84167,8.24416 3.16166,-0.23583 5.25833,-0.17666 6.4975,2.6875 l 1.50666,29.185 c 0,0 7.30834,1.93084 7.65834,-16.40083 0.3475,-10.76667 -2.3275,-19.80167 -0.75334,-21.89583 0.0542,-2.055 2.91834,-2.16167 4.89584,-1.15834 3.15166,2.05 4.55,4.57084 9.44666,3.55584 7.4525,-1.89 11.94167,-5.22667 12.05167,-10.5 -0.43083,-5.01417 -1.06417,-10.02917 -3.42,-15.04167 0.325,-0.90917 -1.42667,-3.2775 -1.09917,-4.19333 1.33917,1.9375 3.36417,1.77166 3.82917,0 -1.26833,-3.85 -3.24333,-7.54334 -6.43333,-9.14 -2.63667,-2.14334 -6.49667,-1.695 -7.90917,2.77583 -0.65583,5.14417 2.02333,11.24333 6.08833,16.22667 0.86334,1.9425 2.07167,5.185 1.5375,8.1 -2.16416,1.13833 -4.30833,0.66 -6.12083,-1.09917 0,0 -5.93083,-4.09167 -5.93083,-5.00167 1.5725,-9.28916 0.33583,-10.35166 -0.53167,-12.93083 -0.60917,-3.555 -2.43917,-4.68333 -3.9225,-7.115 -1.48417,-1.44667 -3.49667,-1.44667 -4.45667,0 -2.62166,4.18667 -1.39166,13.18917 0.5025,17.21083 1.36834,3.7025 3.46667,6.01667 2.47917,6.01667 -0.81417,2.09 -2.51,1.60583 -3.735,-0.81 -1.7475,-4.99583 -2.10333,-12.4375 -2.10333,-15.79333 -0.51917,-4.1575 -1.10834,-13.04584 -4.08,-15.30084 -0.79167,-0.99833 -1.72834,-1.34083 -2.63584,-1.24583 -1.16666,0.125 -2.26583,0.99917 -2.79333,2.1675 -0.19417,4.12833 -0.21833,8.2575 0.28333,12.0625 2.03834,6.67333 2.68334,12.54417 3.6725,19.37833 0.27167,9.15584 -5.73666,3.95667 -5.46166,-0.59 1.38833,-5.89416 1.00416,-15.17666 -0.21834,-17.52916 -0.9775,-2.35 -2.10833,-2.935 -4.48833,-2.545 -1.88917,-0.125 -6.765,4.795 -8.12833,12.90083 0,0 -1.13584,4.16333 -1.6325,7.86833 -0.66667,4.18667 -3.67834,7.15334 -5.775,-0.59166 -1.8125,-5.61584 -2.9275,-19.46584 -5.96334,-16.225 -0.87,10.81083 -1.90166,29.83583 8.06584,31.78833 z M 275.965,260.30167 c 0.005,0.002 0.025,-0.002 0.0317,0 0.006,0.002 0.025,0.0308 0.0308,0.0308 0.006,0.002 0.0233,0 0.0317,0 l 0.0308,0.0317 c 0.78583,0.47166 10.45,0.47166 11.51917,0.0308 0.008,-0.005 0.025,-0.0308 0.0308,-0.0308 0.006,-0.005 0.0283,0.002 0.0317,0 0.002,-0.002 -0.002,-0.0317 0,-0.0317 3.32,-1.12833 19.08166,-17.73083 19.08166,-17.73083 -0.81666,-0.64417 -1.56916,-1.1225 -2.385,-1.76667 -0.875,-0.7025 -0.78666,-1.38083 0,-2.08333 3.90334,-2.09167 2.66667,-6.70084 0.6275,-8.795 -1.69,-0.69667 -3.28083,-0.9325 -4.7075,-0.86834 a 8.9833333,8.9833333 0 0 0 -3.76666,0.95584 c -2.7375,2.41583 -3.38,6.29 -1.22334,8.70666 2.09834,0.91 4.18417,2.85834 2.7925,3.93334 -5.94166,5.84083 -21.37916,15.6025 -22.1575,17.38333 a 0.16083333,0.16083333 0 0 1 -0.0308,0.0475 c -0.003,0.0133 0,0.0467 0,0.0625 v 0.0308 c 0.008,0.0167 0.0183,0.0317 0.0308,0.0625 l 0.0317,0.0317 z m 23.38583,-26.025 c 0.0658,-0.0133 0.12334,-0.0308 0.18917,-0.0308 0.96417,-0.125 2.1275,0.72667 2.7,1.8775 0.60833,1.22834 0.3,2.40417 -0.69167,2.63417 -0.9925,0.23583 -2.2775,-0.59083 -2.88666,-1.81917 -0.60834,-1.2275 -0.30084,-2.43916 0.69083,-2.66333 z m 21.8,35.76916 c 4.82084,1.83667 7.88084,-6.61916 9.855,-15.87916 1.35,-2.60417 2.38167,-2.89334 3.075,-1.565 -0.17666,12.31666 0.95834,15.06416 4.39417,18.80166 7.66417,5.45 14.00417,0.69 14.50083,0.23584 l 5.96334,-5.49834 c 1.32833,-1.2875 3.08333,-1.36416 4.95833,-0.23583 1.82333,1.52333 1.59,4.16333 5.49333,5.98833 3.285,1.21084 10.3,0.295 11.92667,-2.315 2.18917,-3.46083 2.72,-4.6475 3.735,-5.95916 1.56167,-1.91917 4.2375,-1.0625 4.2375,-0.4125 -0.24833,1.06833 -1.82083,2.12 -0.75333,4.05083 1.85833,1.28167 2.29,0.41417 3.39,0.17667 3.88833,-1.7125 6.81,-9.4875 6.81,-9.4875 0.17083,-2.9 -1.61834,-2.675 -2.76167,-2.085 -1.4925,0.84333 -1.58333,1.12833 -3.07583,1.96666 -1.90167,0.295 -5.58417,1.41667 -7.40667,-1.1875 -1.86167,-3.12416 -1.87333,-7.48166 -3.29583,-10.64416 0,-0.23584 -2.4875,-4.96084 -0.18917,-5.26167 1.16,0.23583 3.655,0.79083 4.04833,-1.12833 1.21667,-1.87167 -2.625,-7.18334 -5.24166,-9.86334 -2.27084,-2.2975 -5.40667,-2.575 -8.44167,-0.23583 -2.12583,1.80083 -1.81167,3.82083 -2.22917,5.72833 -0.5375,2.19167 -0.43666,4.9075 1.9775,7.81 2.1225,3.85 5.97917,8.80667 4.70834,15.79167 0,0 -2.24167,3.32 -6.18334,2.89417 -1.64166,-0.35417 -4.31916,-0.98584 -5.74333,-10.6725 -1.07667,-7.3325 0.26667,-17.60667 -3.10833,-22.41667 -0.7525,-1.8125 -1.41667,-3.57833 -2.51,-3.4425 -0.65584,0.0467 -1.46,0.84333 -2.57334,2.7225 -0.79833,1.94833 -4.24333,4.90167 -1.75833,10.99167 2.03417,3.85666 2.86917,10.135 1.94667,17.12333 -1.40917,1.98333 -1.73084,2.675 -3.5775,4.65333 -2.59417,2.575 -5.40667,1.91334 -7.56334,0.95584 -2.01666,-1.25084 -3.59916,-1.895 -4.52,-5.87 0.16584,-6.34 0.56084,-16.715 -0.69,-18.91667 -1.85416,-3.40833 -4.90833,-2.18583 -6.21416,-1.15833 -6.275,5.285 -9.37417,14.21416 -11.26834,21.31666 -1.74083,5.1675 -3.59416,3.67917 -4.89583,1.58917 -3.17,-2.74083 -3.3925,-24.1425 -7.21917,-20.62333 -6.12916,16.1425 3.51667,33.82583 10.2,32.10666 z M 295.8975,258.5425 c -3.6525,1.81917 -5.06667,7.225 -2.79167,10.38417 2.125,2.77583 5.48334,1.76666 5.93084,1.76666 3.57916,0.41334 5.7125,-6.19 5.7125,-6.19 0,0 0.10583,-1.86083 -4.14334,1.6475 -1.78833,0.35417 -2.03166,-0.29583 -2.47916,-1.21083 -0.3725,-1.71833 -0.29,-3.46083 0.56083,-5.17333 0.39583,-1.02834 0.002,-1.68334 -0.84667,-1.76667 -0.5025,-0.0458 -1.1775,0.125 -1.94583,0.53167 z m 236.10417,82.41917 c -0.78334,-0.82667 -2.54917,-0.355 -3.73584,-0.41417 -0.56083,0 -2.42666,-0.295 -1.53666,-1.76583 0.73583,-0.93917 1.0075,-1.5 1.50666,-2.66334 0.555,-1.13333 0.065,-1.89583 -1.94666,-2.51583 -1.02417,-0.17667 -1.73334,-0.23583 -2.47917,-0.23583 -0.74583,0.0317 -1.53,0.125 -2.66667,0.23583 -1.23083,0.23583 -1.66,0.7375 -1.88333,2.10833 0.0883,2.085 1.47167,1.97834 2.88667,2.805 0.82083,0.9625 1.35416,1.83084 -0.065,3.40834 l -3.64084,2.89333 c -0.63333,0.99167 -1.02916,2.5275 0.91,3.00583 3.58,0.92667 11.86334,-4.03333 11.86334,-4.14 1.34166,-0.92666 0.89666,-2.68666 0.785,-2.68666 z M 557.70833,253.825 c -0.27166,-1.8425 -1.155,-6.0725 -0.81666,-6.625 0.54333,-1.29417 3.31416,0.125 4.3,-1.35833 1.445,-1.36334 -7.15667,-11.51 -10.16917,-15.85 -0.6025,-1.08667 -0.97333,-1.985 -1.50667,-1.9375 -0.41333,0.0308 -0.92083,0.65583 -1.695,2.16666 -1.8625,2.81667 -2.51083,7.8475 -1.7575,12.29417 4.485,27.95583 7.81667,55.02667 8.50584,79.805 -0.38334,2.35 -0.49584,3.60167 -1.695,6.565 -2.64667,3.12333 -5.565,7.0475 -8.31667,8.9375 -2.75,1.89 -8.60083,3.69167 -10.51417,5.09083 -6.07,3.23584 -6.11,6.95167 -1.19333,7.08667 8.45833,-0.90333 18.46583,-1.54167 25.35917,-11.13583 1.845,-2.68667 4.01666,-9.975 4.1125,-14.43334 0.645,-26.14583 -0.36084,-51.71 -4.615,-70.60583 z M 191.585,305.09167 222.97,291.20833 c -1.71583,-2.36166 -0.10583,-4.4875 -6.55833,-4.65833 -9.91834,0.17583 -24.44334,11.98083 -24.82667,18.54 z m 5.59083,29.96166 c -2.60916,4.88334 -3.695,1.54084 -3.9225,-1.1875 -0.39583,-5.17333 0.14167,-9.9375 0.75334,-13.71 0.325,-1.93666 0.31333,-2.61 0.0658,-2.60416 -0.24833,0.008 -0.75,0.69666 -1.4125,1.46416 -5.9,8.66417 -6.425,21.595 -3.17,25.45417 1.73083,1.825 4.5825,2.62167 6.685,2.055 3.7075,-1.48333 5.33583,-8.40167 4.45583,-10.93333 -1.23666,-1.78917 -2.2175,-2.06667 -3.4525,-0.53084 z m 73.985,-13.02 c 4.2975,-13.18666 -0.0892,-23.13416 1.35,-24.35416 0.0125,-0.01 0.05,-0.0158 0.0667,-0.0317 0.0117,-0.008 0.0475,-0.015 0.065,-0.0308 0.0142,-0.007 0.0467,-0.0317 0.0658,-0.0317 a 0.74583333,0.74583333 0 0 1 0.18834,-0.0308 c 5.30333,5.26166 12.74333,0.66666 14.37416,-1.15834 0.7,-0.90833 2.44917,-1.5 3.67167,-0.35416 4.13667,2.74 11.38583,1.44666 12.9,-3.38334 0.875,-4.725 1.61333,-9.59 1.78833,-14.63583 -2.695,0.77333 -4.8675,1.35167 -5.74333,2.19667 -0.20667,0.23583 -0.36,0.41416 -0.40833,0.6975 l -0.69,4.1925 c -0.0217,0.125 -0.065,0.23583 -0.12334,0.355 -0.12333,0.17666 -0.30083,0.35416 -0.50166,0.41416 -0.9525,0.47167 -2.61417,0.23584 -2.7,-1.06916 -1.27917,-5.36834 -6.555,-6.06917 -9.76,2.25583 -2.15584,1.6125 -6.08834,1.925 -6.4975,-0.47167 0.52,-5.58666 -1.925,-6.33416 -6.81,-3.7025 l -4.7075,-32.68416 c 2.04,-0.0467 3.91,1.305 5.775,-0.845 -2.00834,-5.7875 -6.2875,-17.5525 -8.69334,-18.6575 -0.0183,-0.007 -0.0433,-0.015 -0.0658,-0.0308 a 4.725,4.725 0 0 0 -0.34167,-0.355 c -0.05,-0.0308 -0.1,-0.0625 -0.15333,-0.125 -0.0442,-0.0308 -0.1125,-0.0467 -0.15333,-0.125 -0.1,-0.0467 -0.20667,-0.125 -0.31334,-0.125 -0.2125,-0.0467 -0.43666,-0.0467 -0.65916,-0.0467 h 0.002 c -0.59833,0.0467 -1.26,0.355 -2.04,0.53166 -2.5625,0.75584 -4.9625,2.79334 -4.20583,6.76834 l 8.035,46.8875 c 0.46667,1.98333 -1.34167,4.60583 -3.67167,4.34 -3.96166,-2.46834 -4.93833,-7.48084 -11.70583,-7.25917 -4.895,0.0467 -10.47667,4.96 -11.17333,9.68917 -0.81667,3.75583 -1.10667,7.83083 0,11.1075 3.43083,3.80833 7.56,3.4075 11.17333,2.545 2.97083,-1.12834 5.41417,-3.82667 6.465,-3.18334 0.003,0.003 0.0283,-0.002 0.0317,0 0.002,0.005 -0.003,0.0317 0,0.0317 0.6475,1.045 -0.06,9.86917 -13.99917,16.68917 -8.565,3.54333 -15.38333,4.3875 -19.05083,-2.055 -2.2725,-4.0275 0.165,-19.36 -5.42917,-15.8225 -16.54667,39.3075 38.765,44.795 44.94333,1.6175 0.40167,-1.21584 1.61917,-2.43917 2.48,-2.1375 0.37167,0.17666 0.7225,0.62 0.8475,1.5 -1.2825,39.0925 -42.79,41.77166 -49.83916,29.475 -1.7475,-2.9 -2.27417,-9.35167 -2.44834,-13.21834 -0.31833,-2.33833 -0.95666,-3.69166 -1.695,-4.2225 -1.67333,-1.15833 -3.93333,1.87834 -4.425,7.14417 -0.7,4.24083 -0.50166,5.3975 -0.50166,9.48833 2.21333,30.87584 55.62833,17.60917 64.30833,-7.89666 z M 250.5275,295.31667 c -0.004,0.005 0.002,0.0308 0,0.0308 -0.008,0.0142 -0.0225,0.0467 -0.0317,0.0467 -0.41333,0.4725 -1.87833,0.29583 -2.91833,0.29583 -1.26,-0.0475 -1.88,-0.23583 -2.63667,-1.1875 -0.36,-1.05167 0.73917,-2.085 1.225,-2.86417 0.005,-0.008 0.0267,-0.0167 0.0317,-0.0317 0.065,-0.0467 0.13583,-0.17667 0.21833,-0.23584 0.3775,-0.355 1.0275,-0.61416 1.72584,-0.69666 0.13583,-0.0158 0.26666,-0.0317 0.40833,-0.0317 0.97167,0.01 1.9975,0.41417 2.54083,1.70667 0.40084,1.005 0.18834,2.1325 -0.56166,2.95333 z M 479.52917,345.9 l -9.29084,0.92083 z m -52.38334,-80.0675 c 4.13084,1.8125 11.91,1.01583 11.58084,-5.12 0,-0.53167 -0.15917,-2.36833 -0.21834,-2.86417 -0.41916,-0.90916 -1.2,-1.24583 -1.94583,-1.12833 -0.745,0.125 -1.46417,0.71417 -1.72583,1.65333 -0.16584,0.61417 0.31833,1.6 -0.28334,1.90834 -0.34333,0.35416 -1.68666,0.125 -1.63333,-1.56584 0,-0.53083 -0.425,-1.13333 -0.69,-1.47666 -0.26,-0.17584 -0.43667,-0.23584 -0.91,-0.23584 -0.5725,0.0167 -0.56083,0.17667 -0.87833,0.60834 -0.13584,0.41416 -0.31334,0.9025 -0.31334,1.41666 -0.07,0.60167 -0.30083,0.81 -0.78333,0.89834 -0.53833,0 -0.44333,0.0475 -0.87917,-0.23584 -0.24833,-0.295 -0.56166,-0.35416 -0.56166,-0.80833 0,-0.415 -0.12917,-1.2 -0.28334,-1.50667 -0.22416,-0.29583 -0.58416,-0.355 -1.00333,-0.4725 -2.25667,0.008 -2.39,2.36834 -2.26,3.26667 -0.165,0.175 -0.28333,4.43417 2.7925,5.60917 z M 493.75,281.65583 c 0.07,-3.58416 0.44833,-8.34666 0.65833,-11.31083 0.0892,-1.12167 0.37167,-2.35 1.53667,-2.63333 1.1625,-0.29584 3.17833,1.075 3.20167,-0.125 -0.2125,-2.28 -0.70584,-5.64 -2.10334,-7.23084 -0.715,-0.98 -1.88916,-1.50666 -3.10666,-1.565 -2.02834,-0.125 -4.1875,1.12167 -4.74,3.67334 0.008,1.50583 0.73833,2.33333 0.59583,3.69666 -0.2125,0.78 -1.08583,1.29417 -3.17,0.355 0.33083,-0.29583 -1.35,-2.4625 -1.35,-2.4625 -1.62583,-0.90916 -3.79667,0.0467 -5.21,0.89667 -0.7775,1.3 -1.35167,3.5375 -0.46667,5.81083 2.33334,3.975 10.33834,10.7525 14.15584,10.81834 z m -25.74,49.45334 c 2.87833,0.0167 6.205,-6.06667 7.62667,-12.08917 0.77833,-8.29667 -0.52,-13.34583 -0.75334,-18.2225 -0.23666,-4.8775 -5.99,-44.44167 -7.15583,-48.13167 -1.40583,-6.97583 5.5975,-0.9225 4.83333,-4.9725 -2.42083,-5.115 -8.465,-12.5725 -10.35666,-17.00833 -0.71084,-1.19167 -0.79917,-2.29083 -1.38084,-2.19583 -0.34833,0.0625 -0.865,0.53083 -1.82083,1.70666 -2.36333,7.11834 -3.19333,12.93334 -2.29167,17.35417 6.06834,29.1875 12.28667,55.77833 11.29917,83.56333 z m -21.59167,-5.95667 c -6.6425,6.39167 -16.22,14.27 -26.64583,17.905 -1.12167,1.15833 2.78833,6.1075 7.84667,6.1025 8.45833,-0.9025 15.89166,-5.27917 22.78583,-16.80417 1.84417,-2.6875 5.08333,-8.44166 5.17917,-12.90166 0.645,-26.145 -1.4225,-46.47334 -5.68,-65.37 -0.27167,-1.8425 -0.0892,-4.01 0.2475,-4.57084 0.54333,-0.60333 2.405,0.0142 3.39,-1.47666 1.445,-1.35834 -3.86,-12.63917 -6.87334,-16.98 -0.6025,-1.0875 -0.97333,-1.95417 -1.50666,-1.9075 -0.41334,0.0317 -0.92084,0.62666 -1.69584,2.14416 -1.86333,2.81667 -3.12833,7.70917 -2.9825,12.29334 4.03417,25.745 5.2725,48.27416 7.90917,74.01916 0.21333,2.49167 -0.18333,6.10667 -1.97667,7.55 z m 17.36667,-10.55 c 0.1,-0.35417 0.0833,-0.35417 0,0 z m -33.85,-72.58167 c 1.47417,3.80334 -1.125,7.43 0.40833,7.955 1.41084,0.59 3.375,-3.93333 4.11167,-8.1 0.85083,-3.37166 -1.76083,-10.28666 -5.46167,-11.71333 -0.28333,-0.0625 -0.58416,-0.0625 -0.87833,-0.125 -2.11667,-0.0625 -4.45833,1.175 -3.54667,3.61417 -0.53166,1.33416 4.5475,5.86416 5.36667,8.33 z m 74.58833,39.48167 a 0.73833333,0.73833333 0 0 0 -0.34166,0.0317 l -19.61584,12.98666 c -1.89833,1.55917 -0.94833,7.02417 0,6.39334 1.3725,0.47166 20.64334,-11.55 20.275,-12.95917 0.84,0.0467 1.24417,-6.19167 -0.3125,-6.45 z m -13.475,-35.11833 A 686.85333,686.85333 0 0 1 508.1225,266.515 c 1.21083,14.3625 1.53333,27.52667 2.76167,41.91167 -0.17084,6.15333 -2.2275,14.32416 -4.17334,15.1 0,0 -2.9725,1.57 -4.95833,-0.17667 -1.44417,-0.53167 -7.21917,-8.88083 -7.21917,-8.88083 -2.95583,-2.49834 -4.92666,-1.78334 -7.03,0 -5.8,5.16166 -8.42416,14.83166 -12.365,21.49166 -1.01583,1.4875 -3.87916,2.74584 -7.06083,-0.125 -6.54833,-8.2525 -4.69083,-19.31583 -4.28333,-21.24416 l -0.0825,0.355 c -7.2,7.4775 -4.01084,19.8675 -2.385,22.53333 2.37333,4.375 4.29333,7.1775 8.91333,9.34167 4.20833,2.8525 7.4825,1.075 9.29,-0.92167 4.23333,-4.04583 4.29,-14.38333 6.27667,-16.42917 1.39416,-3.76166 4.8875,-3.1125 6.59166,-1.44666 1.65,2.185 3.6,3.61416 6.025,4.80083 3.95,3.20667 8.6625,3.79167 13.30834,0.86917 3.17333,-1.64167 5.23333,-3.78 7.0925,-7.98417 1.995,-4.91333 1.00833,-30.675 0.56083,-45.00667 l 8.85083,11.83 c 1.28334,12.5725 1.86667,24.96917 1.44417,36.85 -0.30167,2.36167 8.94417,-7.05333 8.8825,-11.5125 v -10.73166 c 4.48583,6.6 8.82667,13.31 12.93,20.10333 2.5425,-1.23417 1.67167,-14.51167 0.0658,-16.34167 -4.2975,-6.645 -9.8,-13.825 -14.06083,-19.38 -0.8425,-7.02 -1.99,-15.28333 -2.51083,-17.81916 -0.81167,-3.95 -1.62667,-9.8875 -2.85667,-14.5775 -0.33667,-1.83084 -1.35583,-7.68084 -1.03417,-8.2425 0.50167,-1.305 2.39334,0.0467 3.32667,-1.47667 1.39583,-1.40667 -4.8375,-16.28833 -8.00417,-20.5375 -1.1375,-1.9075 -3.195,-1.245 -5.74333,1.85417 -2.36333,2.0375 -1.50667,6.68666 -0.59583,11.1075 2.34333,11.2675 4.43333,22.74416 6.08833,34.19 l -10.48333,-14.17334 -0.46667,-2.2325 c 0,-0.23583 -0.50167,-9.21666 -0.94167,-11.36666 -0.0825,-0.8725 -0.3,-1.12167 0.69167,-1.00834 1.05167,0.81334 1.19417,0.85584 1.85167,1.1275 1.06333,0.17667 1.99083,-1.47666 1.35,-3.00583 l -9.855,-16.77667 c -0.395,-0.35416 -0.83834,-0.7375 -1.35,-0.80833 -0.5075,-0.0633 -1.06834,0.175 -1.695,1.00833 -1.19834,0.96917 -2.48667,2.7225 -2.44834,4.9725 0.29,3.96834 1.05834,8.03334 1.35,12.00417 l 0.31334,1.58917 a 15.114167,15.114167 0 0 0 -1.09917,-1.1875 c -8.39583,-8.13 3.85,-1.32834 -1.60083,-7.60834 -4.61584,-4.67083 -5.96667,-6.1575 -9.9175,-8.96666 -1.98084,-1.18084 -3.17834,-3.43667 -3.82917,0.355 -0.24833,3.37166 -0.52583,7.28 -0.2775,10.125 -0.0142,1.57583 1.76167,4.5525 3.295,6.305 z m 48.68334,6.52083 c 0.67083,1.90833 -1.02167,8.05333 0.37166,8.62 1.28584,0.63083 3.095,-4.24667 3.76667,-8.765 0.37167,-2.46833 -1.61583,-11.15167 -4.99167,-12.6975 -0.265,-0.0467 -0.53666,-0.125 -0.815,-0.125 -1.93,-0.0467 -4.03416,1.2875 -3.20166,3.93333 -0.48417,1.44084 4.1175,6.345 4.865,9.02417 z M 393.4,341.88667 c 0,0.17666 1.61667,1.42416 3.515,0.355 4.00667,-1.41084 6.50333,-2.78167 12.11417,-3.90334 1.47333,-0.0317 1.3875,-3.66166 -0.94167,-3.78583 -3.03833,0.17667 -5.84417,0.29583 -8.88333,2.48667 -1.86917,0.35416 -2.19,-0.65 -2.605,-1.58917 -0.4725,-2.3325 1.06916,-3.98 0.75333,-5.72833 0.0825,0.0625 -0.94333,-0.77334 -2.26,-0.83834 -0.47833,-0.0167 -0.955,0.0625 -1.38,0.295 -0.0833,0 -4.225,2.575 -5.555,4.36417 -0.8125,0.59083 -0.72,1.0625 -0.46667,2.055 0.63334,1.34083 1.7475,0.92167 3.01334,0.295 1.67916,-0.23583 2.49166,0.80333 2.35333,2.66333 -0.775,2.315 0.3425,3.18334 0.3425,3.33084 z m 18.94333,-36.86 0.0308,-0.0317 c 0.003,-0.002 0.0283,-0.0308 0.0317,-0.0308 0.002,-0.003 0.025,-0.0158 0.0308,-0.0317 V 304.87 a 1.0391667,1.0391667 0 0 0 -0.0308,-0.295 l -1.82083,-0.98583 -35.87333,-0.17667 c -0.44334,-0.17667 -0.77334,-0.355 -0.9725,-0.41417 a 1.7908333,1.7908333 0 0 1 -0.0667,-0.0625 l -0.0308,-0.0308 -0.0308,-0.0317 -0.0317,-0.0467 -0.0308,-0.0317 v -0.0308 l -0.0317,-0.0317 v -0.125 -0.15583 l 0.0317,-0.0317 0.0308,-0.0467 c 0.16583,-0.23583 0.59916,-0.41416 1.13,-0.60833 8.56666,-1.075 23.78416,-3.37167 24.795,-16.86167 -0.165,-7.01916 -3.26167,-11.62666 -12.61584,-12.9025 -6.87416,0.47167 -11.775,6.61834 -10.98583,13.365 -0.325,1.8125 0.6675,5.38584 -1.35,5.78084 -13.185,1.11166 -27.575,8.71583 -28.05833,14.17333 h -0.0317 l -0.0317,0.0308 -0.0658,0.0317 h -0.0658 c -0.0308,0.01 -0.065,0.015 -0.0933,0.0308 h -0.18833 c -0.0417,-0.008 -0.0833,-0.0158 -0.12333,-0.0308 -0.8575,-0.23583 -1.96167,-1.52333 -1.78834,-3.35417 -0.50166,-9.42 -3.82916,-20.08 -9.03916,-28.28916 -1.85917,-1.7125 -2.67834,-2.40334 -3.20084,-2.48584 -0.0175,-0.002 -0.0458,0 -0.0667,0 H 331.605 a 0.25416667,0.25416667 0 0 0 -0.15333,0.125 c -0.0333,0.0158 -0.065,0.0308 -0.0933,0.0467 -0.40166,0.295 -0.88,0.92167 -1.94583,1.61833 -1.7975,1.88334 -2.11917,3.195 -2.00917,6.97084 0.1,0.35416 3.41167,8.87 6.21417,14.8375 1.89,6.19416 3.6375,13.28916 2.35417,19.9875 -4.425,8.85666 -13.32,16.8 -21.90584,21.115 -4.375,1.2875 -8.15166,0.85 -9.16416,-0.0317 l -0.03,-0.0308 c -2.51084,-1.56 -2.56834,-4.31667 -2.41417,-4.80167 v -0.0308 l 0.0308,-0.0317 c 7.24584,-4.65333 15.52084,-8.40667 22,-20.97 1.91417,-4.80167 2.49834,-7.67917 0.59667,-15.09917 -0.74083,-2.76333 -1.6575,-5.0375 -3.70333,-7 l 0.0308,-0.0308 c 1.23334,-0.53167 4.43334,1.63 4.92751,0.295 -0.7575,-3.54333 -3.36,-8.2975 -6.30834,-10.73083 -2.58083,-2.16167 -5.39,-2.41 -7.7525,-0.41417 -2.66083,1.36417 -3.2275,6.26667 -1.94583,10.5575 1.4225,3.23 5.26667,3.79167 8.00333,10.29667 v 0.0317 c 0.0567,0.355 0.93917,4.86 -0.43666,6.6525 -1.11917,3.2125 -15.48334,13.6525 -16.50917,14.28834 -0.0117,0.0117 -0.0833,0.0467 -0.0958,0.0625 l -0.0308,0.0317 c -0.0108,0.008 -0.0208,0.015 -0.0317,0.0308 -0.01,0.01 -0.02,0.0158 -0.0308,0.0317 h -0.0667 c -0.01,-0.01 -0.0208,-0.0167 -0.0308,-0.0317 v -0.0308 a 0.23583333,0.23583333 0 0 1 -0.0308,-0.0625 c -0.0442,-0.29583 0.0333,-0.9225 0,-1.99666 -0.095,-1.95417 0.78333,-6.385 0.72083,-7.145 v -0.0308 l -0.0308,-0.0317 v -0.0308 h -0.0317 c -4.74999,2.8225 -6.31833,11.49334 -7.18666,14.05834 -12.02667,7.65916 -25.69334,13.35666 -33.55,21.115 -4.09667,5.89416 28.225,-6.77 31.98166,-8.30167 0.0333,0.0158 0.0658,0.0625 0.0942,0.125 0.71333,0.72 0.775,3.24833 2.91833,5.52167 3.35834,4.1925 10.50084,6.77666 17.45,5.17333 11.65417,-3.88 18.3675,-11.20167 25.20334,-19.32167 0.97666,-1.31083 2.50833,-2.33916 3.9225,-1.32833 4.69666,9.69167 18.23916,16.58667 35.7475,17.2975 4.05083,-4.54167 2.11416,-6.77167 0.46666,-7.72333 -0.50166,-0.355 -8.7075,-3.26 -9.98,-6.19 -0.8025,-2.72834 1.14584,-5.15 5.0525,-6.97084 11.24167,-1.25166 22.29167,-2.64583 32.98667,-5.81166 0.10583,-3.3125 2.225,-8.2625 3.64083,-10.41334 0.98334,-1.49333 1.615,-1.64166 1.85167,-1.85416 z m -29.5875,-20.76 c 0.025,-0.125 0.065,-0.17667 0.12334,-0.29584 0.02,-0.0308 0.0392,-0.0467 0.0658,-0.125 l 0.0308,-0.0308 c 0.0467,-0.0625 0.1,-0.125 0.15334,-0.17667 0.22416,-0.17666 0.54916,-0.295 0.91083,-0.355 0.78083,-0.0625 1.80583,0.17667 2.79167,0.6975 1.42916,0.7625 2.31083,1.91334 2.1975,2.75167 -0.004,0.0158 0.005,0.0467 0,0.125 -0.005,0.0158 -0.055,0.0467 -0.0658,0.125 l -0.0308,0.125 c -0.006,0.0133 -0.025,0.0467 -0.0317,0.0467 -0.01,0.0158 -0.02,0.0317 -0.0308,0.0625 -0.0533,0.0625 -0.11917,0.17666 -0.18917,0.23583 -0.68583,0.59167 -2.27166,0.4725 -3.76666,-0.295 -1.415,-0.75667 -2.29,-1.91333 -2.19584,-2.74583 0.003,-0.0167 0.0267,-0.0475 0.0308,-0.125 z M 368.41417,317.38 c -3.85,1.21667 -7.54667,2.16667 -7.56334,7.28917 0.5025,2.53916 0.39584,3.8675 -0.0308,4.48166 -0.0375,0.0475 -0.0767,0.125 -0.12333,0.17667 l -0.0317,0.0317 -0.0308,0.0308 c -0.01,0.01 -0.0208,0.0167 -0.0317,0.0317 l -0.0308,0.0308 c -0.0225,0.009 -0.0442,0.0167 -0.0667,0.0317 -0.0583,0.0467 -0.1225,0.0467 -0.18833,0.125 -0.0533,0.0158 -0.12917,0.0158 -0.18834,0.0308 -0.915,0.125 -2.24333,-0.67917 -3.23333,-1.1575 -2.37333,-1.57083 -9.03333,-5.37417 -9.98083,-13.5375 -0.13584,-1.84167 1.36083,-3.43083 3.76666,-3.58417 0.11834,-0.008 0.2175,0 0.34167,0 h 0.0658 c 3.99584,0.99834 9.8875,1.10417 15.00334,1.58834 4.165,0.23583 6.22416,3.24833 2.3225,4.51166 z m -84.1725,-11.28 c -0.095,1.47 4.40333,3.25917 4.67583,6.6525 0.64333,1.4 -0.9625,5.8875 0.37833,6.305 1.22834,0.47167 2.93334,-3.1 3.5775,-6.42083 0.35417,-1.81917 -1.54333,-8.17834 -4.77083,-9.31334 -0.50167,-0.125 -1.02167,-0.17666 -1.53667,-0.125 -1.55833,0.125 -2.95,0.86834 -2.32333,2.89334 z M 356.54,285.385 c 4.13083,1.81333 13.97667,0.75 11.58083,-5.11417 0,-0.53166 -0.15916,-2.36833 -0.21833,-2.86416 -0.42,-0.90334 -1.2,-1.24584 -1.94583,-1.12834 -0.74584,0.125 -1.465,0.69667 -1.72667,1.61834 -0.165,0.61416 0.31917,1.63 -0.2775,1.9425 -0.34167,0.355 -1.68583,0.125 -1.6325,-1.565 0,-0.53084 -0.43083,-1.13334 -0.69,-1.47584 -0.26,-0.17666 -0.40167,-0.23666 -0.87833,-0.23666 -0.57334,0.0167 -0.585,0.17666 -0.91,0.60833 -0.13667,0.41417 -0.31334,0.90333 -0.31334,1.41667 -0.07,0.60166 -0.30083,0.81 -0.78416,0.8975 -0.5375,0 -0.41917,0.0625 -0.84834,-0.23584 -0.2475,-0.29583 -0.59583,-0.355 -0.59583,-0.81 0,-0.41416 -0.1,-1.19833 -0.2475,-1.5 -0.225,-0.295 -0.6225,-0.35416 -1.03583,-0.47166 -2.25584,0.008 -2.38917,2.36833 -2.25917,3.26583 -0.16583,0.17667 -0.28333,4.435 2.79167,5.61 z m 34.97917,-41.925 c 6.925,8.58 13.58916,17.20083 20.025,26.12 1.00333,6.6225 1.7525,13.1 2.22833,19.55333 1.0425,14.14584 1.35833,31.75667 0.4075,46.655 2.87583,0.125 7.48333,-4.28166 9.10167,-10.70166 1.0525,-8.88334 -0.3725,-27.01 -0.46667,-32.25167 -0.0658,-2.17333 -0.2125,-4.77167 -0.37833,-7.49167 a 477.3275,477.3275 0 0 1 21.875,36.33 c 2.6,-1.13416 2.02333,-14.6225 0.5025,-16.51666 -5.70584,-11.31667 -13.5875,-22.48834 -16.1,-26.78584 -0.90834,-1.54166 -3.99667,-5.88166 -7.65834,-10.875 -0.67416,-7.125 -1.40583,-13.16 -1.88333,-14.98333 -1.1775,-7.5325 3.35833,0.84417 2.73083,-3.53167 -1.47333,-7.52166 -5.9775,-12.63333 -11.29916,-19.52333 -1.715,-2.23833 -1.67334,-2.69917 -4.33084,0.53083 -1.58333,3.31334 -1.56166,6.065 -1.09916,8.64917 a 46.996667,46.996667 0 0 0 -2.7925,-3.40833 l -8.69334,-6.79584 c -1.20333,-0.78666 -3.4925,-2.00833 -5.24166,-1.85416 -1.05,0.125 -1.885,0.65583 -2.19667,2.08333 -0.42,3.36083 -0.20083,5.18583 0.4075,7.98333 0.46667,1.86667 3.41417,4.985 4.86417,6.79917 z m 14.66333,-0.47167 c 0.165,0.72667 0.35417,1.45334 0.4725,2.19667 0.395,1.6 0.73583,3.18917 1.09833,4.77167 -1.5225,-1.93667 -2.78333,-3.49584 -3.32583,-4.05084 -3.44833,-3.78 0.0758,-2.475 1.75667,-2.91666 z"
     id="path6"
     inkscape:connector-curvature="0"
     style="fill:#ffffff;stroke-width:0.83333331"
     clip-path="url(#clipPath827)"
     transform="translate(-125,-100)" />
</svg>
