<?xml version="1.0" encoding="UTF-8" standalone="no"?>
<svg
   xmlns:dc="http://purl.org/dc/elements/1.1/"
   xmlns:cc="http://creativecommons.org/ns#"
   xmlns:rdf="http://www.w3.org/1999/02/22-rdf-syntax-ns#"
   xmlns:svg="http://www.w3.org/2000/svg"
   xmlns="http://www.w3.org/2000/svg"
   xmlns:sodipodi="http://sodipodi.sourceforge.net/DTD/sodipodi-0.dtd"
   xmlns:inkscape="http://www.inkscape.org/namespaces/inkscape"
   height="500"
   viewBox="-60 -40 50 50"
   width="500"
   version="1.1"
   id="svg12"
   sodipodi:docname="Tunisia R.svg"
   inkscape:version="0.92.4 (5da689c313, 2019-01-14)">
  <metadata
     id="metadata18">
    <rdf:RDF>
      <cc:Work
         rdf:about="">
        <dc:format>image/svg+xml</dc:format>
        <dc:type
           rdf:resource="http://purl.org/dc/dcmitype/StillImage" />
        <dc:title></dc:title>
      </cc:Work>
    </rdf:RDF>
  </metadata>
  <defs
     id="defs16">
    <clipPath
       clipPathUnits="userSpaceOnUse"
       id="clipPath830">
      <circle
         style="opacity:1;fill:#00008c;fill-opacity:0.42211058;stroke-width:0.33814919"
         id="circle832"
         cx="0"
         cy="0"
         r="40" />
    </clipPath>
  </defs>
  <sodipodi:namedview
     pagecolor="#ffffff"
     bordercolor="#666666"
     borderopacity="1"
     objecttolerance="10"
     gridtolerance="10"
     guidetolerance="10"
     inkscape:pageopacity="0"
     inkscape:pageshadow="2"
     inkscape:window-width="1366"
     inkscape:window-height="705"
     id="namedview14"
     showgrid="false"
     showguides="false"
     inkscape:zoom="0.23666667"
     inkscape:cx="475"
     inkscape:cy="400"
     inkscape:window-x="-8"
     inkscape:window-y="-8"
     inkscape:window-maximized="1"
     inkscape:current-layer="svg12"
     fit-margin-top="0"
     fit-margin-left="0"
     fit-margin-right="0"
     fit-margin-bottom="0" />
  <g
     id="g10"
     transform="matrix(0.625,0,0,0.625,-35,-15)"
     style="fill:#e70013"
     clip-path="url(#clipPath830)">
    <path
       d="M -60,-40 H 60 V 40 H -60 Z"
       id="path2"
       inkscape:connector-curvature="0" />
    <circle
       r="20"
       id="circle4"
       cx="0"
       cy="0"
       style="fill:#ffffff" />
    <path
       d="M 0,-15 A 15,15 0 0 0 -15,0 15,15 0 0 0 0,15 15,15 0 0 0 12.102,8.835 12,12 0 0 1 4,12 12,12 0 0 1 -8,0 12,12 0 0 1 4,-12 12,12 0 0 1 12.101,-8.833 15,15 0 0 0 0,-15 Z"
       id="path6"
       inkscape:connector-curvature="0" />
    <path
       d="M -5,0 11.281,-5.29 1.22,8.56 V -8.56 L 11.28,5.29 Z"
       id="path8"
       inkscape:connector-curvature="0" />
  </g>
</svg>
